<svg width="257" height="45" viewBox="0 0 257 45" fill="none" xmlns="http://www.w3.org/2000/svg">
<path d="M14.5876 14.6447C13.9415 13.9571 13.1594 13.4071 12.2413 12.9946C11.3232 12.6164 10.2691 12.4102 9.113 12.4102C5.98465 12.4102 3.26436 13.4415 1.02011 15.5041C0.816089 15.676 0.782085 15.9854 0.9181 16.226L1.73419 17.6699C1.90421 17.9793 2.14223 18.2199 2.41426 18.4262C2.7203 18.6668 3.09434 18.77 3.53639 18.77C3.97843 18.77 4.42048 18.6668 4.79452 18.4262C5.10056 18.2543 5.44059 18.048 5.78063 17.8418C6.08666 17.6355 6.49471 17.4636 6.93676 17.3261C7.3448 17.1886 7.88886 17.1199 8.53493 17.1199C9.35102 17.1199 9.96309 17.3605 10.3711 17.8418C10.7792 18.3231 11.0172 19.1481 11.0172 20.2482V20.7639C9.113 20.7982 7.51482 20.9701 6.18868 21.3139C4.72652 21.6921 3.50238 22.1733 2.61829 22.7578C1.70019 23.3765 1.02011 24.0641 0.578063 24.8204C0.204022 25.6455 0 26.4361 0 27.2268C0 28.155 0.136015 28.9457 0.442048 29.6676C0.748082 30.3895 1.15613 30.9739 1.70019 31.4552C2.24425 31.9365 2.89032 32.2803 3.60439 32.5209C4.31847 32.7616 5.10056 32.8647 5.95065 32.8647C6.63072 32.8647 7.27679 32.7959 7.85486 32.6928C8.43292 32.5897 8.97698 32.3834 9.52104 32.1772C10.0311 31.9365 10.5412 31.6615 11.0172 31.3177C11.2552 31.1458 11.4933 30.9396 11.7653 30.7333L11.9013 31.2146C12.0713 31.7646 12.3433 32.1428 12.7174 32.349C13.0574 32.5209 13.4655 32.6241 13.9755 32.6241H15.9817C16.2878 32.6241 16.5598 32.349 16.5598 32.0396V20.2138C16.5598 19.1137 16.3898 18.048 16.0838 17.1199C15.7097 16.1573 15.2337 15.3322 14.5876 14.6447ZM11.0512 24.6829V26.9862C10.8132 27.2268 10.5412 27.4331 10.3031 27.6393C10.0311 27.8456 9.72506 28.0519 9.41903 28.1894C9.113 28.3269 8.80696 28.43 8.46692 28.5332C8.12689 28.6019 7.75285 28.6363 7.3448 28.6363C6.73274 28.6363 6.22268 28.4988 5.88264 28.2238C5.57661 27.9831 5.44059 27.605 5.44059 26.9862C5.44059 26.7112 5.5086 26.4361 5.67862 26.1955C5.84864 25.9548 6.15467 25.7142 6.56272 25.5079C7.03877 25.2673 7.68484 25.061 8.50093 24.9235C9.181 24.786 10.0311 24.7173 11.0512 24.6829Z" fill="#4D4D4D"/>
<path d="M36.418 12.754H31.9635C31.6575 12.754 31.3854 13.029 31.3854 13.3384V26.5737C30.8754 27.055 30.3313 27.4332 29.7873 27.7426C29.2092 28.052 28.5631 28.1895 27.883 28.1895C26.999 28.1895 26.3869 27.9488 25.9788 27.4676C25.5368 26.9519 25.3328 26.1956 25.3328 25.1986V13.3384C25.3328 13.029 25.0607 12.754 24.7547 12.754H20.3342C20.0282 12.754 19.7562 13.029 19.7562 13.3384V25.1986C19.7562 26.2987 19.8922 27.33 20.1982 28.2239C20.5042 29.152 20.9463 29.9771 21.4904 30.6646C22.0684 31.3522 22.7825 31.9022 23.6666 32.2804C24.5167 32.6585 25.5028 32.8648 26.5569 32.8648C27.203 32.8648 27.849 32.796 28.3931 32.6585C28.9712 32.521 29.5152 32.3148 29.9913 32.0741C30.5013 31.8335 30.9774 31.5241 31.3854 31.1803C31.5554 31.0428 31.6915 30.9397 31.8615 30.8022L31.9635 31.2834C32.2355 32.1429 32.8476 32.5554 33.6637 32.5554H36.384C36.69 32.5554 36.962 32.2804 36.962 31.971V13.3384C36.996 13.029 36.724 12.754 36.418 12.754Z" fill="#4D4D4D"/>
<path d="M46.245 4.40027H41.8246C41.5185 4.40027 41.2465 4.67529 41.2465 4.98468V32.0053C41.2465 32.3147 41.5185 32.5897 41.8246 32.5897H46.245C46.5511 32.5897 46.8231 32.3147 46.8231 32.0053V4.98468C46.8231 4.64091 46.5851 4.40027 46.245 4.40027Z" fill="#4D4D4D"/>
<path d="M64.7431 14.6447C64.097 13.9571 63.3149 13.4071 62.3968 12.9946C61.4787 12.6164 60.4246 12.4102 59.2685 12.4102C56.1401 12.4102 53.4198 13.4415 51.1756 15.5041C50.9716 15.676 50.9375 15.9854 51.0736 16.226L51.8897 17.6699C52.0597 17.9793 52.2977 18.2199 52.5697 18.4262C52.8758 18.6668 53.2498 18.77 53.6918 18.77C54.1339 18.77 54.5759 18.6668 54.95 18.4262C55.256 18.2543 55.5961 18.048 55.9361 17.8418C56.2421 17.6355 56.6502 17.4636 57.0922 17.3261C57.5003 17.1886 58.0443 17.1199 58.6904 17.1199C59.5065 17.1199 60.1186 17.3605 60.5266 17.8418C60.9346 18.3231 61.1727 19.1481 61.1727 20.2482V20.7639C59.2685 20.7982 57.6703 20.9701 56.3441 21.3139C54.882 21.6921 53.6578 22.1733 52.7737 22.7578C51.8556 23.3765 51.1756 24.0641 50.7335 24.8204C50.3255 25.5767 50.1215 26.4018 50.1215 27.1924C50.1215 28.1206 50.2575 28.9113 50.5635 29.6332C50.8695 30.3552 51.2776 30.9396 51.8216 31.4209C52.3657 31.9021 53.0118 32.2459 53.7259 32.4866C54.4399 32.7272 55.222 32.8303 56.0721 32.8303C56.7522 32.8303 57.3983 32.7616 57.9763 32.6584C58.5544 32.5553 59.0984 32.349 59.6425 32.1428C60.1526 31.9021 60.6626 31.6271 61.1387 31.2833C61.3767 31.1115 61.6147 30.9052 61.8867 30.6989L62.0228 31.1802C62.1928 31.7302 62.4648 32.1084 62.8388 32.3147C63.1789 32.4866 63.5869 32.5897 64.097 32.5897H66.1032C66.4092 32.5897 66.6813 32.3147 66.6813 32.0053V20.2138C66.6813 19.1137 66.5112 18.048 66.2052 17.1199C65.8652 16.1573 65.3551 15.3322 64.7431 14.6447ZM61.1727 24.6829V26.9862C60.9346 27.2268 60.6626 27.4331 60.4246 27.6393C60.1526 27.8456 59.8465 28.0519 59.5405 28.1894C59.2345 28.3269 58.9284 28.43 58.5884 28.5332C58.2483 28.6019 57.8743 28.6363 57.4663 28.6363C56.8542 28.6363 56.3441 28.4988 56.0041 28.2238C55.6981 27.9831 55.5621 27.605 55.5621 26.9862C55.5621 26.7112 55.6301 26.4361 55.8001 26.1955C55.9701 25.9548 56.2761 25.7142 56.6842 25.5079C57.1602 25.2673 57.8063 25.061 58.6224 24.9235C59.3365 24.786 60.1866 24.7173 61.1727 24.6829Z" fill="#4D4D4D"/>
<path d="M86.7775 12.754H83.2751C82.867 12.754 82.493 12.8572 82.153 13.0978C81.8469 13.3384 81.6089 13.6135 81.5069 13.9916L77.8685 23.9611C77.7325 24.3048 77.6305 24.683 77.5284 25.0268C77.4264 24.683 77.3244 24.3392 77.1884 23.9611L73.618 13.9916C73.482 13.6478 73.278 13.3384 72.938 13.0978C72.6319 12.8572 72.2239 12.754 71.7818 12.754H68.1094C67.9054 12.754 67.7354 12.8572 67.6334 12.9947C67.5314 13.1666 67.4974 13.3728 67.5654 13.5447L74.9102 32.2116C75.0122 32.4179 75.2162 32.5898 75.4542 32.5898H79.5007C79.7387 32.5898 79.9427 32.4523 80.0447 32.2116L87.3555 13.5447C87.4235 13.3728 87.3895 13.1666 87.2875 12.9947C87.1515 12.8572 86.9475 12.754 86.7775 12.754Z" fill="#4D4D4D"/>
<path d="M94.4963 12.754H90.0418C89.7358 12.754 89.4637 13.029 89.4637 13.3384V32.0054C89.4637 32.3148 89.7358 32.5898 90.0418 32.5898H94.4963C94.8023 32.5898 95.0744 32.3148 95.0744 32.0054V13.3384C95.0744 13.029 94.8023 12.754 94.4963 12.754Z" fill="#4D4D4D"/>
<path d="M94.7003 5.43164C94.3943 5.12224 94.0202 4.8816 93.6122 4.70971C93.2041 4.53782 92.7281 4.43469 92.252 4.43469C91.776 4.43469 91.3339 4.53782 90.9259 4.70971C90.5179 4.8816 90.1778 5.12224 89.8718 5.43164C89.5658 5.74103 89.3277 6.11918 89.1577 6.53171C88.9877 6.94424 88.8857 7.42553 88.8857 7.90681C88.8857 8.38809 88.9877 8.835 89.1577 9.24753C89.3277 9.66006 89.5658 10.0038 89.8718 10.3132C90.1778 10.6226 90.5179 10.8633 90.9259 11.0352C91.3339 11.207 91.776 11.3102 92.252 11.3102C92.7281 11.3102 93.1701 11.207 93.6122 11.0352C94.0202 10.8633 94.3943 10.6226 94.7003 10.3132C95.0064 10.0038 95.2444 9.66006 95.4484 9.24753C95.6524 8.835 95.7204 8.38809 95.7204 7.90681C95.7204 7.42553 95.6184 6.97862 95.4484 6.53171C95.2444 6.11918 95.0064 5.74103 94.7003 5.43164Z" fill="#4D4D4D"/>
<path d="M109.356 12.4102C108.132 12.4102 107.01 12.7883 106.024 13.5102C105.445 13.9228 104.935 14.4728 104.425 15.0916L104.357 14.404C104.289 13.8196 104.085 13.4415 103.813 13.1665C103.507 12.8914 103.065 12.7539 102.453 12.7539H99.8349C99.5288 12.7539 99.2568 13.0289 99.2568 13.3383V32.0053C99.2568 32.3147 99.5288 32.5897 99.8349 32.5897H104.289C104.595 32.5897 104.867 32.3147 104.867 32.0053V20.5232C105.275 19.6638 105.752 19.0106 106.33 18.5981C106.874 18.1512 107.554 17.9449 108.336 17.9449C108.812 17.9449 109.152 17.9793 109.424 18.048C109.798 18.1512 110.07 18.1856 110.308 18.1856C110.648 18.1856 110.92 18.1168 111.158 17.9449C111.396 17.773 111.566 17.4636 111.6 17.1199L112.212 13.7509C112.246 13.5102 112.144 13.304 111.974 13.1665C111.26 12.6508 110.41 12.4102 109.356 12.4102Z" fill="#4D4D4D"/>
<path d="M124.998 28.1551C124.828 27.9488 124.726 27.8113 124.59 27.7082C124.386 27.5707 124.182 27.4675 123.91 27.4675C123.705 27.4675 123.467 27.5363 123.297 27.6394C123.195 27.7082 123.093 27.7769 122.957 27.8457C122.855 27.9144 122.719 27.9488 122.549 28.0176C122.481 28.0519 122.311 28.0863 122.039 28.0863C121.733 28.0863 121.495 27.9832 121.325 27.7769C121.121 27.5707 121.053 27.2269 121.053 26.8144V17.2918H125.338C125.644 17.2918 125.916 17.0168 125.916 16.7074V13.5103C125.916 13.2009 125.644 12.9259 125.338 12.9259H121.053V7.63178C121.053 7.32238 120.781 7.04736 120.475 7.04736H118.163C117.755 7.04736 117.449 7.1505 117.143 7.35676C116.837 7.56302 116.667 7.87242 116.599 8.28495L115.749 12.9947L113.164 13.4072C112.892 13.4416 112.688 13.6822 112.688 13.9916V15.7792C112.688 16.398 112.926 16.7418 113.13 16.9137C113.402 17.1543 113.742 17.2918 114.15 17.2918H115.443V27.1238C115.443 28.877 115.919 30.2865 116.905 31.3178C117.891 32.3491 119.251 32.8648 121.019 32.8648C121.971 32.8648 122.923 32.7273 123.807 32.4179C124.726 32.1085 125.542 31.6616 126.222 31.0772C126.46 30.9053 126.494 30.5615 126.358 30.3209L124.998 28.1551Z" fill="#4D4D4D"/>
<path d="M144.924 12.754H140.469C140.163 12.754 139.891 13.029 139.891 13.3384V26.5737C139.381 27.055 138.837 27.4332 138.293 27.7426C137.715 28.052 137.069 28.1895 136.389 28.1895C135.505 28.1895 134.893 27.9488 134.485 27.4676C134.043 26.9519 133.839 26.1956 133.839 25.1986V13.3384C133.839 13.029 133.567 12.754 133.261 12.754H128.806C128.5 12.754 128.228 13.029 128.228 13.3384V25.1986C128.228 26.2987 128.364 27.33 128.67 28.2239C128.976 29.152 129.418 29.9771 129.962 30.6646C130.54 31.3522 131.254 31.9022 132.138 32.2804C132.988 32.6585 133.975 32.8648 135.029 32.8648C135.675 32.8648 136.321 32.796 136.865 32.6585C137.443 32.521 137.987 32.3148 138.463 32.0741C138.973 31.8335 139.449 31.5241 139.857 31.1803C140.027 31.0428 140.163 30.9397 140.333 30.8022L140.435 31.2834C140.707 32.1429 141.319 32.5554 142.135 32.5554H144.856C145.162 32.5554 145.434 32.2804 145.434 31.971V13.3384C145.502 13.029 145.23 12.754 144.924 12.754Z" fill="#4D4D4D"/>
<path d="M163.116 14.6447C162.47 13.9571 161.688 13.4071 160.77 12.9946C159.851 12.6164 158.797 12.4102 157.641 12.4102C154.513 12.4102 151.793 13.4415 149.548 15.5041C149.344 15.676 149.31 15.9854 149.446 16.226L150.262 17.6699C150.432 17.9793 150.67 18.2199 150.942 18.4262C151.248 18.6668 151.623 18.77 152.065 18.77C152.507 18.77 152.949 18.6668 153.323 18.4262C153.629 18.2543 153.969 18.048 154.309 17.8418C154.615 17.6355 155.023 17.4636 155.465 17.3261C155.873 17.1886 156.417 17.1199 157.063 17.1199C157.879 17.1199 158.491 17.3605 158.899 17.8418C159.307 18.3231 159.545 19.1481 159.545 20.2482V20.7639C157.641 20.7982 156.043 20.9701 154.717 21.3139C153.255 21.6921 152.031 22.1733 151.146 22.7578C150.228 23.3765 149.548 24.0641 149.106 24.8204C148.698 25.5767 148.494 26.4018 148.494 27.1924C148.494 28.1206 148.63 28.9113 148.936 29.6332C149.242 30.3552 149.65 30.9396 150.194 31.4209C150.738 31.9021 151.384 32.2459 152.099 32.4866C152.813 32.7272 153.595 32.8303 154.445 32.8303C155.125 32.8303 155.771 32.7616 156.349 32.6584C156.927 32.5553 157.471 32.349 158.015 32.1428C158.525 31.9021 159.035 31.6271 159.511 31.2833C159.749 31.1115 159.987 30.9052 160.259 30.6989L160.395 31.1802C160.566 31.7302 160.838 32.1084 161.212 32.3147C161.552 32.4866 161.96 32.5897 162.47 32.5897H164.476C164.782 32.5897 165.054 32.3147 165.054 32.0053V20.2138C165.054 19.1137 164.884 18.048 164.578 17.1199C164.272 16.1573 163.762 15.3322 163.116 14.6447ZM159.579 24.6829V26.9862C159.341 27.2268 159.069 27.4331 158.831 27.6393C158.559 27.8456 158.253 28.0519 157.947 28.1894C157.641 28.3269 157.335 28.43 156.995 28.5332C156.655 28.6019 156.281 28.6363 155.873 28.6363C155.261 28.6363 154.751 28.4988 154.411 28.2238C154.105 27.9831 153.969 27.605 153.969 26.9862C153.969 26.7112 154.037 26.4361 154.207 26.1955C154.377 25.9548 154.683 25.7142 155.091 25.5079C155.567 25.2673 156.213 25.061 157.029 24.9235C157.709 24.786 158.593 24.7173 159.579 24.6829Z" fill="#4D4D4D"/>
<path d="M173.963 4.40027H169.508C169.202 4.40027 168.93 4.67529 168.93 4.98468V32.0053C168.93 32.3147 169.202 32.5897 169.508 32.5897H173.963C174.269 32.5897 174.541 32.3147 174.541 32.0053V4.98468C174.541 4.64091 174.303 4.40027 173.963 4.40027Z" fill="#4D4D4D"/>
<path d="M230.103 36.0963L216.468 22.311L207.661 13.4072L185.218 36.0963L194.025 45L207.661 31.2147L221.296 45L230.103 36.0963Z" fill="#4D4D4D"/>
<path d="M212.115 8.90374L225.751 22.6891L234.558 31.5928L257 8.90374L248.193 0L234.558 13.7853L220.922 0L212.115 8.90374Z" fill="#B9210B"/>
</svg>
