<svg width="71" height="90" viewBox="0 0 71 90" fill="none" xmlns="http://www.w3.org/2000/svg">
<path d="M13.553 46.6667C25.9657 48.5792 34.6774 54.153 35.076 54.4262C35.4745 54.153 44.1862 48.5792 56.5989 46.6667C65.0829 45.3552 68.67 45.082 70.1505 45.0273V0H0.0584106V45.0273C1.48189 45.082 5.12599 45.3552 13.553 46.6667ZM60.6416 37.6503C60.6416 37.2678 60.9263 36.9399 61.268 36.8853C63.4886 36.612 64.7412 36.5027 65.4814 36.5027C65.937 36.5027 66.2786 36.8306 66.2217 37.2678C66.2217 37.6503 66.1647 38.1967 66.1647 38.7978C66.1647 39.1803 65.88 39.5082 65.4814 39.5082C64.5704 39.5629 63.2608 39.7268 61.4388 39.9454C60.9833 40 60.5847 39.6721 60.5847 39.1803V37.6503H60.6416ZM58.4779 38.1967V39.7814C58.4779 40.1639 58.1932 40.4918 57.8516 40.5465C56.9406 40.6557 55.9157 40.8197 54.8338 40.9836C54.4353 41.0383 54.0367 41.0929 53.6381 41.2022C53.1826 41.2568 52.784 40.929 52.784 40.4372V38.8525C52.784 38.47 53.0118 38.1967 53.4104 38.0874C53.6381 38.0328 53.8089 38.0328 54.0367 37.9781C55.4032 37.7596 56.5989 37.541 57.6808 37.4317C58.0794 37.3771 58.4779 37.7049 58.4779 38.1967ZM52.1008 32.8962C52.1008 32.5137 52.3285 32.2404 52.6701 32.1312C52.8979 32.0765 53.0687 32.0765 53.2965 32.0219C54.6061 31.8033 55.7449 31.5847 56.7698 31.4754C57.1683 31.4208 57.5669 31.7486 57.5669 32.2404V33.8251C57.5669 34.2077 57.2822 34.5355 56.9406 34.5902C56.0296 34.6995 55.1185 34.8634 54.0367 35.0273C53.6381 35.082 53.2395 35.1366 52.8979 35.2459C52.4424 35.3006 52.0438 34.9727 52.0438 34.4809V32.8962H52.1008ZM50.6203 39.6721V41.2568C50.6203 41.5847 50.3926 41.9126 50.0509 41.9672C48.5136 42.3497 47.0332 42.8415 45.7236 43.2787C45.2681 43.4426 44.7556 43.0601 44.7556 42.5683V41.0383C44.7556 40.7104 44.9264 40.4372 45.2111 40.3279C46.5777 39.8361 48.0581 39.3443 49.7093 38.9071C50.1648 38.7978 50.6203 39.1803 50.6203 39.6721ZM49.994 33.7159V35.3006C49.994 35.6284 49.7663 35.9563 49.4816 36.0109C48.0011 36.3934 46.5777 36.8853 45.325 37.3224C44.8695 37.4863 44.414 37.1038 44.414 36.612V35.082C44.414 34.7541 44.5848 34.4809 44.8695 34.3716C46.1791 33.8798 47.6026 33.388 49.1399 32.9508C49.5385 32.8962 49.994 33.224 49.994 33.7159ZM44.1293 29.5628C44.1293 29.235 44.3001 28.9618 44.5848 28.8525C45.8375 28.3607 47.2609 27.8689 48.7413 27.4317C49.1969 27.3224 49.5954 27.6503 49.5954 28.1421V29.7268C49.5954 30.0546 49.3677 30.3825 49.083 30.4372C47.6595 30.8197 46.293 31.3115 45.0403 31.7486C44.5848 31.9126 44.1293 31.5301 44.1293 31.0383V29.5628ZM42.535 42.5683V43.9891C42.535 44.3169 42.3642 44.5902 42.0795 44.6995C40.3144 45.4645 38.8909 46.1749 37.809 46.776C37.2966 47.0492 36.7272 46.6667 36.7272 46.1202V44.8634C36.7272 44.5902 36.8411 44.3716 37.0688 44.2077C38.0368 43.6066 39.5742 42.7869 41.4531 41.9126C42.0225 41.6393 42.535 42.0219 42.535 42.5683ZM42.2503 38.0874C42.2503 38.4153 42.0795 38.6885 41.7948 38.7978C40.0866 39.5628 38.7201 40.2732 37.6952 40.8743C37.2396 41.1475 36.6703 40.765 36.6703 40.2186V38.9618C36.6703 38.6885 36.7841 38.47 37.0119 38.306C37.9799 37.7049 39.4033 36.8853 41.2254 36.0109C41.6809 35.7924 42.1934 36.1749 42.1934 36.7213V38.0874H42.2503ZM42.0795 31.0383V32.459C42.0795 32.7869 41.9087 33.0601 41.6809 33.1694C40.0297 33.9344 38.7201 34.6448 37.6952 35.2459C37.2396 35.5191 36.6703 35.1366 36.6703 34.5902V33.3333C36.6703 33.0601 36.7841 32.8415 37.0119 32.6776C37.9229 32.0765 39.3464 31.2568 41.1115 30.3825C41.567 30.1639 42.0795 30.4918 42.0795 31.0383ZM36.6133 27.7596C36.6133 27.4863 36.7272 27.2678 36.898 27.1038C37.7521 26.5027 39.0617 25.6831 40.7129 24.8087C41.1115 24.5902 41.624 24.9727 41.624 25.5191V26.9399C41.624 27.2678 41.4531 27.541 41.2254 27.6503C39.688 28.4153 38.4354 29.1257 37.5243 29.7268C37.1258 30 36.6133 29.6175 36.6133 29.071V27.7596ZM28.3571 25.4098C28.3571 24.8634 28.8127 24.4809 29.2682 24.6995C30.9194 25.5738 32.1721 26.3934 33.0831 26.9945C33.2539 27.1038 33.4247 27.3771 33.4247 27.6503V28.9618C33.4247 29.5082 32.9123 29.8907 32.5137 29.6175C31.6027 29.0164 30.35 28.306 28.8127 27.541C28.5849 27.4317 28.4141 27.1585 28.4141 26.8306V25.4098H28.3571ZM27.9016 30.9836C27.9016 30.4372 28.4141 30.0546 28.8696 30.2732C30.6347 31.1475 32.0013 31.9672 32.9692 32.5683C33.197 32.6776 33.3108 32.9508 33.3108 33.224V34.5355C33.3108 35.082 32.7415 35.4645 32.2859 35.1913C31.261 34.5902 29.9514 33.8798 28.3002 33.1148C28.0725 33.0055 27.9016 32.7322 27.9016 32.4044V30.9836ZM27.7308 36.5574C27.7308 36.0109 28.2433 35.6284 28.6988 35.847C30.5208 36.7213 31.9443 37.541 32.9123 38.1421C33.14 38.2514 33.2539 38.5246 33.2539 38.7978V40.1093C33.2539 40.6557 32.6845 41.0383 32.229 40.765C31.2041 40.1639 29.8376 39.4536 28.1294 38.6885C27.8447 38.5792 27.6739 38.306 27.6739 37.9781V36.5574H27.7308ZM27.4461 42.5137C27.4461 41.9672 28.0155 41.5847 28.471 41.8033C30.35 42.6776 31.8304 43.4973 32.8553 44.0984C33.0831 44.2077 33.197 44.4809 33.197 44.7541V46.0656C33.197 46.612 32.6276 46.9945 32.1151 46.7213C31.0333 46.1202 29.6098 45.4098 27.8447 44.6448C27.56 44.5355 27.3892 44.2623 27.3892 43.9344V42.5137H27.4461ZM20.5565 28.1421C20.5565 27.6503 20.9551 27.2678 21.4106 27.4317C22.8341 27.8142 24.2006 28.306 25.3963 28.7978C25.681 28.9071 25.8518 29.1803 25.8518 29.5082V31.0383C25.8518 31.5301 25.3963 31.9126 24.9408 31.7486C23.7451 31.3115 22.4355 30.8743 21.0689 30.4918C20.7842 30.3825 20.5565 30.1093 20.5565 29.7814V28.1421ZM20.1579 33.7159C20.1579 33.224 20.6134 32.8415 21.0689 33.0055C22.5494 33.388 23.9159 33.8798 25.1686 34.3716C25.4533 34.4809 25.6241 34.7541 25.6241 35.082V36.612C25.6241 37.1038 25.1686 37.4863 24.713 37.3224C23.4604 36.8853 22.1508 36.4481 20.7273 36.0656C20.3857 35.9563 20.2149 35.6831 20.2149 35.3552V33.7159H20.1579ZM19.5316 39.6721C19.5316 39.1803 19.9871 38.7978 20.4426 38.9618C21.98 39.3443 23.4034 39.8361 24.77 40.3279C25.0547 40.4372 25.2824 40.7104 25.2824 41.0383V42.5683C25.2824 43.0601 24.77 43.4426 24.3145 43.2787C23.0049 42.8415 21.6383 42.4044 20.1579 42.0219C19.8163 41.9126 19.5885 41.6394 19.5885 41.3115V39.6721H19.5316ZM12.4142 32.2404C12.4142 31.8033 12.8128 31.4208 13.2113 31.4754C14.2932 31.6393 15.4889 31.8579 16.8554 32.0765C17.0832 32.1312 17.254 32.1312 17.4818 32.1858C17.8234 32.2404 18.0512 32.5683 18.0512 32.9508V34.5355C18.0512 35.0273 17.6526 35.3552 17.1971 35.3006C16.7985 35.2459 16.4569 35.1366 16.0583 35.082C14.9195 34.918 13.9516 34.7541 12.9836 34.5902C12.642 34.5355 12.3573 34.2077 12.3573 33.8251V32.2404H12.4142ZM11.5032 38.1421C11.5032 37.7049 11.9017 37.3224 12.3573 37.3771C13.496 37.541 14.7487 37.7596 16.1722 37.9781C16.3999 38.0328 16.5708 38.0328 16.7985 38.0874C17.1401 38.1421 17.4248 38.47 17.4248 38.8525V40.4372C17.4248 40.929 17.0263 41.2568 16.5708 41.2022C16.1722 41.1475 15.7736 41.0383 15.375 40.9836C14.1793 40.8197 13.1544 40.6557 12.1864 40.4918C11.8448 40.4372 11.5601 40.1093 11.5601 39.7268V38.1421H11.5032ZM4.67048 36.5027C5.35375 36.5574 6.54947 36.612 8.71315 36.8853C9.05479 36.9399 9.33948 37.2678 9.33948 37.6503V39.235C9.33948 39.6721 8.94091 40.0546 8.4854 40C6.77723 39.7814 5.52456 39.6721 4.61354 39.5628C4.2719 39.5628 3.98721 39.235 3.98721 38.8525C3.98721 38.2514 3.93027 37.7049 3.93027 37.3224C3.87333 36.8853 4.21497 36.5027 4.67048 36.5027Z" fill="#F81B19"/>
<path d="M55.0601 53.7159C46.2346 54.2077 40.5406 55.8471 38.377 56.5028C38.1492 56.5574 35.4161 57.5957 35.1314 57.5957C34.9606 57.5957 31.9998 56.6121 31.772 56.5028C29.6083 55.8471 23.9144 54.1531 15.0889 53.7159C8.25617 53.3334 3.07471 53.4973 0 53.6613V65.7378H70.092V53.6613C67.0743 53.4973 61.8928 53.3334 55.0601 53.7159Z" fill="#F81B19"/>
<path d="M69.3518 71.0382H57.9641C57.5086 71.0382 57.1669 71.3661 57.1669 71.8032V89.1256C57.1669 89.5082 57.5086 89.8907 57.9641 89.8907H69.3518C69.8074 89.8907 70.149 89.5628 70.149 89.1256V86.5573C70.149 86.1748 69.8074 85.7923 69.3518 85.7923H62.1206V82.3497H67.6437C68.0992 82.3497 68.4408 82.0218 68.4408 81.5847V79.1256C68.4408 78.7431 68.0992 78.3606 67.6437 78.3606H62.1206V75.0273H69.3518C69.8074 75.0273 70.149 74.6994 70.149 74.2622V71.6939C70.149 71.4207 69.8074 71.0382 69.3518 71.0382Z" fill="#F81B19"/>
<path d="M31.3166 71.0382H19.9287C19.4732 71.0382 19.1316 71.3661 19.1316 71.8032V89.1256C19.1316 89.5082 19.4732 89.8907 19.9287 89.8907H31.3166C31.7721 89.8907 32.1137 89.5628 32.1137 89.1256V86.5573C32.1137 86.1748 31.7721 85.7923 31.3166 85.7923H24.0853V82.3497H29.6084C30.0639 82.3497 30.4055 82.0218 30.4055 81.5847V79.1256C30.4055 78.7431 30.0639 78.3606 29.6084 78.3606H24.0853V75.0273H31.3166C31.7721 75.0273 32.1137 74.6994 32.1137 74.2622V71.6939C32.1137 71.4207 31.7721 71.0382 31.3166 71.0382Z" fill="#F81B19"/>
<path d="M53.7506 71.0382H50.3911C49.9356 71.0382 49.594 71.3661 49.594 71.8032V89.1256C49.594 89.5082 49.9356 89.8907 50.3911 89.8907H53.7506C54.2061 89.8907 54.5477 89.5628 54.5477 89.1256V71.8032C54.5477 71.4207 54.2061 71.0382 53.7506 71.0382Z" fill="#F81B19"/>
<path d="M46.747 76.7213C46.2915 75.5737 45.6083 74.5901 44.6972 73.7158C43.8431 72.8961 42.7613 72.2404 41.5656 71.7486C40.3699 71.3114 39.0033 71.0382 37.5229 71.0382H34.8468C34.4482 71.0382 34.1066 71.3661 34.1066 71.7486V74.3169C34.1066 74.6994 34.4482 75.0273 34.8468 75.0273H37.5229C38.3201 75.0273 39.0033 75.1366 39.6297 75.4098C40.199 75.6284 40.7115 76.0109 41.167 76.448C41.5656 76.8852 41.9072 77.4316 42.135 78.0874C42.3627 78.7431 42.4766 79.5628 42.4766 80.3825C42.4766 81.2568 42.3627 82.0218 42.135 82.6776C41.9072 83.3333 41.5656 83.8797 41.167 84.3169C40.7684 84.7541 40.256 85.0819 39.6297 85.3552C39.0033 85.5737 38.3201 85.7377 37.5229 85.7377H34.8468C34.4482 85.7377 34.1066 86.0655 34.1066 86.448V89.0164C34.1066 89.3989 34.4482 89.7267 34.8468 89.7267H37.5229C39.0033 89.7267 40.3129 89.5082 41.5656 89.0164C42.7613 88.5792 43.8431 87.9235 44.6972 87.0491C45.5513 86.2295 46.2346 85.1912 46.747 84.0437C47.2025 82.8961 47.4872 81.6393 47.4872 80.2732C47.4872 79.1256 47.2595 77.8142 46.747 76.7213Z" fill="#F81B19"/>
<path d="M6.43413 76.5026C6.88964 76.0655 7.40209 75.683 8.02842 75.4644C8.65475 75.2458 9.33802 75.0819 10.0782 75.0819C10.7046 75.0819 11.2739 75.1365 11.6156 75.2458C12.0142 75.3551 12.3558 75.519 12.6405 75.6283C12.9252 75.7922 13.1529 75.9015 13.3238 76.0655C13.6654 76.2841 14.007 76.448 14.3487 76.448C14.6903 76.448 14.975 76.3387 15.2597 76.1748C15.4305 76.0655 15.6013 75.9015 15.7152 75.7376L16.854 74.2622C17.0817 73.989 17.0248 73.5518 16.797 73.2786C15.9999 72.5136 15.0889 71.9125 13.9501 71.4753C12.8682 71.0382 11.5586 70.8196 10.1352 70.8196C8.65475 70.8196 7.28821 71.0382 6.09249 71.53C4.83983 72.0218 3.75799 72.6775 2.90391 73.4972C1.99288 74.3715 1.30961 75.3551 0.854099 76.5573C0.341648 77.7048 0.113892 79.0163 0.113892 80.3824C0.113892 81.7485 0.341648 83.0054 0.740221 84.2076C1.19573 85.4097 1.82206 86.3933 2.61921 87.2677C3.4733 88.142 4.44126 88.7977 5.63698 89.2895C6.77576 89.7813 8.1423 89.9999 9.56577 89.9999C11.1601 89.9999 12.5835 89.7267 13.7223 89.2349C14.918 88.7431 15.886 87.978 16.7401 87.0491C16.9679 86.7759 16.9678 86.3387 16.6832 86.0655L15.3736 84.6994C15.0889 84.4261 14.7472 84.2622 14.3487 84.2622C14.1209 84.2622 13.8931 84.3168 13.7223 84.4261C13.5515 84.4808 13.4376 84.5901 13.2668 84.6994C13.0391 84.9179 12.8113 85.0819 12.5266 85.2458C12.2988 85.3551 12.0711 85.519 11.7864 85.5737C11.5017 85.683 11.217 85.7376 10.9323 85.7922C10.5907 85.8469 10.1921 85.8469 9.79353 85.8469C9.11026 85.8469 8.54087 85.7376 7.97148 85.519C7.40209 85.3004 6.88964 84.9726 6.49107 84.5354C6.09249 84.0983 5.75086 83.5518 5.46616 82.8414C5.23841 82.1857 5.06759 81.366 5.06759 80.4917C5.06759 79.6174 5.18147 78.8524 5.46616 78.1966C5.63698 77.5409 5.97861 76.9398 6.43413 76.5026Z" fill="#F81B19"/>
</svg>
