<svg width="234" height="89" viewBox="0 0 234 89" fill="none" xmlns="http://www.w3.org/2000/svg">
<path d="M12.8484 46.1201C24.6159 48.0103 32.8747 53.5188 33.2526 53.7888C33.6304 53.5188 41.8893 48.0103 53.6567 46.1201C61.6997 44.824 65.1003 44.554 66.5038 44.5V0H0.0553589V44.5C1.40484 44.554 4.85951 44.824 12.8484 46.1201ZM57.4893 37.2093C57.4893 36.8313 57.7592 36.5073 58.083 36.4533C60.1882 36.1833 61.3758 36.0752 62.0775 36.0752C62.5093 36.0752 62.8332 36.3993 62.7792 36.8313C62.7792 37.2093 62.7253 37.7494 62.7253 38.3434C62.7253 38.7215 62.4554 39.0455 62.0775 39.0455C61.2138 39.0995 59.9723 39.2615 58.245 39.4775C57.8131 39.5316 57.4353 39.2075 57.4353 38.7215V37.2093H57.4893ZM55.4381 37.7494V39.3155C55.4381 39.6936 55.1682 40.0176 54.8443 40.0716C53.9806 40.1796 53.009 40.3416 51.9834 40.5036C51.6055 40.5576 51.2277 40.6117 50.8498 40.7197C50.418 40.7737 50.0401 40.4496 50.0401 39.9636V38.3974C50.0401 38.0194 50.2561 37.7494 50.6339 37.6414C50.8498 37.5874 51.0118 37.5874 51.2277 37.5334C52.5232 37.3174 53.6567 37.1013 54.6824 36.9933C55.0602 36.9393 55.4381 37.2634 55.4381 37.7494ZM49.3924 32.5109C49.3924 32.1329 49.6083 31.8629 49.9322 31.7549C50.1481 31.7008 50.31 31.7008 50.526 31.6468C51.7675 31.4308 52.8471 31.2148 53.8187 31.1068C54.1965 31.0528 54.5744 31.3768 54.5744 31.8629V33.429C54.5744 33.807 54.3045 34.1311 53.9806 34.1851C53.117 34.2931 52.2533 34.4551 51.2277 34.6171C50.8498 34.6711 50.472 34.7251 50.1481 34.8331C49.7163 34.8871 49.3384 34.5631 49.3384 34.0771V32.5109H49.3924ZM47.9889 39.2075V40.7737C47.9889 41.0977 47.773 41.4217 47.4491 41.4757C45.9917 41.8538 44.5882 42.3398 43.3467 42.7718C42.9149 42.9339 42.4291 42.5558 42.4291 42.0698V40.5576C42.4291 40.2336 42.591 39.9636 42.8609 39.8556C44.1564 39.3695 45.5599 38.8835 47.1253 38.4515C47.5571 38.3434 47.9889 38.7215 47.9889 39.2075ZM47.3952 33.321V34.8871C47.3952 35.2112 47.1792 35.5352 46.9093 35.5892C45.5059 35.9672 44.1564 36.4533 42.9689 36.8853C42.537 37.0473 42.1052 36.6693 42.1052 36.1833V34.6711C42.1052 34.3471 42.2671 34.0771 42.537 33.9691C43.7785 33.483 45.128 32.997 46.5855 32.5649C46.9633 32.5109 47.3952 32.835 47.3952 33.321ZM41.8353 29.2166C41.8353 28.8926 41.9972 28.6226 42.2671 28.5146C43.4547 28.0285 44.8041 27.5425 46.2076 27.1104C46.6394 27.0024 47.0173 27.3265 47.0173 27.8125V29.3786C47.0173 29.7027 46.8014 30.0267 46.5315 30.0807C45.182 30.4587 43.8865 30.9448 42.699 31.3768C42.2671 31.5388 41.8353 31.1608 41.8353 30.6748V29.2166ZM40.3239 42.0698V43.4739C40.3239 43.7979 40.1619 44.068 39.892 44.176C38.2187 44.932 36.8692 45.6341 35.8436 46.2282C35.3578 46.4982 34.818 46.1201 34.818 45.5801V44.338C34.818 44.068 34.9259 43.8519 35.1419 43.6899C36.0595 43.0959 37.517 42.2858 39.2983 41.4217C39.8381 41.1517 40.3239 41.5297 40.3239 42.0698ZM40.054 37.6414C40.054 37.9654 39.892 38.2354 39.6221 38.3434C38.0028 39.0995 36.7073 39.8016 35.7356 40.3956C35.3038 40.6657 34.764 40.2876 34.764 39.7476V38.5055C34.764 38.2354 34.872 38.0194 35.0879 37.8574C36.0055 37.2633 37.355 36.4533 39.0824 35.5892C39.5142 35.3732 40 35.7512 40 36.2913V37.6414H40.054ZM39.892 30.6748V32.0789C39.892 32.4029 39.7301 32.6729 39.5142 32.7809C37.9488 33.537 36.7073 34.2391 35.7356 34.8331C35.3038 35.1032 34.764 34.7251 34.764 34.1851V32.943C34.764 32.6729 34.872 32.4569 35.0879 32.2949C35.9516 31.7008 37.301 30.8908 38.9744 30.0267C39.4062 29.8107 39.892 30.1347 39.892 30.6748ZM34.71 27.4345C34.71 27.1644 34.818 26.9484 34.9799 26.7864C35.7896 26.1924 37.0311 25.3823 38.5965 24.5182C38.9744 24.3022 39.4602 24.6802 39.4602 25.2203V26.6244C39.4602 26.9484 39.2983 27.2184 39.0824 27.3265C37.6249 28.0825 36.4374 28.7846 35.5737 29.3786C35.1958 29.6487 34.71 29.2706 34.71 28.7306V27.4345ZM26.883 25.1123C26.883 24.5722 27.3149 24.1942 27.7467 24.4102C29.3121 25.2743 30.4997 26.0843 31.3633 26.6784C31.5253 26.7864 31.6872 27.0564 31.6872 27.3265V28.6226C31.6872 29.1626 31.2014 29.5407 30.8235 29.2706C29.9599 28.6766 28.7723 27.9745 27.3149 27.2184C27.099 27.1104 26.937 26.8404 26.937 26.5164V25.1123H26.883ZM26.4512 30.6208C26.4512 30.0807 26.937 29.7027 27.3689 29.9187C29.0422 30.7828 30.3377 31.5928 31.2554 32.1869C31.4713 32.2949 31.5792 32.5649 31.5792 32.8349V34.1311C31.5792 34.6711 31.0394 35.0492 30.6076 34.7791C29.636 34.1851 28.3945 33.483 26.8291 32.7269C26.6131 32.6189 26.4512 32.3489 26.4512 32.0249V30.6208ZM26.2893 36.1292C26.2893 35.5892 26.7751 35.2112 27.2069 35.4272C28.9343 36.2913 30.2837 37.1013 31.2014 37.6954C31.4173 37.8034 31.5253 38.0734 31.5253 38.3434V39.6396C31.5253 40.1796 30.9855 40.5576 30.5536 40.2876C29.582 39.6936 28.2865 38.9915 26.6671 38.2354C26.3972 38.1274 26.2353 37.8574 26.2353 37.5334V36.1292H26.2893ZM26.0194 42.0158C26.0194 41.4757 26.5592 41.0977 26.991 41.3137C28.7723 42.1778 30.1758 42.9879 31.1474 43.5819C31.3633 43.6899 31.4713 43.96 31.4713 44.23V45.5261C31.4713 46.0661 30.9315 46.4442 30.4457 46.1741C29.4201 45.5801 28.0706 44.878 26.3972 44.122C26.1273 44.014 25.9654 43.7439 25.9654 43.4199V42.0158H26.0194ZM19.4879 27.8125C19.4879 27.3265 19.8657 26.9484 20.2976 27.1104C21.6471 27.4885 22.9426 27.9745 24.0761 28.4606C24.346 28.5686 24.508 28.8386 24.508 29.1626V30.6748C24.508 31.1608 24.0761 31.5388 23.6443 31.3768C22.5107 30.9448 21.2692 30.5127 19.9737 30.1347C19.7038 30.0267 19.4879 29.7567 19.4879 29.4326V27.8125ZM19.11 33.321C19.11 32.835 19.5419 32.4569 19.9737 32.6189C21.3772 32.997 22.6727 33.483 23.8602 33.9691C24.1301 34.0771 24.292 34.3471 24.292 34.6711V36.1833C24.292 36.6693 23.8602 37.0473 23.4284 36.8853C22.2408 36.4533 20.9993 36.0212 19.6498 35.6432C19.326 35.5352 19.164 35.2652 19.164 34.9411V33.321H19.11ZM18.5163 39.2075C18.5163 38.7215 18.9481 38.3434 19.3799 38.5055C20.8374 38.8835 22.1868 39.3695 23.4824 39.8556C23.7522 39.9636 23.9682 40.2336 23.9682 40.5576V42.0698C23.9682 42.5558 23.4824 42.9339 23.0505 42.7718C21.809 42.3398 20.5135 41.9078 19.11 41.5297C18.7862 41.4217 18.5702 41.1517 18.5702 40.8277V39.2075H18.5163ZM11.7689 31.8629C11.7689 31.4308 12.1467 31.0528 12.5246 31.1068C13.5502 31.2688 14.6837 31.4848 15.9792 31.7008C16.1952 31.7549 16.3571 31.7549 16.573 31.8089C16.8969 31.8629 17.1128 32.1869 17.1128 32.5649V34.1311C17.1128 34.6171 16.7349 34.9411 16.3031 34.8871C15.9253 34.8331 15.6014 34.7251 15.2235 34.6711C14.1439 34.5091 13.2263 34.3471 12.3086 34.1851C11.9848 34.1311 11.7149 33.807 11.7149 33.429V31.8629H11.7689ZM10.9052 37.6954C10.9052 37.2634 11.283 36.8853 11.7149 36.9393C12.7945 37.1013 13.982 37.3174 15.3315 37.5334C15.5474 37.5874 15.7093 37.5874 15.9253 37.6414C16.2491 37.6954 16.519 38.0194 16.519 38.3974V39.9636C16.519 40.4496 16.1412 40.7737 15.7093 40.7197C15.3315 40.6657 14.9536 40.5576 14.5758 40.5036C13.4422 40.3416 12.4706 40.1796 11.5529 40.0176C11.2291 39.9636 10.9592 39.6396 10.9592 39.2615V37.6954H10.9052ZM4.42768 36.0752C5.07543 36.1292 6.20899 36.1833 8.2602 36.4533C8.58408 36.5073 8.85398 36.8313 8.85398 37.2093V38.7755C8.85398 39.2075 8.47612 39.5856 8.04429 39.5316C6.42491 39.3155 5.23737 39.2075 4.3737 39.0995C4.04982 39.0995 3.77993 38.7755 3.77993 38.3974C3.77993 37.8034 3.72595 37.2634 3.72595 36.8853C3.67197 36.4533 3.99584 36.0752 4.42768 36.0752Z" fill="#F81B19"/>
<path d="M52.1979 53.0868C43.8311 53.5729 38.4332 55.193 36.382 55.8411C36.1661 55.8951 33.5751 56.9212 33.3052 56.9212C33.1433 56.9212 30.3363 55.9491 30.1204 55.8411C28.0692 55.193 22.6713 53.5189 14.3045 53.0868C7.82699 52.7088 2.91488 52.8708 0 53.0328V64.9679H66.4484V53.0328C63.5875 52.8708 58.6754 52.7088 52.1979 53.0868Z" fill="#F81B19"/>
<path d="M65.7467 70.2063H54.9509C54.519 70.2063 54.1952 70.5303 54.1952 70.9624V88.0819C54.1952 88.4599 54.519 88.838 54.9509 88.838H65.7467C66.1785 88.838 66.5024 88.5139 66.5024 88.0819V85.5437C66.5024 85.1656 66.1785 84.7876 65.7467 84.7876H58.8914V81.3853H64.1273C64.5592 81.3853 64.883 81.0613 64.883 80.6292V78.199C64.883 77.821 64.5592 77.4429 64.1273 77.4429H58.8914V74.1487H65.7467C66.1785 74.1487 66.5024 73.8246 66.5024 73.3926V70.8544C66.5024 70.5843 66.1785 70.2063 65.7467 70.2063Z" fill="#F81B19"/>
<path d="M29.6886 70.2063H18.8927C18.4609 70.2063 18.137 70.5303 18.137 70.9624V88.0819C18.137 88.4599 18.4609 88.838 18.8927 88.838H29.6886C30.1204 88.838 30.4443 88.5139 30.4443 88.0819V85.5437C30.4443 85.1656 30.1204 84.7876 29.6886 84.7876H22.8332V81.3853H28.0692C28.501 81.3853 28.8249 81.0613 28.8249 80.6292V78.199C28.8249 77.821 28.501 77.4429 28.0692 77.4429H22.8332V74.1487H29.6886C30.1204 74.1487 30.4443 73.8246 30.4443 73.3926V70.8544C30.4443 70.5843 30.1204 70.2063 29.6886 70.2063Z" fill="#F81B19"/>
<path d="M50.9564 70.2063H47.7716C47.3398 70.2063 47.0159 70.5303 47.0159 70.9624V88.0819C47.0159 88.4599 47.3398 88.838 47.7716 88.838H50.9564C51.3883 88.838 51.7121 88.5139 51.7121 88.0819V70.9624C51.7121 70.5843 51.3883 70.2063 50.9564 70.2063Z" fill="#F81B19"/>
<path d="M44.317 75.8228C43.8851 74.6887 43.2374 73.7166 42.3737 72.8525C41.564 72.0425 40.5384 71.3944 39.4049 70.9084C38.2713 70.4763 36.9758 70.2063 35.5723 70.2063H33.0353C32.6575 70.2063 32.3336 70.5303 32.3336 70.9084V73.4466C32.3336 73.8246 32.6575 74.1487 33.0353 74.1487H35.5723C36.3281 74.1487 36.9758 74.2567 37.5696 74.5267C38.1094 74.7427 38.5952 75.1207 39.027 75.5528C39.4049 75.9848 39.7287 76.5249 39.9447 77.1729C40.1606 77.821 40.2685 78.6311 40.2685 79.4411C40.2685 80.3052 40.1606 81.0613 39.9447 81.7093C39.7287 82.3574 39.4049 82.8974 39.027 83.3295C38.6492 83.7615 38.1633 84.0855 37.5696 84.3556C36.9758 84.5716 36.3281 84.7336 35.5723 84.7336H33.0353C32.6575 84.7336 32.3336 85.0576 32.3336 85.4357V87.9739C32.3336 88.3519 32.6575 88.676 33.0353 88.676H35.5723C36.9758 88.676 38.2173 88.4599 39.4049 87.9739C40.5384 87.5419 41.564 86.8938 42.3737 86.0297C43.1834 85.2197 43.8312 84.1936 44.317 83.0595C44.7488 81.9254 45.0187 80.6832 45.0187 79.3331C45.0187 78.199 44.8028 76.9029 44.317 75.8228Z" fill="#F81B19"/>
<path d="M6.09967 75.6067C6.5315 75.1747 7.01731 74.7967 7.61109 74.5806C8.20486 74.3646 8.85261 74.2026 9.55434 74.2026C10.1481 74.2026 10.6879 74.2566 11.0118 74.3646C11.3896 74.4726 11.7135 74.6346 11.9834 74.7427C12.2533 74.9047 12.4692 75.0127 12.6312 75.1747C12.955 75.3907 13.2789 75.5527 13.6028 75.5527C13.9267 75.5527 14.1966 75.4447 14.4664 75.2827C14.6284 75.1747 14.7903 75.0127 14.8983 74.8507L15.9779 73.3925C16.1938 73.1225 16.1398 72.6905 15.9239 72.4205C15.1682 71.6644 14.3045 71.0703 13.2249 70.6383C12.1993 70.2063 10.9578 69.9902 9.60832 69.9902C8.20486 69.9902 6.90935 70.2062 5.77579 70.6923C4.58825 71.1783 3.56264 71.8264 2.75295 72.6365C1.88929 73.5005 1.24154 74.4726 0.809701 75.6607C0.323888 76.7948 0.107971 78.091 0.107971 79.4411C0.107971 80.7912 0.323888 82.0333 0.701743 83.2214C1.13358 84.4095 1.72735 85.3816 2.48306 86.2457C3.29275 87.1098 4.21039 87.7578 5.34396 88.2439C6.42354 88.7299 7.71904 88.9459 9.06852 88.9459C10.5799 88.9459 11.9294 88.6759 13.009 88.1899C14.1426 87.7038 15.0602 86.9477 15.8699 86.0297C16.0858 85.7596 16.0858 85.3276 15.8159 85.0576L14.5744 83.7075C14.3045 83.4374 13.9806 83.2754 13.6028 83.2754C13.3869 83.2754 13.1709 83.3294 13.009 83.4374C12.8471 83.4914 12.7391 83.5994 12.5772 83.7075C12.3613 83.9235 12.1453 84.0855 11.8754 84.2475C11.6595 84.3555 11.4436 84.5175 11.1737 84.5715C10.9038 84.6795 10.6339 84.7335 10.364 84.7876C10.0402 84.8416 9.6623 84.8416 9.28444 84.8416C8.63669 84.8416 8.0969 84.7335 7.55711 84.5175C7.01731 84.3015 6.5315 83.9775 6.15365 83.5454C5.77579 83.1134 5.45192 82.5734 5.18202 81.8713C4.9661 81.2232 4.80416 80.4132 4.80416 79.5491C4.80416 78.685 4.91212 77.9289 5.18202 77.2809C5.34396 76.6328 5.66783 76.0388 6.09967 75.6067Z" fill="#F81B19"/>
<path d="M84.1536 60.3234C84.2076 60.3234 84.2616 60.3234 84.3156 60.3774L84.7474 60.8634C84.4235 61.2955 83.9917 61.6195 83.5059 61.8355C83.0201 62.0515 82.4263 62.1595 81.7786 62.1595C81.1848 62.1595 80.645 62.0515 80.1592 61.8355C79.6734 61.6195 79.2415 61.2955 78.9177 60.9174C78.5938 60.5394 78.3239 60.0533 78.108 59.5133C77.946 58.9732 77.8381 58.3792 77.8381 57.7311C77.8381 57.0831 77.946 56.489 78.162 55.949C78.3779 55.4089 78.6478 54.9229 79.0256 54.5448C79.4035 54.1668 79.8353 53.8428 80.3211 53.6268C80.8069 53.4107 81.4007 53.3027 81.9945 53.3027C82.5882 53.3027 83.128 53.4107 83.5599 53.5728C83.9917 53.7888 84.3696 54.0588 84.7474 54.3828L84.3696 54.9229C84.3696 54.9769 84.3156 54.9769 84.2616 55.0309C84.2076 55.0309 84.1537 55.0849 84.0997 55.0849C84.0457 55.0849 83.9917 55.0849 83.9377 55.0309C83.8838 54.9769 83.8298 54.9229 83.7218 54.8689C83.6678 54.8149 83.5599 54.7609 83.4519 54.7069C83.344 54.6529 83.236 54.5989 83.0741 54.5448C82.9121 54.4908 82.7502 54.4368 82.5883 54.3828C82.4263 54.3288 82.2104 54.3288 81.9405 54.3288C81.5087 54.3288 81.0768 54.3828 80.753 54.5448C80.3751 54.7069 80.0512 54.9229 79.8353 55.2469C79.5654 55.5169 79.3495 55.895 79.2415 56.327C79.0796 56.7591 79.0256 57.2451 79.0256 57.7311C79.0256 58.2712 79.0796 58.7572 79.2415 59.1893C79.4035 59.6213 79.5654 59.9453 79.8353 60.2694C80.1052 60.5394 80.3751 60.8094 80.753 60.9174C81.0768 61.0794 81.4547 61.1334 81.8865 61.1334C82.1564 61.1334 82.3723 61.1334 82.5343 61.0794C82.7502 61.0254 82.9121 61.0254 83.0741 60.9174C83.236 60.8634 83.3979 60.7554 83.5599 60.6474C83.7218 60.5394 83.8298 60.4314 83.9917 60.2694C83.9917 60.3774 84.0997 60.3234 84.1536 60.3234Z" fill="#666666"/>
<path d="M91.2249 53.5188V54.4909H87.2844V57.3531H90.4692V58.2712H87.2844V61.2415H91.2249V62.2136H86.1509V53.5728H91.2249V53.5188Z" fill="#666666"/>
<path d="M93.654 53.5187C93.708 53.5187 93.7619 53.5727 93.8159 53.6807L98.5661 60.1613C98.5661 60.0533 98.5661 59.9453 98.5661 59.8373C98.5661 59.7293 98.5661 59.6213 98.5661 59.5673V53.5187H99.5377V62.1595H98.9979C98.89 62.1595 98.836 62.1595 98.782 62.1055C98.728 62.0515 98.6741 61.9975 98.6201 61.9435L93.8699 55.4629C93.8699 55.5709 93.8699 55.6789 93.8699 55.7329C93.8699 55.8409 93.8699 55.8949 93.8699 56.0029V62.1055H92.8443V53.4647H93.4381C93.4921 53.5187 93.6 53.5187 93.654 53.5187Z" fill="#666666"/>
<path d="M107.095 53.5187V54.4908H104.45V62.1055H103.316V54.4368H100.671V53.4647H107.095V53.5187Z" fill="#666666"/>
<path d="M109.47 58.5413V62.1596H108.39V53.5188H110.711C111.251 53.5188 111.683 53.5728 112.061 53.6808C112.439 53.7888 112.763 53.9508 112.979 54.1669C113.248 54.3829 113.41 54.6529 113.518 54.9229C113.626 55.1929 113.68 55.571 113.68 55.895C113.68 56.219 113.626 56.4891 113.518 56.7591C113.41 57.0291 113.302 57.2451 113.14 57.4612C112.979 57.6772 112.763 57.8392 112.493 58.0012C112.223 58.1632 111.953 58.2712 111.629 58.3252C111.791 58.4332 111.899 58.5412 112.007 58.7033L114.382 62.1056H113.41C113.194 62.1056 113.033 61.9976 112.979 61.8355L110.873 58.7573C110.819 58.6493 110.711 58.5953 110.657 58.5413C110.603 58.4872 110.442 58.4872 110.334 58.4872H109.47V58.5413ZM109.47 57.6772H110.657C110.981 57.6772 111.251 57.6232 111.521 57.5692C111.791 57.4612 111.953 57.3531 112.115 57.2451C112.277 57.0831 112.385 56.9211 112.493 56.7051C112.601 56.4891 112.601 56.273 112.601 56.003C112.601 55.463 112.439 55.0849 112.115 54.8149C111.791 54.5449 111.305 54.4369 110.657 54.4369H109.47V57.6772Z" fill="#666666"/>
<path d="M122.965 57.8392C122.965 58.4872 122.857 59.0813 122.695 59.6213C122.479 60.1614 122.209 60.6474 121.885 61.0254C121.507 61.4035 121.129 61.7275 120.59 61.9435C120.104 62.1595 119.564 62.2676 118.916 62.2676C118.269 62.2676 117.783 62.1595 117.243 61.9435C116.757 61.7275 116.325 61.4035 115.947 61.0254C115.57 60.6474 115.3 60.1614 115.138 59.6213C114.922 59.0813 114.868 58.4872 114.868 57.8392C114.868 57.1911 114.976 56.5971 115.138 56.057C115.354 55.517 115.624 55.0309 115.947 54.6529C116.325 54.2748 116.703 53.9508 117.243 53.7348C117.729 53.5188 118.269 53.4108 118.916 53.4108C119.564 53.4108 120.05 53.5188 120.59 53.7348C121.075 53.9508 121.507 54.2748 121.885 54.6529C122.263 55.0309 122.533 55.517 122.695 56.057C122.911 56.5971 122.965 57.1911 122.965 57.8392ZM121.831 57.8392C121.831 57.2991 121.777 56.8131 121.615 56.435C121.453 56.003 121.291 55.679 121.021 55.3549C120.752 55.0849 120.482 54.8149 120.104 54.7069C119.726 54.5449 119.348 54.4909 118.916 54.4909C118.484 54.4909 118.053 54.5449 117.729 54.7069C117.351 54.8689 117.081 55.0849 116.811 55.3549C116.541 55.625 116.379 56.003 116.217 56.435C116.055 56.8671 116.001 57.3531 116.001 57.8392C116.001 58.3792 116.055 58.8653 116.217 59.2433C116.379 59.6753 116.541 59.9994 116.811 60.3234C117.081 60.5934 117.351 60.8634 117.729 60.9714C118.107 61.1335 118.484 61.1875 118.916 61.1875C119.348 61.1875 119.78 61.1335 120.104 60.9714C120.482 60.8094 120.752 60.5934 121.021 60.3234C121.291 60.0534 121.453 59.6753 121.615 59.2433C121.777 58.8112 121.831 58.3252 121.831 57.8392Z" fill="#666666"/>
<path d="M133.815 57.8392C133.815 58.4872 133.707 59.0813 133.545 59.6213C133.329 60.1614 133.059 60.5934 132.735 60.9715C132.357 61.3495 131.979 61.6195 131.439 61.8355C130.954 62.0516 130.414 62.1596 129.766 62.1596H126.689V53.5188H129.766C130.36 53.5188 130.9 53.6268 131.439 53.8428C131.925 54.0588 132.357 54.3289 132.735 54.7069C133.113 55.0849 133.383 55.517 133.545 56.057C133.707 56.5971 133.815 57.1911 133.815 57.8392ZM132.681 57.8392C132.681 57.2991 132.627 56.8131 132.465 56.4351C132.303 56.003 132.141 55.679 131.871 55.355C131.601 55.0849 131.331 54.8689 130.954 54.7069C130.576 54.5449 130.198 54.4909 129.766 54.4909H127.823V61.2415H129.766C130.198 61.2415 130.63 61.1875 130.954 61.0255C131.331 60.8635 131.601 60.6474 131.871 60.3774C132.141 60.1074 132.303 59.7294 132.465 59.2973C132.627 58.8113 132.681 58.3252 132.681 57.8392Z" fill="#666666"/>
<path d="M140.4 53.5188V54.4909H136.46V57.3531H139.644V58.2712H136.46V61.2415H140.4V62.2136H135.326V53.5728H140.4V53.5188Z" fill="#666666"/>
<path d="M85.4492 70.9083C85.4492 71.5563 85.3412 72.1504 85.1793 72.6904C84.9634 73.2305 84.6935 73.6625 84.3696 74.0406C83.9917 74.4186 83.6139 74.6886 83.0741 74.9046C82.5883 75.1207 82.0485 75.2287 81.4007 75.2287H78.3239V66.5879H81.4007C81.9945 66.5879 82.5343 66.6959 83.0741 66.9119C83.5599 67.1279 83.9917 67.398 84.3696 67.776C84.7474 68.154 85.0173 68.5861 85.1793 69.1261C85.3412 69.7202 85.4492 70.2602 85.4492 70.9083ZM84.3156 70.9083C84.3156 70.3682 84.2616 69.8822 84.0997 69.5041C83.9378 69.0721 83.7758 68.7481 83.5059 68.4241C83.236 68.154 82.9661 67.938 82.5883 67.776C82.2104 67.614 81.8326 67.56 81.4007 67.56H79.4575V74.3106H81.4007C81.8326 74.3106 82.2644 74.2566 82.5883 74.0946C82.9661 73.9325 83.236 73.7165 83.5059 73.4465C83.7758 73.1765 83.9378 72.7984 84.0997 72.3664C84.2616 71.9344 84.3156 71.4483 84.3156 70.9083Z" fill="#666666"/>
<path d="M94.5716 70.9084C94.5716 71.5564 94.4637 72.1505 94.3017 72.6905C94.0858 73.2306 93.8159 73.7166 93.492 74.0947C93.1142 74.4727 92.7363 74.7967 92.1965 75.0127C91.7107 75.2288 91.1709 75.3368 90.5232 75.3368C89.9294 75.3368 89.3896 75.2288 88.8498 75.0127C88.364 74.7967 87.9322 74.4727 87.5543 74.0947C87.1765 73.7166 86.9066 73.2306 86.7446 72.6905C86.5287 72.1505 86.4747 71.5564 86.4747 70.9084C86.4747 70.2603 86.5827 69.6663 86.7446 69.1262C86.9605 68.5862 87.2304 68.1001 87.5543 67.7221C87.9322 67.3441 88.31 67.02 88.8498 66.804C89.3356 66.588 89.8754 66.48 90.5232 66.48C91.117 66.48 91.6567 66.588 92.1965 66.804C92.6824 67.02 93.1142 67.3441 93.492 67.7221C93.8699 68.1001 94.1398 68.5862 94.3017 69.1262C94.5176 69.6663 94.5716 70.2603 94.5716 70.9084ZM93.4381 70.9084C93.4381 70.3683 93.3841 69.8823 93.2221 69.5043C93.0602 69.0722 92.8983 68.7482 92.6284 68.4242C92.3585 68.1541 92.0886 67.8841 91.7107 67.7761C91.3329 67.6141 90.955 67.5601 90.5232 67.5601C90.0913 67.5601 89.6595 67.6141 89.3356 67.7761C88.9578 67.9381 88.6879 68.1541 88.418 68.4242C88.1481 68.6942 87.9862 69.0722 87.8242 69.5043C87.6623 69.9363 87.6083 70.4223 87.6083 70.9084C87.6083 71.4484 87.6623 71.9345 87.8242 72.3125C87.9862 72.7445 88.1481 73.0686 88.418 73.3926C88.6879 73.6626 88.9578 73.9327 89.3356 74.0407C89.7135 74.2027 90.0913 74.2567 90.5232 74.2567C90.955 74.2567 91.3868 74.2027 91.7107 74.0407C92.0886 73.8786 92.3585 73.6626 92.6284 73.3926C92.8983 73.1226 93.0602 72.7445 93.2221 72.3125C93.3841 71.9345 93.4381 71.4484 93.4381 70.9084Z" fill="#666666"/>
<path d="M101.913 73.4465C101.967 73.4465 102.021 73.4465 102.075 73.5005L102.507 73.9866C102.183 74.4186 101.751 74.7427 101.265 74.9587C100.779 75.1747 100.185 75.2827 99.5377 75.2827C98.9439 75.2827 98.4041 75.1747 97.9183 74.9587C97.4325 74.7427 97.0007 74.4186 96.6768 74.0406C96.3529 73.6626 96.083 73.1765 95.8671 72.6365C95.7052 72.0964 95.5972 71.5024 95.5972 70.8543C95.5972 70.2062 95.7052 69.6122 95.9211 69.0721C96.137 68.5321 96.4069 68.0461 96.7848 67.668C97.1626 67.29 97.5945 66.966 98.0803 66.7499C98.5661 66.5339 99.1599 66.4259 99.7536 66.4259C100.347 66.4259 100.887 66.5339 101.319 66.6959C101.751 66.9119 102.129 67.182 102.507 67.506L102.129 68.046C102.129 68.1001 102.075 68.1001 102.021 68.1541C101.967 68.1541 101.913 68.2081 101.859 68.2081C101.805 68.2081 101.751 68.2081 101.697 68.1541C101.643 68.1001 101.589 68.0461 101.481 67.992C101.427 67.938 101.319 67.884 101.211 67.83C101.103 67.776 100.995 67.722 100.833 67.668C100.671 67.614 100.509 67.56 100.347 67.506C100.185 67.452 99.9695 67.452 99.6997 67.452C99.2678 67.452 98.836 67.506 98.5121 67.668C98.1343 67.83 97.8104 68.046 97.5945 68.3701C97.3246 68.6401 97.1086 69.0181 97.0007 69.4502C96.8387 69.8822 96.7848 70.3683 96.7848 70.8543C96.7848 71.3944 96.8387 71.8804 97.0007 72.3124C97.1626 72.7445 97.3246 73.0685 97.5945 73.3925C97.8644 73.6626 98.1343 73.9326 98.5121 74.0406C98.836 74.2026 99.2138 74.2566 99.6457 74.2566C99.9156 74.2566 100.131 74.2566 100.293 74.2026C100.509 74.1486 100.671 74.1486 100.833 74.0406C100.995 73.9866 101.157 73.8786 101.319 73.7706C101.481 73.6626 101.589 73.5545 101.751 73.3925C101.751 73.5005 101.805 73.4465 101.913 73.4465Z" fill="#666666"/>
<path d="M107.149 74.3106C107.473 74.3106 107.797 74.2566 108.066 74.1486C108.336 74.0406 108.552 73.8786 108.768 73.6625C108.93 73.4465 109.092 73.1765 109.2 72.9065C109.308 72.5824 109.362 72.2584 109.362 71.9344V66.6959H110.442V71.9344C110.442 72.4204 110.388 72.9065 110.226 73.3385C110.064 73.7706 109.848 74.1486 109.578 74.4186C109.308 74.7426 108.93 74.9587 108.552 75.1747C108.174 75.3367 107.689 75.4447 107.203 75.4447C106.717 75.4447 106.231 75.3367 105.853 75.1747C105.475 75.0127 105.098 74.7426 104.828 74.4186C104.558 74.0946 104.342 73.7166 104.18 73.3385C104.018 72.9065 103.964 72.4744 103.964 71.9344V66.6959H105.044V71.9344C105.044 72.3124 105.098 72.6365 105.206 72.9065C105.314 73.2305 105.421 73.4465 105.637 73.6625C105.799 73.8786 106.069 74.0406 106.339 74.1486C106.501 74.2566 106.825 74.3106 107.149 74.3106Z" fill="#666666"/>
<path d="M116.487 72.4204C116.541 72.5284 116.541 72.6364 116.595 72.7444C116.649 72.6364 116.649 72.5284 116.703 72.4204C116.757 72.3124 116.811 72.2044 116.865 72.0964L119.618 66.8039C119.672 66.6959 119.726 66.6419 119.78 66.6419C119.834 66.6419 119.888 66.5879 119.996 66.5879H120.806V75.2287H119.834V68.9101C119.834 68.8021 119.834 68.7481 119.834 68.6401C119.834 68.5321 119.834 68.4241 119.834 68.37L117.027 73.7705C116.919 73.9326 116.811 74.0406 116.649 74.0406H116.487C116.325 74.0406 116.163 73.9326 116.109 73.7705L113.248 68.37C113.248 68.4781 113.248 68.5861 113.248 68.6941C113.248 68.8021 113.248 68.9101 113.248 68.9641V75.2827H112.277V66.6419H113.087C113.194 66.6419 113.248 66.6419 113.302 66.6959C113.356 66.6959 113.41 66.7499 113.464 66.8579L116.271 72.1504C116.379 72.2044 116.433 72.3124 116.487 72.4204Z" fill="#666666"/>
<path d="M127.877 66.5879V67.56H123.936V70.4222H127.121V71.3403H123.936V74.3106H127.877V75.2827H122.803V66.6419H127.877V66.5879Z" fill="#666666"/>
<path d="M130.306 66.6419C130.36 66.6419 130.414 66.6959 130.468 66.8039L135.218 73.2845C135.218 73.1765 135.218 73.0685 135.218 72.9605C135.218 72.8525 135.218 72.7444 135.218 72.6904V66.5879H136.19V75.2287H135.65C135.542 75.2287 135.488 75.2287 135.434 75.1747C135.38 75.1207 135.326 75.0666 135.272 75.0126L130.522 68.5321C130.522 68.6401 130.522 68.7481 130.522 68.8021C130.522 68.9101 130.522 68.9641 130.522 69.0721V75.2287H129.55V66.5879H130.144C130.144 66.5879 130.252 66.6419 130.306 66.6419Z" fill="#666666"/>
<path d="M143.747 66.5879V67.56H141.102V75.2287H139.968V67.56H137.323V66.5879H143.747Z" fill="#666666"/>
<path d="M150.872 75.2287H150.062C149.954 75.2287 149.9 75.2287 149.846 75.1747C149.792 75.1207 149.738 75.0667 149.684 74.9587L148.929 72.8525H145.204L144.448 74.9587C144.448 75.0127 144.394 75.1207 144.287 75.1747C144.233 75.2287 144.125 75.2827 144.071 75.2827H143.207L146.5 66.642H147.633L150.872 75.2287ZM145.528 72.0424H148.605L147.309 68.5321C147.201 68.3161 147.147 68.0461 147.039 67.7221C146.985 67.8841 146.932 68.0461 146.932 68.1541C146.878 68.3161 146.878 68.4241 146.824 68.5321L145.528 72.0424Z" fill="#666666"/>
<path d="M157.457 73.4465C157.511 73.4465 157.565 73.4465 157.619 73.5005L158.051 73.9866C157.727 74.4186 157.296 74.7427 156.81 74.9587C156.324 75.1747 155.73 75.2827 155.082 75.2827C154.489 75.2827 153.949 75.1747 153.463 74.9587C152.977 74.7427 152.545 74.4186 152.221 74.0406C151.898 73.6626 151.628 73.1765 151.412 72.6365C151.25 72.0964 151.142 71.5024 151.142 70.8543C151.142 70.2062 151.25 69.6122 151.466 69.0721C151.682 68.5321 151.952 68.0461 152.329 67.668C152.707 67.29 153.139 66.966 153.625 66.7499C154.111 66.5339 154.705 66.4259 155.298 66.4259C155.892 66.4259 156.432 66.5339 156.864 66.6959C157.296 66.9119 157.673 67.182 158.051 67.506L157.673 68.046C157.673 68.1001 157.619 68.1001 157.565 68.1541C157.511 68.1541 157.457 68.2081 157.403 68.2081C157.35 68.2081 157.296 68.2081 157.242 68.1541C157.188 68.1001 157.134 68.0461 157.026 67.992C156.972 67.938 156.864 67.884 156.756 67.83C156.648 67.776 156.54 67.722 156.378 67.668C156.216 67.614 156.054 67.56 155.892 67.506C155.73 67.452 155.514 67.452 155.244 67.452C154.812 67.452 154.381 67.506 154.057 67.668C153.679 67.83 153.355 68.046 153.139 68.3701C152.869 68.6401 152.653 69.0181 152.545 69.4502C152.383 69.8822 152.329 70.3683 152.329 70.8543C152.329 71.3944 152.383 71.8804 152.545 72.3124C152.707 72.7445 152.869 73.0685 153.139 73.3925C153.409 73.6626 153.679 73.9326 154.057 74.0406C154.381 74.2026 154.758 74.2566 155.19 74.2566C155.46 74.2566 155.676 74.2566 155.838 74.2026C156.054 74.1486 156.216 74.1486 156.378 74.0406C156.54 73.9866 156.702 73.8786 156.864 73.7706C157.026 73.6626 157.134 73.5545 157.296 73.3925C157.349 73.5005 157.403 73.4465 157.457 73.4465Z" fill="#666666"/>
<path d="M160.858 75.2287H159.725V66.5879H160.858V75.2287Z" fill="#666666"/>
<path d="M170.682 70.9083C170.682 71.5564 170.574 72.1504 170.412 72.6905C170.197 73.2305 169.927 73.7166 169.603 74.0946C169.225 74.4726 168.847 74.7967 168.307 75.0127C167.821 75.2287 167.282 75.3367 166.634 75.3367C166.04 75.3367 165.5 75.2287 164.961 75.0127C164.475 74.7967 164.043 74.4726 163.665 74.0946C163.287 73.7166 163.017 73.2305 162.855 72.6905C162.639 72.1504 162.585 71.5564 162.585 70.9083C162.585 70.2603 162.693 69.6662 162.855 69.1262C163.071 68.5861 163.341 68.1001 163.665 67.722C164.043 67.344 164.421 67.02 164.961 66.8039C165.446 66.5879 165.986 66.4799 166.634 66.4799C167.228 66.4799 167.767 66.5879 168.307 66.8039C168.793 67.02 169.225 67.344 169.603 67.722C169.981 68.1001 170.251 68.5861 170.412 69.1262C170.574 69.6662 170.682 70.2603 170.682 70.9083ZM169.549 70.9083C169.549 70.3683 169.495 69.8822 169.333 69.5042C169.171 69.0722 169.009 68.7481 168.739 68.4241C168.469 68.1541 168.199 67.884 167.821 67.776C167.444 67.614 167.066 67.56 166.634 67.56C166.202 67.56 165.77 67.614 165.446 67.776C165.069 67.9381 164.799 68.1541 164.529 68.4241C164.259 68.6941 164.097 69.0722 163.935 69.5042C163.773 69.9362 163.719 70.4223 163.719 70.9083C163.719 71.4484 163.773 71.9344 163.935 72.3124C164.097 72.7445 164.259 73.0685 164.529 73.3925C164.799 73.6626 165.069 73.9326 165.446 74.0406C165.824 74.2026 166.202 74.2566 166.634 74.2566C167.066 74.2566 167.498 74.2026 167.821 74.0406C168.199 73.8786 168.469 73.6626 168.739 73.3925C169.009 73.1225 169.171 72.7445 169.333 72.3124C169.441 71.9344 169.549 71.4484 169.549 70.9083ZM168.577 64.4817L166.904 65.7779C166.85 65.8319 166.796 65.8319 166.742 65.8859C166.688 65.8859 166.634 65.8859 166.526 65.8859H165.716L166.904 64.6438C166.958 64.5897 166.958 64.5897 167.012 64.5357C167.066 64.5357 167.066 64.4817 167.12 64.4817C167.174 64.4817 167.174 64.4817 167.228 64.4277C167.282 64.4277 167.336 64.4277 167.39 64.4277H168.577V64.4817Z" fill="#666666"/>
<path d="M173.003 66.6419C173.057 66.6419 173.111 66.6959 173.165 66.8039L177.916 73.2845C177.916 73.1765 177.916 73.0685 177.916 72.9605C177.916 72.8525 177.916 72.7444 177.916 72.6904V66.5879H178.887V75.2287H178.347C178.239 75.2287 178.185 75.2287 178.132 75.1747C178.078 75.1207 178.024 75.0666 177.97 75.0126L173.219 68.5321C173.219 68.6401 173.219 68.7481 173.219 68.8021C173.219 68.9101 173.219 68.9641 173.219 69.0721V75.2287H172.194V66.5879H172.788C172.842 66.5879 172.949 66.6419 173.003 66.6419Z" fill="#666666"/>
<path d="M83.398 79.7111V80.6831H79.4575V83.5454H82.6423V84.4635H79.4575V87.4337H83.398V88.4058H78.3239V79.7651H83.398V79.7111Z" fill="#666666"/>
<path d="M88.526 88.3518H87.4464V79.7111H88.5799V88.3518H88.526Z" fill="#666666"/>
<path d="M91.4948 79.7651C91.5488 79.7651 91.6028 79.8191 91.6568 79.9271L96.407 86.4077C96.407 86.2996 96.407 86.1916 96.407 86.0836C96.407 85.9756 96.407 85.8676 96.407 85.8136V79.7111H97.3786V88.3518H96.8388C96.7308 88.3518 96.6768 88.3518 96.6229 88.2978C96.5689 88.2438 96.5149 88.1898 96.4609 88.1358L91.7108 81.6552C91.7108 81.7632 91.7108 81.8712 91.7108 81.9253C91.7108 82.0333 91.7108 82.0873 91.7108 82.1953V88.3518H90.7391V79.7111H91.3329C91.3869 79.7111 91.4948 79.7111 91.4948 79.7651Z" fill="#666666"/>
<path d="M104.45 79.7111V80.6831H100.509V83.7074H103.856V84.6795H100.509V88.4058H99.3758V79.7651H104.45V79.7111Z" fill="#666666"/>
<path d="M113.464 84.0314C113.464 84.6795 113.356 85.2735 113.194 85.8136C112.979 86.3536 112.709 86.8397 112.385 87.2177C112.007 87.5958 111.629 87.9198 111.089 88.1358C110.603 88.3518 110.064 88.4598 109.416 88.4598C108.822 88.4598 108.282 88.3518 107.743 88.1358C107.257 87.9198 106.825 87.5958 106.447 87.2177C106.069 86.8397 105.799 86.3536 105.637 85.8136C105.421 85.2735 105.367 84.6795 105.367 84.0314C105.367 83.3834 105.475 82.7893 105.637 82.2493C105.853 81.7092 106.123 81.2232 106.447 80.8451C106.825 80.4671 107.203 80.1431 107.743 79.9271C108.228 79.711 108.768 79.603 109.416 79.603C110.01 79.603 110.55 79.711 111.089 79.9271C111.575 80.1431 112.007 80.4671 112.385 80.8451C112.763 81.2232 113.033 81.7092 113.194 82.2493C113.41 82.7893 113.464 83.3834 113.464 84.0314ZM112.331 84.0314C112.331 83.4914 112.277 83.0053 112.115 82.6273C111.953 82.1953 111.791 81.8712 111.521 81.5472C111.251 81.2772 110.981 81.0072 110.603 80.8992C110.226 80.7371 109.848 80.6831 109.416 80.6831C108.984 80.6831 108.552 80.7371 108.228 80.8992C107.851 81.0612 107.581 81.2772 107.311 81.5472C107.041 81.8172 106.879 82.1953 106.717 82.6273C106.555 83.0593 106.501 83.5454 106.501 84.0314C106.501 84.5715 106.555 85.0575 106.717 85.4356C106.879 85.8676 107.041 86.1916 107.311 86.5157C107.581 86.7857 107.851 87.0557 108.228 87.1637C108.606 87.3257 108.984 87.3797 109.416 87.3797C109.848 87.3797 110.28 87.3257 110.603 87.1637C110.981 87.0017 111.251 86.7857 111.521 86.5157C111.791 86.2456 111.953 85.8676 112.115 85.4356C112.277 85.0575 112.331 84.5715 112.331 84.0314Z" fill="#666666"/>
<path d="M116.217 84.7335V88.3518H115.138V79.7111H117.459C117.999 79.7111 118.43 79.7651 118.808 79.8731C119.186 79.9811 119.51 80.1431 119.726 80.3591C119.996 80.5751 120.158 80.8452 120.266 81.1152C120.374 81.3852 120.428 81.7632 120.428 82.0873C120.428 82.4113 120.374 82.6813 120.266 82.9514C120.158 83.2214 120.05 83.4374 119.888 83.6534C119.726 83.8694 119.51 84.0314 119.24 84.1935C118.97 84.3555 118.7 84.4635 118.376 84.5175C118.538 84.6255 118.646 84.7335 118.754 84.8955L121.129 88.2978H120.158C119.942 88.2978 119.78 88.1898 119.726 88.0278L117.621 84.9495C117.567 84.8415 117.459 84.7875 117.405 84.7335C117.351 84.6795 117.189 84.6795 117.081 84.6795H116.217V84.7335ZM116.217 83.9234H117.405C117.729 83.9234 117.999 83.8694 118.269 83.8154C118.538 83.7074 118.7 83.5994 118.862 83.4914C119.024 83.3294 119.132 83.1674 119.24 82.9514C119.348 82.7353 119.348 82.5193 119.348 82.2493C119.348 81.7092 119.186 81.3312 118.862 81.0612C118.538 80.7912 118.053 80.6831 117.405 80.6831H116.217V83.9234Z" fill="#666666"/>
<path d="M126.527 85.5436C126.581 85.6516 126.581 85.7596 126.635 85.8676C126.689 85.7596 126.689 85.6516 126.743 85.5436C126.797 85.4356 126.851 85.3276 126.905 85.2196L129.658 79.9271C129.712 79.8191 129.766 79.7651 129.82 79.7651C129.874 79.7651 129.928 79.7111 130.036 79.7111H130.846V88.3518H129.874V82.0333C129.874 81.9253 129.874 81.8712 129.874 81.7632C129.874 81.6552 129.874 81.5472 129.874 81.4932L127.067 86.8937C126.959 87.0557 126.851 87.1637 126.689 87.1637H126.527C126.365 87.1637 126.203 87.0557 126.149 86.8937L123.289 81.4932C123.289 81.6012 123.289 81.7092 123.289 81.8172C123.289 81.9253 123.289 82.0333 123.289 82.0873V88.4058H122.317V79.7651H123.127C123.235 79.7651 123.289 79.7651 123.343 79.8191C123.397 79.8191 123.451 79.8731 123.504 79.9811L126.365 85.2736C126.473 85.3276 126.527 85.4356 126.527 85.5436Z" fill="#666666"/>
<path d="M139.644 88.3519H138.781C138.673 88.3519 138.619 88.3519 138.565 88.2979C138.511 88.2439 138.457 88.1899 138.403 88.0819L137.647 85.9757H133.976L133.221 88.0819C133.221 88.1359 133.167 88.2439 133.059 88.2979C133.005 88.3519 132.897 88.4059 132.843 88.4059H131.979L135.272 79.7651H136.406L139.644 88.3519ZM134.3 85.1656H137.377L136.082 81.6553C135.974 81.4393 135.92 81.1693 135.812 80.8452C135.758 81.0072 135.704 81.1693 135.704 81.2773C135.65 81.4393 135.65 81.5473 135.596 81.6553L134.3 85.1656Z" fill="#666666"/>
<path d="M146.23 86.5697C146.284 86.5697 146.338 86.5697 146.392 86.6237L146.824 87.1097C146.5 87.5418 146.068 87.8658 145.582 88.0818C145.096 88.2979 144.502 88.4059 143.855 88.4059C143.261 88.4059 142.721 88.2979 142.235 88.0818C141.749 87.8658 141.318 87.5418 140.994 87.1637C140.67 86.7857 140.4 86.2997 140.184 85.7596C140.022 85.2196 139.914 84.6255 139.914 83.9775C139.914 83.3294 140.022 82.7354 140.238 82.1953C140.454 81.6553 140.724 81.1692 141.102 80.7912C141.48 80.4132 141.911 80.0891 142.397 79.8731C142.883 79.6571 143.477 79.5491 144.071 79.5491C144.664 79.5491 145.204 79.6571 145.636 79.8191C146.068 80.0351 146.446 80.3051 146.824 80.6292L146.446 81.1692C146.446 81.2232 146.392 81.2232 146.338 81.2772C146.284 81.2772 146.23 81.3312 146.176 81.3312C146.122 81.3312 146.068 81.3312 146.014 81.2772C145.96 81.2232 145.906 81.1692 145.798 81.1152C145.744 81.0612 145.636 81.0072 145.528 80.9532C145.42 80.8992 145.312 80.8452 145.15 80.7912C144.988 80.7372 144.826 80.6832 144.664 80.6292C144.502 80.5752 144.287 80.5752 144.017 80.5752C143.585 80.5752 143.153 80.6292 142.829 80.7912C142.451 80.9532 142.127 81.1692 141.911 81.4932C141.642 81.7633 141.426 82.1413 141.318 82.5733C141.156 83.0054 141.102 83.4914 141.102 83.9775C141.102 84.5175 141.156 85.0036 141.318 85.4356C141.48 85.8676 141.642 86.1917 141.911 86.5157C142.181 86.7857 142.451 87.0557 142.829 87.1637C143.153 87.3258 143.531 87.3798 143.963 87.3798C144.233 87.3798 144.448 87.3798 144.61 87.3258C144.826 87.2718 144.988 87.2718 145.15 87.1637C145.312 87.1097 145.474 87.0017 145.636 86.8937C145.798 86.7857 145.906 86.6777 146.068 86.5157C146.122 86.6237 146.176 86.5697 146.23 86.5697Z" fill="#666666"/>
<path d="M149.63 88.3518H148.497V79.7111H149.63V88.3518Z" fill="#666666"/>
<path d="M159.401 84.0315C159.401 84.6796 159.293 85.2736 159.131 85.8136C158.915 86.3537 158.645 86.8397 158.321 87.2178C157.943 87.5958 157.565 87.9198 157.026 88.1359C156.54 88.3519 156 88.4599 155.352 88.4599C154.758 88.4599 154.219 88.3519 153.679 88.1359C153.193 87.9198 152.761 87.5958 152.383 87.2178C152.006 86.8397 151.736 86.3537 151.574 85.8136C151.358 85.2736 151.304 84.6796 151.304 84.0315C151.304 83.3834 151.412 82.7894 151.574 82.2493C151.79 81.7093 152.06 81.2232 152.383 80.8452C152.761 80.4672 153.139 80.1431 153.679 79.9271C154.165 79.7111 154.705 79.6031 155.352 79.6031C155.946 79.6031 156.486 79.7111 157.026 79.9271C157.511 80.1431 157.943 80.4672 158.321 80.8452C158.699 81.2232 158.969 81.7093 159.131 82.2493C159.347 82.7894 159.401 83.3834 159.401 84.0315ZM158.267 84.0315C158.267 83.4914 158.213 83.0054 158.051 82.6274C157.889 82.1953 157.727 81.8713 157.457 81.5473C157.188 81.2772 156.918 81.0072 156.54 80.8992C156.162 80.7372 155.784 80.6832 155.352 80.6832C154.92 80.6832 154.489 80.7372 154.165 80.8992C153.787 81.0612 153.517 81.2772 153.247 81.5473C152.977 81.8173 152.815 82.1953 152.653 82.6274C152.491 83.0594 152.437 83.5454 152.437 84.0315C152.437 84.5715 152.491 85.0576 152.653 85.4356C152.815 85.8677 152.977 86.1917 153.247 86.5157C153.517 86.7857 153.787 87.0558 154.165 87.1638C154.543 87.3258 154.92 87.3798 155.352 87.3798C155.784 87.3798 156.216 87.3258 156.54 87.1638C156.918 87.0018 157.188 86.7857 157.457 86.5157C157.727 86.2457 157.889 85.8677 158.051 85.4356C158.213 85.0576 158.267 84.5715 158.267 84.0315ZM157.349 77.6049L155.676 78.901C155.622 78.955 155.568 78.955 155.514 79.009C155.46 79.009 155.406 79.009 155.298 79.009H154.489L155.676 77.7669C155.73 77.7129 155.73 77.7129 155.784 77.6589C155.838 77.6589 155.838 77.6049 155.892 77.6049C155.946 77.6049 155.946 77.6049 156 77.5509C156.054 77.5509 156.108 77.5509 156.162 77.5509H157.349V77.6049Z" fill="#666666"/>
<path d="M161.722 79.7651C161.776 79.7651 161.83 79.8191 161.884 79.9271L166.634 86.4077C166.634 86.2996 166.634 86.1916 166.634 86.0836C166.634 85.9756 166.634 85.8676 166.634 85.8136V79.7111H167.606V88.3518H167.066C166.958 88.3518 166.904 88.3518 166.85 88.2978C166.796 88.2438 166.742 88.1898 166.688 88.1358L161.938 81.6552C161.938 81.7632 161.938 81.8712 161.938 81.9253C161.938 82.0333 161.938 82.0873 161.938 82.1953V88.3518H160.966V79.7111H161.56C161.614 79.7111 161.668 79.7111 161.722 79.7651Z" fill="#666666"/>
<path d="M176.89 79.7111V80.6831H172.95V83.5454H176.134V84.4635H172.95V87.4337H176.89V88.4058H171.816V79.7651H176.89V79.7111Z" fill="#666666"/>
<path d="M179.589 87.3797H183.152V88.3518H178.509V79.7111H179.643V87.3797H179.589Z" fill="#666666"/>
<path d="M189.413 79.7111V80.6831H185.473V83.5454H188.657V84.4635H185.473V87.4337H189.413V88.4058H184.339V79.7651H189.413V79.7111Z" fill="#666666"/>
<path d="M196.754 86.5697C196.808 86.5697 196.862 86.5697 196.916 86.6237L197.348 87.1097C197.024 87.5418 196.592 87.8658 196.107 88.0818C195.621 88.2979 195.027 88.4059 194.379 88.4059C193.785 88.4059 193.246 88.2979 192.76 88.0818C192.274 87.8658 191.842 87.5418 191.518 87.1637C191.194 86.7857 190.925 86.2997 190.709 85.7596C190.547 85.2196 190.439 84.6255 190.439 83.9775C190.439 83.3294 190.547 82.7354 190.763 82.1953C190.979 81.6553 191.248 81.1692 191.626 80.7912C192.004 80.4132 192.436 80.0891 192.922 79.8731C193.408 79.6571 194.001 79.5491 194.595 79.5491C195.189 79.5491 195.729 79.6571 196.161 79.8191C196.592 80.0351 196.97 80.3051 197.348 80.6292L196.97 81.1692C196.97 81.2232 196.916 81.2232 196.862 81.2772C196.808 81.2772 196.754 81.3312 196.7 81.3312C196.646 81.3312 196.592 81.3312 196.538 81.2772C196.484 81.2232 196.43 81.1692 196.323 81.1152C196.269 81.0612 196.161 81.0072 196.053 80.9532C195.945 80.8992 195.837 80.8452 195.675 80.7912C195.513 80.7372 195.351 80.6832 195.189 80.6292C195.027 80.5752 194.811 80.5752 194.541 80.5752C194.109 80.5752 193.678 80.6292 193.354 80.7912C192.976 80.9532 192.652 81.1692 192.436 81.4932C192.166 81.7633 191.95 82.1413 191.842 82.5733C191.68 83.0054 191.626 83.4914 191.626 83.9775C191.626 84.5175 191.68 85.0036 191.842 85.4356C192.004 85.8676 192.166 86.1917 192.436 86.5157C192.706 86.7857 192.976 87.0557 193.354 87.1637C193.678 87.3258 194.055 87.3798 194.487 87.3798C194.757 87.3798 194.973 87.3798 195.135 87.3258C195.351 87.2718 195.513 87.2718 195.675 87.1637C195.837 87.1097 195.999 87.0017 196.161 86.8937C196.323 86.7857 196.43 86.6777 196.592 86.5157C196.646 86.6237 196.7 86.5697 196.754 86.5697Z" fill="#666666"/>
<path d="M204.419 79.7111V80.6831H201.774V88.3518H200.641V80.6831H197.996V79.7111H204.419Z" fill="#666666"/>
<path d="M212.678 84.0314C212.678 84.6795 212.57 85.2735 212.408 85.8136C212.192 86.3536 211.922 86.8397 211.599 87.2177C211.221 87.5958 210.843 87.9198 210.303 88.1358C209.817 88.3518 209.278 88.4598 208.63 88.4598C208.036 88.4598 207.496 88.3518 206.956 88.1358C206.471 87.9198 206.039 87.5958 205.661 87.2177C205.283 86.8397 205.013 86.3536 204.851 85.8136C204.635 85.2735 204.581 84.6795 204.581 84.0314C204.581 83.3834 204.689 82.7893 204.851 82.2493C205.067 81.7092 205.337 81.2232 205.661 80.8451C206.039 80.4671 206.417 80.1431 206.956 79.9271C207.442 79.711 207.982 79.603 208.63 79.603C209.224 79.603 209.763 79.711 210.303 79.9271C210.789 80.1431 211.221 80.4671 211.599 80.8451C211.976 81.2232 212.246 81.7092 212.408 82.2493C212.57 82.7893 212.678 83.3834 212.678 84.0314ZM211.491 84.0314C211.491 83.4914 211.437 83.0053 211.275 82.6273C211.113 82.1953 210.951 81.8712 210.681 81.5472C210.411 81.2772 210.141 81.0072 209.763 80.8992C209.385 80.7371 209.008 80.6831 208.576 80.6831C208.144 80.6831 207.712 80.7371 207.388 80.8992C207.01 81.0612 206.74 81.2772 206.471 81.5472C206.201 81.8172 206.039 82.1953 205.877 82.6273C205.715 83.0593 205.661 83.5454 205.661 84.0314C205.661 84.5715 205.715 85.0575 205.877 85.4356C206.039 85.8676 206.201 86.1916 206.471 86.5157C206.74 86.7857 207.01 87.0557 207.388 87.1637C207.766 87.3257 208.144 87.3797 208.576 87.3797C209.008 87.3797 209.439 87.3257 209.763 87.1637C210.141 87.0017 210.411 86.7857 210.681 86.5157C210.951 86.2456 211.113 85.8676 211.275 85.4356C211.437 85.0575 211.491 84.5715 211.491 84.0314Z" fill="#666666"/>
<path d="M215.377 84.7335V88.3518H214.298V79.7111H216.619C217.158 79.7111 217.59 79.7651 217.968 79.8731C218.346 79.9811 218.67 80.1431 218.886 80.3591C219.156 80.5751 219.318 80.8452 219.426 81.1152C219.534 81.3852 219.588 81.7632 219.588 82.0873C219.588 82.4113 219.534 82.6813 219.426 82.9514C219.318 83.2214 219.21 83.4374 219.048 83.6534C218.886 83.8694 218.67 84.0314 218.4 84.1935C218.13 84.3555 217.86 84.4635 217.536 84.5175C217.698 84.6255 217.806 84.7335 217.914 84.8955L220.289 88.2978H219.318C219.102 88.2978 218.94 88.1898 218.886 88.0278L216.781 84.9495C216.727 84.8415 216.619 84.7875 216.565 84.7335C216.511 84.6795 216.349 84.6795 216.241 84.6795H215.377V84.7335ZM215.377 83.9234H216.565C216.889 83.9234 217.158 83.8694 217.428 83.8154C217.698 83.7074 217.86 83.5994 218.022 83.4914C218.184 83.3294 218.292 83.1674 218.4 82.9514C218.508 82.7353 218.508 82.5193 218.508 82.2493C218.508 81.7092 218.346 81.3312 218.022 81.0612C217.698 80.7912 217.212 80.6831 216.565 80.6831H215.377V83.9234Z" fill="#666666"/>
<path d="M228.278 88.3519H227.415C227.307 88.3519 227.253 88.3519 227.199 88.2979C227.145 88.2439 227.091 88.1899 227.037 88.0819L226.281 85.9757H222.61L221.855 88.0819C221.855 88.1359 221.801 88.2439 221.693 88.2979C221.639 88.3519 221.531 88.4059 221.477 88.4059H220.613L223.906 79.7651H225.039L228.278 88.3519ZM222.934 85.1656H226.011L224.716 81.6553C224.608 81.4393 224.554 81.1693 224.446 80.8452C224.392 81.0072 224.338 81.1693 224.338 81.2773C224.284 81.4393 224.284 81.5473 224.23 81.6553L222.934 85.1656Z" fill="#666666"/>
<path d="M230.437 87.3797H234V88.3518H229.358V79.7111H230.491V87.3797H230.437Z" fill="#666666"/>
</svg>
