<?xml version="1.0" encoding="utf-8"?>
<!-- Generator: Adobe Illustrator 22.1.0, SVG Export Plug-In . SVG Version: 6.00 Build 0)  -->
<svg version="1.1" id="Capa_1" xmlns="http://www.w3.org/2000/svg" xmlns:xlink="http://www.w3.org/1999/xlink" x="0px" y="0px"
	 viewBox="0 0 52 66" style="enable-background:new 0 0 52 66;" xml:space="preserve">
<g>
	<path d="M10.6,15.7h16.3c0.8,0,1.5-0.7,1.5-1.6c0-0.9-0.7-1.6-1.5-1.6H10.6c-0.8,0-1.5,0.7-1.5,1.6C9,15,9.7,15.7,10.6,15.7
		L10.6,15.7z M10.6,15.7"/>
	<path d="M10.6,30.7h16.3c0.8,0,1.5-0.7,1.5-1.6c0-0.9-0.7-1.6-1.5-1.6H10.6c-0.8,0-1.5,0.7-1.5,1.6C9,30,9.7,30.7,10.6,30.7
		L10.6,30.7z M10.6,30.7"/>
	<path d="M10.6,23.4h22.3c0.8,0,1.5-0.7,1.5-1.6s-0.7-1.6-1.5-1.6H10.6C9.7,20.3,9,21,9,21.9S9.7,23.4,10.6,23.4L10.6,23.4z
		 M10.6,23.4"/>
	<path d="M4.4,4.7h34.7v24.5c0.6,0.2,1.1,0.4,1.5,0.7c0.7-0.4,1.7-0.9,2.9-0.9c0,0,0.1,0,0.1,0V4.7c0-2.6-2.1-4.7-4.6-4.7H4.4
		C1.8,0-0.2,2.1-0.2,4.7v52.2c0,2.6,2.1,4.7,4.6,4.7h27.8v-4.7H4.4V4.7z M4.4,4.7"/>
	<path d="M50.7,40.7c-0.3-0.3-0.7-0.7-0.8-0.9c-0.1-0.3,0-0.8,0.1-1.3c0.2-0.8,0.3-1.7-0.1-2.3c-0.5-0.7-1.4-0.8-2.1-0.8
		c-0.5,0-1-0.1-1.2-0.3c-0.2-0.2-0.4-0.7-0.6-1.1c-0.3-0.7-0.7-1.6-1.5-1.8c-0.1,0-0.3-0.1-0.5-0.1c-0.6,0-1.2,0.3-1.7,0.7
		c-0.4,0.3-0.9,0.5-1.2,0.5c-0.3,0-0.8-0.3-1.2-0.5c-0.6-0.3-1.1-0.7-1.7-0.7c-0.2,0-0.3,0-0.5,0.1c-0.8,0.3-1.1,1.1-1.5,1.8
		c-0.2,0.4-0.4,0.9-0.6,1.1c-0.2,0.2-0.8,0.2-1.2,0.3c-0.8,0.1-1.7,0.2-2.1,0.8c-0.5,0.7-0.3,1.5-0.1,2.3c0.1,0.5,0.2,1,0.1,1.3
		c-0.1,0.3-0.5,0.6-0.8,0.9c-0.6,0.5-1.3,1.2-1.3,2c0,0.8,0.7,1.5,1.3,2c0.3,0.3,0.7,0.7,0.8,0.9c0.1,0.3,0,0.8-0.1,1.3
		c-0.2,0.8-0.4,1.7,0.1,2.3c0.5,0.7,1.4,0.8,2.1,0.8c0.5,0,1,0.1,1.2,0.3c0.2,0.2,0.4,0.7,0.6,1.1c0.3,0.7,0.7,1.6,1.5,1.8
		c0.1,0,0.3,0.1,0.5,0.1c0.6,0,1.2-0.3,1.7-0.7c0.4-0.3,0.9-0.5,1.2-0.5c0.3,0,0.8,0.3,1.2,0.5c0.6,0.3,1.1,0.7,1.7,0.7
		c0.2,0,0.3,0,0.5-0.1c0.8-0.3,1.1-1.1,1.5-1.8c0.2-0.4,0.4-0.9,0.6-1.1c0.2-0.2,0.8-0.2,1.2-0.3c0.8-0.1,1.7-0.2,2.1-0.8
		c0.5-0.7,0.3-1.5,0.1-2.3c-0.1-0.5-0.2-1-0.1-1.3c0.1-0.3,0.5-0.6,0.8-0.9c0.6-0.5,1.3-1.1,1.3-2C52,41.9,51.3,41.3,50.7,40.7
		L50.7,40.7z M41.1,46.8c-2.2,0-4-1.8-4-4.1c0-2.2,1.8-4.1,4-4.1c2.2,0,4,1.8,4,4.1C45,45,43.3,46.8,41.1,46.8L41.1,46.8z
		 M41.1,46.8"/>
	<path d="M44.8,54.4c-0.3,0.1-0.5,0.1-0.8,0.1c-0.9,0-1.7-0.5-2.3-0.8c-0.2-0.1-0.5-0.3-0.6-0.3c-0.2,0.1-0.4,0.2-0.6,0.3
		c-0.6,0.4-1.4,0.8-2.3,0.8c-0.3,0-0.6,0-0.8-0.1c-0.8-0.3-1.3-0.8-1.6-1.4v12.8c0,0.3,0.1,0.5,0.4,0.6c0.2,0.1,0.5,0.1,0.7-0.1
		l4.3-4l4.3,4c0.1,0.1,0.3,0.2,0.4,0.2c0.1,0,0.2,0,0.3-0.1c0.2-0.1,0.4-0.3,0.4-0.6V53.1C46.1,53.6,45.6,54.2,44.8,54.4L44.8,54.4z
		 M44.8,54.4"/>
</g>
</svg>
