<svg width="191" height="17" viewBox="0 0 191 17" fill="none" xmlns="http://www.w3.org/2000/svg">
<path d="M0.668105 1.073H7.01611C8.76411 1.073 10.1441 1.211 11.1561 1.487C12.1681 1.74767 12.9118 2.20767 13.3871 2.867C13.8624 3.52633 14.1001 4.43867 14.1001 5.604V11.676C14.1001 12.8107 13.8778 13.6923 13.4331 14.321C12.9884 14.9343 12.2601 15.3713 11.2481 15.632C10.2361 15.8773 8.83311 16 7.03911 16H0.668105V1.073ZM6.87811 13.447C7.85944 13.447 8.59544 13.4087 9.08611 13.332C9.59211 13.24 9.95244 13.0713 10.1671 12.826C10.3971 12.5807 10.5121 12.1973 10.5121 11.676V5.535C10.5121 4.82967 10.2284 4.339 9.66111 4.063C9.10911 3.77167 8.21977 3.626 6.99311 3.626H4.25611V13.447H6.87811ZM20.9532 1.073H25.3232L30.7052 16H27.0712L25.7372 12.067H20.2862L18.9752 16H15.4332L20.9532 1.073ZM24.9552 9.675L23.0692 4.063H22.9772L21.0912 9.675H24.9552ZM35.8105 3.626H31.2105V1.073H43.9755V3.626H39.3985V16H35.8105V3.626ZM52.7782 16.23C51.9502 16.23 51.1835 16.1763 50.4782 16.069C49.7882 15.9617 49.0675 15.7777 48.3162 15.517C47.5035 15.241 46.8672 14.7963 46.4072 14.183C45.9472 13.5543 45.7172 12.7953 45.7172 11.906V5.374C45.7172 4.638 45.8782 3.97867 46.2002 3.396C46.5375 2.81333 46.9669 2.35333 47.4882 2.016C47.9482 1.72467 48.5155 1.47933 49.1902 1.28C49.8649 1.08067 50.4935 0.957999 51.0762 0.912C51.6129 0.865999 52.1802 0.842999 52.7782 0.842999C53.4835 0.842999 54.0969 0.873666 54.6182 0.934999C55.1395 0.981 55.7222 1.08833 56.3662 1.257C57.1022 1.47167 57.7079 1.73233 58.1832 2.039C58.6585 2.34567 59.0572 2.775 59.3792 3.327C59.7165 3.89433 59.8852 4.57667 59.8852 5.374V11.906C59.8852 12.734 59.6629 13.447 59.2182 14.045C58.7889 14.643 58.1909 15.0953 57.4242 15.402C56.0442 15.954 54.4955 16.23 52.7782 16.23ZM52.8242 13.677C53.3302 13.677 53.7519 13.6617 54.0892 13.631C54.4419 13.585 54.8022 13.5083 55.1702 13.401C55.5382 13.2937 55.8142 13.1173 55.9982 12.872C56.1975 12.6113 56.2972 12.2893 56.2972 11.906V5.351C56.2972 4.64567 56.0135 4.14733 55.4462 3.856C54.8789 3.54933 53.9972 3.396 52.8012 3.396C51.6052 3.396 50.7235 3.54167 50.1562 3.833C49.5889 4.12433 49.3052 4.63033 49.3052 5.351V11.906C49.3052 12.2893 49.4049 12.6113 49.6042 12.872C49.8035 13.1173 50.0949 13.2937 50.4782 13.401C50.8462 13.5083 51.1989 13.585 51.5362 13.631C51.8889 13.6617 52.3182 13.677 52.8242 13.677ZM67.6026 16.23C66.1766 16.23 64.4133 16.092 62.3126 15.816V13.079C64.9193 13.4777 66.6979 13.677 67.6486 13.677C69.6419 13.677 70.6386 13.1633 70.6386 12.136V11.17C70.6386 10.6793 70.4929 10.3037 70.2016 10.043C69.9256 9.78233 69.4196 9.652 68.6836 9.652H66.9356C63.6543 9.652 62.0136 8.34867 62.0136 5.742V4.638C62.0136 3.33467 62.5579 2.37633 63.6466 1.763C64.7353 1.14967 66.4603 0.842999 68.8216 0.842999C70.0483 0.842999 71.6046 0.942666 73.4906 1.142V3.81C71.1753 3.534 69.5806 3.396 68.7066 3.396C67.4953 3.396 66.6826 3.49567 66.2686 3.695C65.8239 3.90967 65.6016 4.247 65.6016 4.707V5.765C65.6016 6.547 66.2609 6.938 67.5796 6.938H69.3736C71.0756 6.938 72.3099 7.25233 73.0766 7.881C73.8433 8.50967 74.2266 9.468 74.2266 10.756V11.745C74.2266 13.5237 73.5903 14.7273 72.3176 15.356C71.7043 15.678 71.0219 15.9003 70.2706 16.023C69.5346 16.161 68.6453 16.23 67.6026 16.23ZM85.9776 1.073H90.3476L95.7296 16H92.0956L90.7616 12.067H85.3106L83.9996 16H80.4576L85.9776 1.073ZM89.9796 9.675L88.0936 4.063H88.0016L86.1156 9.675H89.9796ZM97.3849 1.073H103.434C104.86 1.073 105.956 1.18033 106.723 1.395C107.505 1.59433 108.057 1.924 108.379 2.384C108.701 2.82867 108.862 3.45733 108.862 4.27V6.11C108.862 6.524 108.693 6.915 108.356 7.283C108.034 7.651 107.651 7.904 107.206 8.042V8.157C107.789 8.21833 108.318 8.47133 108.793 8.916C109.284 9.34533 109.529 9.82833 109.529 10.365V12.665C109.529 13.8763 109.046 14.735 108.08 15.241C107.114 15.747 105.619 16 103.595 16H97.3849V1.073ZM103.434 7.145C104.001 7.145 104.423 7.099 104.699 7.007C104.975 6.915 105.159 6.76933 105.251 6.57C105.358 6.35533 105.412 6.04867 105.412 5.65V4.914C105.412 4.56133 105.366 4.30067 105.274 4.132C105.182 3.948 104.99 3.81767 104.699 3.741C104.423 3.66433 103.978 3.626 103.365 3.626H100.973V7.145H103.434ZM103.526 13.447C104.4 13.447 105.021 13.3473 105.389 13.148C105.757 12.9487 105.941 12.6267 105.941 12.182V10.986C105.941 10.434 105.795 10.043 105.504 9.813C105.228 9.583 104.73 9.468 104.009 9.468H100.973V13.447H103.526ZM111.985 1.073H115.573V16H111.985V1.073ZM118.79 1.073H130.175V3.626H122.378V7.053H129.416V9.606H122.378V13.447H130.405V16H118.79V1.073ZM132.828 1.073H139.544C141.538 1.073 142.979 1.31833 143.868 1.809C144.758 2.28433 145.202 3.08933 145.202 4.224V6.846C145.202 7.72 144.888 8.41 144.259 8.916C143.646 9.40667 142.826 9.721 141.798 9.859L146.122 16H141.982L138.072 10.135H136.416V16H132.828V1.073ZM139.498 7.766C140.342 7.766 140.917 7.65867 141.223 7.444C141.53 7.214 141.683 6.777 141.683 6.133V5.075C141.683 4.523 141.515 4.14733 141.177 3.948C140.855 3.73333 140.296 3.626 139.498 3.626H136.416V7.766H139.498ZM151.642 3.626H147.042V1.073H159.807V3.626H155.23V16H151.642V3.626ZM168.609 16.23C167.781 16.23 167.015 16.1763 166.309 16.069C165.619 15.9617 164.899 15.7777 164.147 15.517C163.335 15.241 162.698 14.7963 162.238 14.183C161.778 13.5543 161.548 12.7953 161.548 11.906V5.374C161.548 4.638 161.709 3.97867 162.031 3.396C162.369 2.81333 162.798 2.35333 163.319 2.016C163.779 1.72467 164.347 1.47933 165.021 1.28C165.696 1.08067 166.325 0.957999 166.907 0.912C167.444 0.865999 168.011 0.842999 168.609 0.842999C169.315 0.842999 169.928 0.873666 170.449 0.934999C170.971 0.981 171.553 1.08833 172.197 1.257C172.933 1.47167 173.539 1.73233 174.014 2.039C174.49 2.34567 174.888 2.775 175.21 3.327C175.548 3.89433 175.716 4.57667 175.716 5.374V11.906C175.716 12.734 175.494 13.447 175.049 14.045C174.62 14.643 174.022 15.0953 173.255 15.402C171.875 15.954 170.327 16.23 168.609 16.23ZM168.655 13.677C169.161 13.677 169.583 13.6617 169.92 13.631C170.273 13.585 170.633 13.5083 171.001 13.401C171.369 13.2937 171.645 13.1173 171.829 12.872C172.029 12.6113 172.128 12.2893 172.128 11.906V5.351C172.128 4.64567 171.845 4.14733 171.277 3.856C170.71 3.54933 169.828 3.396 168.632 3.396C167.436 3.396 166.555 3.54167 165.987 3.833C165.42 4.12433 165.136 4.63033 165.136 5.351V11.906C165.136 12.2893 165.236 12.6113 165.435 12.872C165.635 13.1173 165.926 13.2937 166.309 13.401C166.677 13.5083 167.03 13.585 167.367 13.631C167.72 13.6617 168.149 13.677 168.655 13.677ZM183.434 16.23C182.008 16.23 180.244 16.092 178.144 15.816V13.079C180.75 13.4777 182.529 13.677 183.48 13.677C185.473 13.677 186.47 13.1633 186.47 12.136V11.17C186.47 10.6793 186.324 10.3037 186.033 10.043C185.757 9.78233 185.251 9.652 184.515 9.652H182.767C179.485 9.652 177.845 8.34867 177.845 5.742V4.638C177.845 3.33467 178.389 2.37633 179.478 1.763C180.566 1.14967 182.291 0.842999 184.653 0.842999C185.879 0.842999 187.436 0.942666 189.322 1.142V3.81C187.006 3.534 185.412 3.396 184.538 3.396C183.326 3.396 182.514 3.49567 182.1 3.695C181.655 3.90967 181.433 4.247 181.433 4.707V5.765C181.433 6.547 182.092 6.938 183.411 6.938H185.205C186.907 6.938 188.141 7.25233 188.908 7.881C189.674 8.50967 190.058 9.468 190.058 10.756V11.745C190.058 13.5237 189.421 14.7273 188.149 15.356C187.535 15.678 186.853 15.9003 186.102 16.023C185.366 16.161 184.476 16.23 183.434 16.23Z" fill="#333333"/>
</svg>
