<?xml version="1.0" encoding="utf-8"?>
<!-- Generator: Adobe Illustrator 26.1.0, SVG Export Plug-In . SVG Version: 6.00 Build 0)  -->
<svg version="1.1" id="Capa_1" xmlns="http://www.w3.org/2000/svg" xmlns:xlink="http://www.w3.org/1999/xlink" x="0px" y="0px"
	 viewBox="0 0 388.49 150.9" style="enable-background:new 0 0 388.49 150.9;" xml:space="preserve">
<style type="text/css">
	.st0{fill:#414140;stroke:#414140;stroke-width:0.5;stroke-miterlimit:10;}
	.st1{fill:#444342;}
</style>
<g>
	<g>
		<g>
			<path class="st0" d="M177.53,39.08h9.78c2.21,0,3.89,0.17,5.04,0.51c1.56,0.46,2.89,1.27,4,2.44c1.11,1.17,1.95,2.6,2.53,4.29
				c0.58,1.69,0.87,3.78,0.87,6.27c0,2.18-0.27,4.06-0.81,5.64c-0.66,1.93-1.61,3.49-2.84,4.68c-0.93,0.9-2.18,1.61-3.76,2.12
				c-1.18,0.37-2.76,0.56-4.74,0.56h-10.07V39.08z M182.88,43.57v17.56h4c1.49,0,2.57-0.08,3.24-0.25c0.87-0.22,1.59-0.58,2.16-1.1
				c0.57-0.52,1.04-1.37,1.4-2.56c0.36-1.19,0.54-2.81,0.54-4.85c0-2.05-0.18-3.62-0.54-4.72c-0.36-1.1-0.87-1.95-1.52-2.57
				s-1.48-1.03-2.48-1.25c-0.75-0.17-2.21-0.25-4.39-0.25H182.88z"/>
			<path class="st0" d="M228.2,65.59h-5.82l-2.31-6.02h-10.6l-2.19,6.02h-5.68l10.32-26.51h5.66L228.2,65.59z M218.34,55.1
				l-3.65-9.84l-3.58,9.84H218.34z"/>
			<path class="st0" d="M234.25,65.59V43.57h-7.87v-4.48h21.07v4.48h-7.85v22.02H234.25z"/>
			<path class="st0" d="M249.15,52.5c0-2.7,0.4-4.97,1.21-6.8c0.6-1.35,1.43-2.56,2.47-3.63c1.04-1.07,2.18-1.87,3.43-2.39
				c1.65-0.7,3.56-1.05,5.71-1.05c3.91,0,7.03,1.21,9.38,3.63s3.52,5.79,3.52,10.11c0,4.28-1.16,7.63-3.49,10.04
				c-2.33,2.42-5.44,3.63-9.33,3.63c-3.94,0-7.08-1.2-9.4-3.61C250.32,60.03,249.15,56.72,249.15,52.5z M254.67,52.32
				c0,3,0.69,5.28,2.08,6.83c1.39,1.55,3.15,2.32,5.28,2.32s3.88-0.77,5.25-2.31c1.37-1.54,2.05-3.84,2.05-6.92
				c0-3.04-0.67-5.3-2-6.8c-1.33-1.49-3.1-2.24-5.31-2.24s-3.98,0.76-5.33,2.27C255.34,46.99,254.67,49.27,254.67,52.32z"/>
			<path class="st0" d="M277.68,56.97l5.21-0.51c0.31,1.75,0.95,3.03,1.91,3.85s2.25,1.23,3.88,1.23c1.72,0,3.02-0.36,3.9-1.09
				s1.31-1.58,1.31-2.56c0-0.63-0.18-1.16-0.55-1.6c-0.37-0.44-1.01-0.82-1.93-1.15c-0.63-0.22-2.06-0.6-4.29-1.16
				c-2.87-0.71-4.88-1.58-6.04-2.62c-1.63-1.46-2.44-3.24-2.44-5.33c0-1.35,0.38-2.61,1.15-3.79s1.87-2.07,3.31-2.69
				s3.18-0.92,5.22-0.92c3.33,0,5.83,0.73,7.51,2.19c1.68,1.46,2.56,3.41,2.65,5.84l-5.35,0.23c-0.23-1.36-0.72-2.34-1.47-2.94
				c-0.75-0.6-1.88-0.9-3.39-0.9c-1.55,0-2.77,0.32-3.65,0.96c-0.57,0.41-0.85,0.96-0.85,1.65c0,0.63,0.26,1.16,0.8,1.61
				c0.67,0.57,2.31,1.16,4.92,1.77c2.6,0.61,4.53,1.25,5.78,1.91c1.25,0.66,2.22,1.56,2.93,2.69s1.06,2.55,1.06,4.22
				c0,1.52-0.42,2.94-1.27,4.27c-0.84,1.33-2.04,2.31-3.58,2.96c-1.54,0.64-3.47,0.97-5.77,0.97c-3.35,0-5.92-0.77-7.72-2.32
				C279.11,62.19,278.03,59.93,277.68,56.97z"/>
			<path class="st0" d="M201.45,110.03h-5.82l-2.31-6.02h-10.6l-2.19,6.02h-5.68l10.32-26.51h5.66L201.45,110.03z M191.6,99.54
				l-3.65-9.84l-3.58,9.84H191.6z"/>
			<path class="st0" d="M204.31,83.52h10.6c2.1,0,3.66,0.09,4.69,0.26c1.03,0.18,1.95,0.54,2.77,1.09c0.81,0.55,1.49,1.29,2.03,2.21
				c0.54,0.92,0.81,1.96,0.81,3.1c0,1.24-0.33,2.38-1,3.42s-1.58,1.81-2.72,2.33c1.62,0.47,2.86,1.27,3.73,2.4
				c0.87,1.13,1.3,2.47,1.3,4c0,1.21-0.28,2.38-0.84,3.52s-1.33,2.05-2.3,2.73c-0.97,0.68-2.17,1.1-3.59,1.26
				c-0.89,0.1-3.04,0.16-6.46,0.18h-9.02V83.52z M209.66,87.93v6.13h3.51c2.09,0,3.38-0.03,3.89-0.09c0.92-0.11,1.64-0.42,2.16-0.95
				s0.79-1.21,0.79-2.07c0-0.82-0.23-1.49-0.68-2c-0.45-0.51-1.12-0.82-2.02-0.93c-0.53-0.06-2.06-0.09-4.57-0.09H209.66z
				 M209.66,98.47v7.09h4.95c1.93,0,3.15-0.05,3.67-0.16c0.8-0.14,1.44-0.5,1.94-1.06c0.5-0.56,0.75-1.31,0.75-2.25
				c0-0.8-0.19-1.47-0.58-2.02c-0.39-0.55-0.94-0.96-1.67-1.21c-0.73-0.25-2.31-0.38-4.75-0.38H209.66z"/>
			<path class="st0" d="M230.87,110.03V83.52h5.35v26.51H230.87z"/>
			<path class="st0" d="M241.32,110.03V83.52h19.65v4.48h-14.3v5.88h13.31v4.47h-13.31v7.21h14.81v4.47H241.32z"/>
			<path class="st0" d="M266.04,110.03V83.52h11.26c2.83,0,4.89,0.24,6.17,0.71c1.28,0.48,2.31,1.32,3.08,2.54
				c0.77,1.22,1.16,2.61,1.16,4.18c0,1.99-0.58,3.63-1.75,4.93c-1.17,1.3-2.92,2.11-5.24,2.45c1.16,0.68,2.11,1.42,2.87,2.22
				s1.77,2.24,3.05,4.3l3.24,5.17h-6.4l-3.87-5.77c-1.37-2.06-2.31-3.36-2.82-3.9c-0.51-0.54-1.04-0.9-1.61-1.1s-1.46-0.3-2.69-0.3
				h-1.08v11.07H266.04z M271.39,94.73h3.96c2.57,0,4.17-0.11,4.81-0.33c0.64-0.22,1.14-0.59,1.5-1.12
				c0.36-0.53,0.54-1.19,0.54-1.99c0-0.89-0.24-1.61-0.71-2.16c-0.48-0.55-1.15-0.9-2.02-1.04c-0.43-0.06-1.74-0.09-3.91-0.09h-4.18
				V94.73z"/>
			<path class="st0" d="M298.73,110.03V88.01h-7.87v-4.48h21.07v4.48h-7.85v22.02H298.73z"/>
			<path class="st0" d="M313.63,96.94c0-2.7,0.4-4.97,1.21-6.8c0.6-1.35,1.42-2.56,2.47-3.63s2.18-1.87,3.43-2.39
				c1.65-0.7,3.56-1.05,5.71-1.05c3.91,0,7.03,1.21,9.38,3.63c2.34,2.42,3.52,5.79,3.52,10.11c0,4.28-1.16,7.63-3.49,10.04
				c-2.33,2.42-5.44,3.63-9.33,3.63c-3.94,0-7.08-1.2-9.4-3.61C314.79,104.47,313.63,101.16,313.63,96.94z M319.15,96.76
				c0,3,0.69,5.28,2.08,6.83c1.39,1.55,3.15,2.32,5.28,2.32s3.88-0.77,5.25-2.31c1.37-1.54,2.05-3.84,2.05-6.92
				c0-3.04-0.67-5.3-2-6.8c-1.33-1.49-3.1-2.24-5.31-2.24s-3.98,0.76-5.33,2.27C319.82,91.43,319.15,93.71,319.15,96.76z"/>
			<path class="st0" d="M342.16,101.4l5.21-0.51c0.31,1.75,0.95,3.03,1.91,3.85s2.25,1.23,3.88,1.23c1.72,0,3.02-0.36,3.9-1.09
				c0.87-0.73,1.31-1.58,1.31-2.56c0-0.63-0.18-1.16-0.55-1.6c-0.37-0.44-1.01-0.82-1.93-1.15c-0.63-0.22-2.05-0.6-4.29-1.16
				c-2.87-0.71-4.88-1.58-6.04-2.62c-1.63-1.46-2.44-3.24-2.44-5.33c0-1.35,0.38-2.61,1.15-3.79s1.87-2.07,3.31-2.69
				c1.44-0.61,3.18-0.92,5.22-0.92c3.33,0,5.83,0.73,7.51,2.19c1.68,1.46,2.56,3.41,2.65,5.84l-5.35,0.23
				c-0.23-1.36-0.72-2.34-1.47-2.94c-0.75-0.6-1.88-0.9-3.39-0.9c-1.56,0-2.77,0.32-3.65,0.96c-0.57,0.41-0.85,0.96-0.85,1.65
				c0,0.63,0.27,1.16,0.8,1.61c0.67,0.57,2.31,1.16,4.92,1.77s4.53,1.25,5.78,1.91c1.25,0.66,2.22,1.56,2.93,2.69
				c0.71,1.14,1.06,2.55,1.06,4.22c0,1.52-0.42,2.94-1.27,4.27c-0.84,1.33-2.04,2.31-3.58,2.96c-1.54,0.64-3.46,0.97-5.77,0.97
				c-3.35,0-5.92-0.77-7.72-2.32C343.59,106.63,342.51,104.37,342.16,101.4z"/>
		</g>
	</g>
	<g>
		<g>
			<g>
				<path class="st1" d="M60.83,112.84c0-11.27,0.03-21.09,0-31.67c-3.81,0-7.63,0.46-11.47,0.29c-0.04,10.79,0,20.93,0,31.42
					C53.19,112.87,57.01,112.84,60.83,112.84z"/>
				<path class="st1" d="M49.36,113.46c-0.32,0-0.58-0.26-0.58-0.58c0-3.5,0-6.96-0.01-10.41c-0.01-6.79-0.02-13.82,0.01-21.01
					c0-0.16,0.07-0.31,0.18-0.42c0.11-0.11,0.27-0.17,0.43-0.16c2.19,0.1,4.42-0.02,6.58-0.13c1.59-0.08,3.24-0.16,4.86-0.16
					c0.32,0,0.58,0.26,0.58,0.58c0.02,6.98,0.01,13.58,0.01,20.57c0,3.59-0.01,7.26-0.01,11.1c0,0.32-0.26,0.58-0.58,0.58
					c-1.9,0-3.81,0.01-5.72,0.02C53.19,113.45,51.28,113.46,49.36,113.46z M49.94,82.06c-0.02,6.98-0.01,13.8-0.01,20.4
					c0,3.27,0.01,6.53,0.01,9.83c1.72,0,3.44-0.01,5.16-0.02c1.71-0.01,3.43-0.02,5.14-0.02c0-3.63,0-7.11,0.01-10.52
					c0.01-6.79,0.01-13.22-0.01-19.98c-1.41,0.02-2.83,0.09-4.22,0.16C54.03,82.01,51.98,82.12,49.94,82.06z"/>
			</g>
		</g>
		<g>
			<g>
				<path class="st1" d="M83.83,112.8c0-20.93,0.03-39.16,0-58.81c-3.81,0-7.63,0.85-11.47,0.54c-0.04,20.03,0,38.87,0,58.34
					C76.19,112.87,80.01,112.8,83.83,112.8z"/>
				<path class="st1" d="M72.36,113.46c-0.32,0-0.58-0.26-0.58-0.58c0-6.49,0-12.92-0.01-19.34c-0.01-12.61-0.02-25.66,0.01-39
					c0-0.16,0.07-0.32,0.19-0.43c0.12-0.11,0.28-0.16,0.44-0.15c2.17,0.17,4.39-0.03,6.53-0.24c1.6-0.15,3.25-0.31,4.89-0.31
					c0.32,0,0.58,0.26,0.58,0.58c0.02,12.96,0.01,25.22,0.01,38.2c0,6.67-0.01,13.49-0.01,20.62c0,0.32-0.26,0.58-0.58,0.58
					c-1.9,0-3.84,0.02-5.72,0.03C76.23,113.44,74.28,113.46,72.36,113.46z M72.94,55.16c-0.02,13.13-0.01,25.96-0.01,38.38
					c0,6.23,0.01,12.46,0.01,18.75c1.73,0,3.47-0.02,5.16-0.03c1.69-0.02,3.42-0.03,5.14-0.03c0-6.92,0-13.55,0.01-20.03
					c0.01-12.78,0.01-24.87-0.01-37.61c-1.39,0.03-2.81,0.17-4.19,0.3C77.06,55.06,75,55.26,72.94,55.16z"/>
			</g>
		</g>
		<g>
			<g>
				<path class="st1" d="M109.85,112.85c0-6.12,0.03-11.46,0-17.21c-3.81,0-7.63,0.25-11.47,0.16c-0.04,5.86,0,11.37,0,17.07
					C102.22,112.87,106.04,112.85,109.85,112.85z"/>
				<path class="st1" d="M98.39,113.46c-0.32,0-0.58-0.26-0.58-0.58c0-1.9,0-3.78-0.01-5.66c-0.01-3.69-0.02-7.51,0.01-11.41
					c0-0.16,0.07-0.31,0.18-0.42c0.11-0.11,0.27-0.16,0.42-0.17c2.2,0.05,4.44-0.01,6.61-0.07c1.59-0.04,3.23-0.09,4.85-0.09
					c0.32,0,0.58,0.26,0.58,0.58c0.02,3.79,0.01,7.38,0.01,11.18c0,1.95-0.01,3.94-0.01,6.03c0,0.32-0.26,0.58-0.58,0.58
					c-1.9,0-3.81,0-5.72,0.01C102.22,113.45,100.3,113.46,98.39,113.46z M98.97,96.4c-0.02,3.7-0.01,7.31,0,10.81
					c0,1.69,0.01,3.37,0.01,5.07c1.72,0,3.44-0.01,5.16-0.01c1.71,0,3.43-0.01,5.14-0.01c0-1.88,0-3.68,0.01-5.45
					c0.01-3.6,0.01-7.01,0-10.59c-1.41,0.01-2.84,0.05-4.23,0.09C103.05,96.38,101,96.43,98.97,96.4z"/>
			</g>
		</g>
		<g>
			<g>
				<path class="st1" d="M132.36,83.61c4.08,4.02,8.17,8.03,12.25,12.05c2.16,2.12,4.32,4.25,6.67,6.09
					c1.27,0.99,2.68,1.93,4.22,1.93c1.54,0,3.18-1.3,3.17-3.04c-0.01-1.36-0.95-2.45-1.83-3.38c-6.5-6.86-13.29-13.36-20.35-19.47
					C135.19,79.68,133.9,81.58,132.36,83.61z"/>
				<path class="st1" d="M155.49,104.27C155.49,104.27,155.49,104.27,155.49,104.27c-1.72,0-3.22-0.99-4.58-2.06
					c-2.38-1.86-4.58-4.03-6.72-6.13l-12.25-12.05c-0.21-0.21-0.23-0.54-0.06-0.77c1.53-2.02,2.84-3.94,4.1-5.79
					c0.09-0.14,0.25-0.23,0.41-0.26c0.17-0.02,0.33,0.02,0.46,0.13c7.04,6.1,13.9,12.67,20.39,19.51c0.96,1.01,1.98,2.21,1.99,3.78
					c0.01,0.91-0.36,1.79-1.04,2.47C157.48,103.83,156.47,104.27,155.49,104.27z M133.13,83.55l11.88,11.69
					c2.11,2.08,4.29,4.22,6.62,6.04c1.2,0.94,2.49,1.81,3.86,1.81c0,0,0,0,0,0c0.67,0,1.37-0.31,1.88-0.82
					c0.46-0.46,0.71-1.04,0.7-1.64c-0.01-1.14-0.83-2.1-1.67-2.98c-6.31-6.66-12.97-13.05-19.81-19
					C135.52,80.24,134.4,81.86,133.13,83.55z"/>
			</g>
		</g>
		<g>
			<g>
				<path class="st1" d="M116.42,39.2c-14.06,0-25.46,11.4-25.46,25.46c0,14.06,11.4,25.46,25.46,25.46s25.46-11.4,25.46-25.46
					C141.89,50.6,130.49,39.2,116.42,39.2z M116.42,84c-10.68,0-19.34-8.66-19.34-19.34s8.66-19.34,19.34-19.34
					s19.34,8.66,19.34,19.34S127.1,84,116.42,84z"/>
				<path class="st1" d="M116.42,90.7c-14.36,0-26.05-11.68-26.05-26.05s11.68-26.05,26.05-26.05s26.05,11.68,26.05,26.05
					S130.79,90.7,116.42,90.7z M116.42,39.78c-13.72,0-24.88,11.16-24.88,24.88s11.16,24.88,24.88,24.88
					c13.72,0,24.88-11.16,24.88-24.88S130.14,39.78,116.42,39.78z M116.42,84.58c-10.99,0-19.92-8.94-19.92-19.92
					c0-10.99,8.94-19.92,19.92-19.92c10.99,0,19.92,8.94,19.92,19.92C136.35,75.64,127.41,84.58,116.42,84.58z M97.67,64.66
					c0,10.34,8.41,18.75,18.75,18.75c10.34,0,18.75-8.41,18.75-18.75s-8.41-18.75-18.75-18.75C106.08,45.9,97.67,54.32,97.67,64.66z
					"/>
			</g>
		</g>
	</g>
</g>
</svg>
