<?xml version="1.0" encoding="utf-8"?>
<!-- Generator: Adobe Illustrator 21.0.0, SVG Export Plug-In . SVG Version: 6.00 Build 0)  -->
<svg version="1.1" id="Capa_1" xmlns="http://www.w3.org/2000/svg" xmlns:xlink="http://www.w3.org/1999/xlink" x="0px" y="0px"
	 viewBox="0 0 51.8 66.8" style="enable-background:new 0 0 51.8 66.8;" xml:space="preserve">
<g>
	<path d="M51.2,14L37.8,0.6c-0.4-0.4-1-0.6-1.5-0.6H2.8C1.5,0,0,1.1,0,3.4v61.1c0,1,1,1.9,2.1,2.2c0.1,0,0.1,0,0.2,0.1
		c0.2,0,0.4,0.1,0.5,0.1H49c0.2,0,0.4,0,0.5-0.1c0.1,0,0.1,0,0.2-0.1c1.1-0.3,2.1-1.2,2.1-2.2V16.1C51.8,15.2,51.7,14.6,51.2,14
		L51.2,14z M47.7,13.8H38V4.1L47.7,13.8z M2.8,64.5c-0.1,0-0.2,0-0.2-0.1c-0.2-0.1-0.3-0.3-0.3-0.5V47.2h47.2v16.7
		c0,0.2-0.1,0.4-0.3,0.5c-0.1,0-0.1,0.1-0.2,0.1H2.8z M2.3,44.9V3.4c0-0.2,0-1.1,0.5-1.1h32.9c0,0.1-0.1,0.3-0.1,0.4v13.4H49
		c0.2,0,0.3,0,0.4-0.1c0,0,0,0,0,0v28.8H2.3z M2.3,44.9"/>
	<path d="M17.9,51.5c-0.4-0.3-0.8-0.6-1.3-0.7c-0.5-0.2-1-0.2-1.5-0.2h-3.3v11.6h1.9V58h1.4c0.6,0,1.2-0.1,1.7-0.3
		c0.5-0.2,0.9-0.4,1.3-0.8c0.4-0.3,0.6-0.7,0.8-1.2c0.2-0.5,0.3-1,0.3-1.6c0-0.6-0.1-1.1-0.4-1.5C18.6,52.2,18.3,51.8,17.9,51.5
		L17.9,51.5z M17.2,55.3c-0.1,0.3-0.3,0.6-0.5,0.7c-0.2,0.2-0.4,0.3-0.6,0.4c-0.2,0.1-0.5,0.1-0.7,0.1h-1.7V52h1.4
		c0.5,0,0.9,0.1,1.2,0.2c0.3,0.2,0.5,0.3,0.7,0.6c0.2,0.2,0.3,0.5,0.3,0.7c0.1,0.2,0.1,0.5,0.1,0.7C17.3,54.6,17.3,55,17.2,55.3
		L17.2,55.3z M17.2,55.3"/>
	<path d="M29.3,52.3c-0.5-0.5-1.1-0.9-1.8-1.2c-0.7-0.3-1.6-0.5-2.6-0.5h-3.5v11.6h4.4c0.1,0,0.4,0,0.7-0.1c0.3,0,0.6-0.1,1-0.2
		c0.4-0.1,0.7-0.3,1.1-0.6c0.4-0.3,0.7-0.6,1.1-1.1c0.3-0.5,0.6-1,0.8-1.7c0.2-0.7,0.3-1.5,0.3-2.4c0-0.7-0.1-1.4-0.4-2
		C30.2,53.4,29.8,52.8,29.3,52.3L29.3,52.3z M27.9,59.5c-0.6,0.8-1.5,1.2-2.8,1.2h-1.9V52h1.1c0.9,0,1.6,0.1,2.2,0.4
		c0.6,0.2,1,0.5,1.3,0.9c0.3,0.4,0.6,0.8,0.7,1.3c0.1,0.5,0.2,0.9,0.2,1.4C28.8,57.5,28.5,58.7,27.9,59.5L27.9,59.5z M27.9,59.5"/>
	<path d="M33.5,62.2h1.9v-5.2h4.8v-1.3h-4.8V52h5.3v-1.4h-7.3V62.2z M33.5,62.2"/>
	<path d="M36.7,26.4c-1.1,0-2.4,0.1-3.9,0.4c-2.1-2.2-4.3-5.5-5.9-8.7c1.5-6.5,0.8-7.4,0.4-7.8c-0.4-0.5-0.9-1.2-1.5-1.2
		c-0.2,0-0.9,0.1-1.2,0.2c-0.7,0.2-1,0.7-1.3,1.4c-0.8,1.9,0.3,5.1,1.5,7.6c-1,3.9-2.6,8.6-4.4,12.4c-4.4,2-6.7,4-6.9,5.8
		c-0.1,0.7,0.1,1.7,1.3,2.6c0.3,0.2,0.7,0.4,1.1,0.4c1,0,2-0.8,3.2-2.4c0.9-1.2,1.8-2.9,2.7-4.9c3.1-1.3,6.9-2.6,10.2-3.2
		c1.8,1.7,3.4,2.6,4.8,2.6c1,0,1.9-0.5,2.6-1.4c0.7-0.9,0.8-1.8,0.4-2.5C39.6,26.8,38.6,26.4,36.7,26.4L36.7,26.4z M16.2,37.6
		c-0.5-0.4-0.5-0.7-0.5-0.8c0.1-0.6,1.1-1.8,3.5-3.2C17.3,37.1,16.3,37.5,16.2,37.6L16.2,37.6z M25.6,11.2c0.1,0,1.2,1.3,0.1,3.7
		C24.1,13.2,25.5,11.2,25.6,11.2L25.6,11.2z M23.2,29.6c1.2-2.8,2.3-5.9,3.1-8.7c1.3,2.3,2.9,4.6,4.4,6.4
		C28.2,27.9,25.6,28.7,23.2,29.6L23.2,29.6z M38.1,29.1c-0.4,0.5-1.1,0.5-1.4,0.5c-0.6,0-0.8-0.4-1.8-1.1c0.8-0.1,1.5-0.1,2.1-0.1
		c1,0,1.2,0.2,1.4,0.2C38.3,28.7,38.2,28.8,38.1,29.1L38.1,29.1z M38.1,29.1"/>
</g>
</svg>
