<svg width="294" height="117" viewBox="0 0 294 117" fill="none" xmlns="http://www.w3.org/2000/svg">
<path d="M76.1407 33.2403H275.075C276.542 33.2403 278.596 33.6796 280.21 35.2904C282.85 38.0726 294 55.2052 294 57.841C294 60.4768 282.85 77.4631 280.21 80.3917C278.596 82.0025 276.542 82.2954 275.075 82.2954H76.1407V33.2403Z" fill="#6F6F6E"/>
<path d="M82.3024 33.2403C79.515 33.2403 77.6078 33.2403 77.6078 33.2403V82.4418H82.3024V33.2403Z" fill="#666666"/>
<path d="M80.2485 0V86.2491C80.2485 88.592 79.6617 91.9599 76.8743 94.5957C72.1796 98.9887 44.5988 117 40.1976 117H40.0509C40.0509 117 40.0509 117 39.9042 117C35.503 117 7.77545 98.9887 3.22755 94.5957C0.44012 91.9599 0 88.592 0 86.2491V0H80.2485Z" fill="#AE2517"/>
<path d="M6.74847 88.0063H7.3353V88.1527C7.3353 88.2991 7.3353 88.4456 7.3353 88.4456L7.48201 88.592C7.62871 88.592 7.62871 88.592 7.62871 88.4456C7.62871 88.4456 7.62871 88.2991 7.62871 88.0063V86.3955H8.21554V88.0063C8.21554 88.2991 8.21554 88.592 8.06883 88.7384C7.92213 88.8849 7.62871 89.0313 7.3353 89.0313C7.04189 89.0313 6.74847 88.8849 6.74847 88.7384C6.89518 88.7384 6.74847 88.4456 6.74847 88.0063C6.74847 88.1527 6.74847 88.0063 6.74847 88.0063Z" fill="white"/>
<path d="M8.9491 86.5419H9.53592V88.1527C9.53592 88.2991 9.53592 88.4456 9.68263 88.592C9.68263 88.592 9.82934 88.7384 9.97604 88.7384C10.1227 88.7384 10.2695 88.7384 10.2695 88.592C10.2695 88.4456 10.4162 88.4456 10.4162 88.1527V86.5419H11.003V88.0063C11.003 88.1527 11.003 88.4456 11.003 88.4456C11.003 88.592 10.8563 88.7384 10.8563 88.7384C10.7096 88.8849 10.5629 88.8849 10.5629 88.8849C10.4162 88.8849 10.2695 88.8849 10.1227 88.8849C9.97604 88.8849 9.82934 88.8849 9.68263 88.8849C9.53592 88.8849 9.38922 88.7384 9.38922 88.7384C9.24251 88.592 9.24251 88.592 9.24251 88.4456C9.24251 88.2991 9.24251 88.1527 9.24251 88.0063V86.5419H8.9491Z" fill="white"/>
<path d="M11.5898 89.0313V86.5419H12.7634C13.0568 86.5419 13.3503 86.5419 13.497 86.6884C13.6437 86.8348 13.7904 86.9812 13.7904 87.2741C13.7904 87.4205 13.7904 87.567 13.6437 87.567C13.6437 87.7134 13.497 87.7134 13.3503 87.8598C13.497 87.8598 13.497 88.0063 13.6437 88.0063C13.6437 88.0063 13.6437 88.1527 13.7904 88.4456V88.592C13.7904 88.7384 13.7904 88.8849 13.9371 88.8849V89.0313H13.2036C13.2036 88.8849 13.2036 88.8849 13.2036 88.592C13.2036 88.4456 13.2036 88.2991 13.2036 88.2991C13.2036 88.1527 13.2036 88.1527 13.0568 88.1527C13.0568 88.1527 12.9101 88.1527 12.7634 88.1527H12.3233V89.0313H11.5898ZM12.3233 87.567H12.7634C12.9101 87.567 13.0568 87.567 13.0568 87.567C13.0568 87.567 13.2036 87.4205 13.2036 87.2741C13.2036 87.1277 13.2036 87.1277 13.0568 87.1277C13.0568 87.1277 12.9101 87.1277 12.7634 87.1277H12.3233V87.567Z" fill="white"/>
<path d="M14.964 86.5419H15.6976L16.5778 89.0313H15.8443L15.6976 88.592H14.8173L14.6706 89.0313H14.0838L14.964 86.5419ZM14.964 88.0063H15.5509L15.2575 87.1277L14.964 88.0063Z" fill="white"/>
<path d="M16.8712 89.0313V86.5419H17.8982C18.3383 86.5419 18.6317 86.6884 18.7784 86.8348C18.9251 86.9812 19.0718 87.4205 19.0718 87.7134C19.0718 88.1527 18.9251 88.4456 18.7784 88.592C18.6317 88.7384 18.1916 88.8849 17.8982 88.8849H16.8712V89.0313ZM17.458 88.4456H17.7515C17.8982 88.4456 18.0449 88.4456 18.1916 88.2991C18.3383 88.1527 18.3383 88.0063 18.3383 87.7134C18.3383 87.4205 18.3383 87.2741 18.1916 87.1277C18.0449 86.9812 17.8982 86.9812 17.7515 86.9812H17.458V88.4456Z" fill="white"/>
<path d="M19.3652 87.7134C19.3652 87.2741 19.5119 86.9812 19.6586 86.6884C19.9521 86.3955 20.2455 86.3955 20.5389 86.3955C20.979 86.3955 21.2724 86.5419 21.4191 86.6884C21.7125 86.9812 21.7125 87.2741 21.7125 87.7134C21.7125 88.1527 21.5658 88.4456 21.4191 88.7384C21.1257 89.0313 20.8323 89.0313 20.5389 89.0313C20.0988 89.0313 19.8054 88.8849 19.6586 88.7384C19.5119 88.4456 19.3652 88.1527 19.3652 87.7134ZM20.0988 87.7134C20.0988 88.0063 20.0988 88.1527 20.2455 88.2991C20.3922 88.4456 20.5389 88.4456 20.6856 88.4456C20.8323 88.4456 20.979 88.4456 21.1257 88.2991C21.2724 88.1527 21.2724 88.0063 21.2724 87.7134C21.2724 87.4205 21.2724 87.2741 21.1257 87.1277C20.979 86.9812 20.8323 86.9812 20.6856 86.9812C20.5389 86.9812 20.3922 86.9812 20.2455 87.1277C20.0988 87.2741 20.0988 87.567 20.0988 87.7134Z" fill="white"/>
<path d="M23.3263 89.0313V86.5419H24.0598L24.4999 87.4205C24.6467 87.567 24.6467 87.7134 24.7934 87.8598C24.7934 88.0063 24.9401 88.1527 24.9401 88.2991C24.9401 88.1527 24.9401 87.8598 24.9401 87.7134C24.9401 87.567 24.9401 87.4205 24.9401 87.2741V86.6884H25.5269V89.1777H24.9401L24.4999 88.2991C24.4999 88.1527 24.3532 88.1527 24.3532 88.0063C24.3532 87.8598 24.2065 87.7134 24.0598 87.567C24.0598 87.7134 24.0598 87.8598 24.0598 88.0063C24.0598 88.1527 24.0598 88.2991 24.0598 88.4456V89.1777H23.3263V89.0313Z" fill="white"/>
<path d="M26.8473 86.5419H27.5808L28.461 89.0313H27.7275L27.5808 88.592H26.7006L26.5538 89.0313H25.8203L26.8473 86.5419ZM26.8473 88.0063H27.4341L27.1407 87.1277L26.8473 88.0063Z" fill="white"/>
<path d="M30.9551 88.1527C30.9551 88.4456 30.8083 88.7384 30.6616 88.8849C30.5149 89.0313 30.2215 89.1777 29.9281 89.1777C29.488 89.1777 29.1946 89.0313 29.0479 88.8849C28.7545 88.592 28.7545 88.2991 28.7545 88.0063C28.7545 87.567 28.9012 87.2741 29.0479 86.9812C29.3413 86.6884 29.6347 86.6884 29.9281 86.6884C30.2215 86.6884 30.5149 86.8348 30.6616 86.9812C30.8083 87.1277 30.9551 87.4205 30.9551 87.567H30.3682C30.3682 87.4205 30.2215 87.4205 30.2215 87.2741C30.0748 87.2741 30.0748 87.1277 29.9281 87.1277C29.7814 87.1277 29.6347 87.1277 29.488 87.2741C29.3413 87.4205 29.3413 87.567 29.3413 87.8598C29.3413 88.1527 29.3413 88.2991 29.488 88.4456C29.6347 88.592 29.7814 88.592 29.9281 88.592C30.0748 88.592 30.2215 88.592 30.2215 88.4456C30.3682 88.4456 30.3682 88.2991 30.3682 88.1527H30.9551Z" fill="white"/>
<path d="M31.982 86.5419H31.3952V89.0313H31.982V86.5419Z" fill="white"/>
<path d="M32.4221 87.7134C32.4221 87.2741 32.5688 86.9812 32.7155 86.6884C33.0089 86.3955 33.3024 86.3955 33.5958 86.3955C34.0359 86.3955 34.3293 86.5419 34.476 86.6884C34.7694 86.9812 34.7694 87.2741 34.7694 87.7134C34.7694 88.1527 34.6227 88.4456 34.476 88.7384C34.1826 89.0313 33.8892 89.0313 33.5958 89.0313C33.1557 89.0313 32.8622 88.8849 32.7155 88.7384C32.5688 88.4456 32.4221 88.1527 32.4221 87.7134ZM33.0089 87.7134C33.0089 88.0063 33.0089 88.1527 33.1557 88.2991C33.3024 88.4456 33.4491 88.4456 33.5958 88.4456C33.7425 88.4456 33.8892 88.4456 34.0359 88.2991C34.1826 88.1527 34.1826 88.0063 34.1826 87.7134C34.1826 87.4205 34.1826 87.2741 34.0359 87.1277C33.8892 86.9812 33.7425 86.9812 33.5958 86.9812C33.4491 86.9812 33.3024 86.9812 33.1557 87.1277C33.1557 87.2741 33.0089 87.567 33.0089 87.7134Z" fill="white"/>
<path d="M35.3563 89.0313V86.5419H36.0898L36.5299 87.4205C36.6766 87.567 36.6766 87.7134 36.8233 87.8598C36.8233 88.0063 36.97 88.1527 36.97 88.2991C36.97 88.1527 36.97 87.8598 36.97 87.7134C36.97 87.567 36.97 87.4205 36.97 87.2741V86.6884H37.5569V89.1777H36.8233L36.3832 88.2991C36.3832 88.1527 36.2365 88.1527 36.2365 88.0063C36.2365 87.8598 36.0898 87.7134 35.9431 87.567C35.9431 87.7134 35.9431 87.8598 35.9431 88.0063C35.9431 88.1527 35.9431 88.2991 35.9431 88.4456V89.1777H35.3563V89.0313Z" fill="white"/>
<path d="M38.7305 86.5419H39.464L40.3443 89.0313H39.6107L39.464 88.592H38.5838L38.4371 89.0313H37.7036L38.7305 86.5419ZM38.8772 88.0063H39.464L39.1706 87.1277L38.8772 88.0063Z" fill="white"/>
<path d="M40.6377 89.0313V86.5419H41.3712V88.4456H42.5449V89.0313H40.6377Z" fill="white"/>
<path d="M43.8652 89.0313V86.5419H44.8922C45.3323 86.5419 45.6257 86.6884 45.7724 86.8348C45.9191 86.9812 46.0658 87.4205 46.0658 87.7134C46.0658 88.1527 45.9191 88.4456 45.7724 88.592C45.6257 88.7384 45.1856 88.8849 44.8922 88.8849H43.8652V89.0313ZM44.5988 88.4456H44.8922C45.0389 88.4456 45.1856 88.4456 45.3323 88.2991C45.479 88.1527 45.479 88.0063 45.479 87.7134C45.479 87.4205 45.479 87.2741 45.3323 87.1277C45.1856 86.9812 45.0389 86.9812 44.8922 86.9812H44.5988V88.4456Z" fill="white"/>
<path d="M46.506 89.0313V86.5419H48.5599V86.9812H47.2395V87.4205H48.4132V88.0063H47.2395V88.592H48.5599V89.0313H46.506Z" fill="white"/>
<path d="M50.0269 89.0313V86.5419H51.9341V86.9812H50.6137V87.4205H51.7874V88.0063H50.6137V88.592H51.9341V89.0313H50.0269Z" fill="white"/>
<path d="M52.3742 89.0313V86.5419H52.961V88.4456H54.2814V89.0313H52.3742Z" fill="white"/>
<path d="M54.5748 89.0313V86.5419H56.482V86.9812H55.1617V87.4205H56.3353V88.0063H55.1617V88.592H56.482V89.0313H54.5748Z" fill="white"/>
<path d="M59.1227 88.1527C59.1227 88.4456 58.976 88.7384 58.8293 88.8849C58.6826 89.0313 58.3892 89.1777 58.0958 89.1777C57.6556 89.1777 57.3622 89.0313 57.2155 88.8849C56.9221 88.592 56.9221 88.2991 56.9221 88.0063C56.9221 87.567 57.0688 87.2741 57.2155 86.9812C57.5089 86.6884 57.8024 86.6884 58.0958 86.6884C58.3892 86.6884 58.6826 86.8348 58.8293 86.9812C58.976 87.1277 59.1227 87.4205 59.1227 87.567H58.5359C58.5359 87.4205 58.3892 87.4205 58.3892 87.2741C58.2425 87.2741 58.2425 87.1277 58.0958 87.1277C57.9491 87.1277 57.8024 87.1277 57.6557 87.2741C57.5089 87.4205 57.5089 87.567 57.5089 87.8598C57.5089 88.1527 57.5089 88.2991 57.6557 88.4456C57.8024 88.592 57.9491 88.592 58.0958 88.592C58.2425 88.592 58.3892 88.592 58.3892 88.4456C58.5359 88.4456 58.5359 88.2991 58.5359 88.1527H59.1227Z" fill="white"/>
<path d="M61.9101 88.1527C61.9101 88.4456 61.7634 88.7384 61.6167 88.8849C61.47 89.0313 61.1766 89.1777 60.8832 89.1777C60.4431 89.1777 60.1497 89.0313 60.0029 88.8849C59.7095 88.592 59.7095 88.2991 59.7095 88.0063C59.7095 87.567 59.8562 87.2741 60.0029 86.9812C60.2964 86.6884 60.5898 86.6884 60.8832 86.6884C61.1766 86.6884 61.47 86.8348 61.6167 86.9812C61.7634 87.1277 61.9101 87.4205 61.9101 87.567H61.3233C61.3233 87.4205 61.1766 87.4205 61.1766 87.2741C61.0299 87.2741 61.0299 87.1277 60.8832 87.1277C60.7365 87.1277 60.5898 87.1277 60.4431 87.2741C60.1497 87.4205 60.1497 87.567 60.1497 87.8598C60.1497 88.1527 60.1497 88.2991 60.2964 88.4456C60.4431 88.592 60.5898 88.592 60.7365 88.592C60.8832 88.592 61.0299 88.592 61.0299 88.4456C61.1766 88.4456 61.1766 88.2991 61.1766 88.1527H61.9101Z" fill="white"/>
<path d="M62.7904 86.5419H62.2036V89.0313H62.7904V86.5419Z" fill="white"/>
<path d="M63.3772 87.7134C63.3772 87.2741 63.5239 86.9812 63.6706 86.6884C63.964 86.3955 64.2574 86.3955 64.5509 86.3955C64.991 86.3955 65.2844 86.5419 65.4311 86.6884C65.7245 86.9812 65.7245 87.2741 65.7245 87.7134C65.7245 88.1527 65.5778 88.4456 65.4311 88.7384C65.1377 89.0313 64.8443 89.0313 64.5509 89.0313C64.1107 89.0313 63.8173 88.8849 63.6706 88.7384C63.3772 88.4456 63.3772 88.1527 63.3772 87.7134ZM63.964 87.7134C63.964 88.0063 63.964 88.1527 64.1107 88.2991C64.2574 88.4456 64.4041 88.4456 64.5509 88.4456C64.6976 88.4456 64.8443 88.4456 64.991 88.2991C65.1377 88.1527 65.1377 88.0063 65.1377 87.7134C65.1377 87.4205 65.1377 87.2741 64.991 87.1277C64.8443 86.9812 64.6976 86.9812 64.5509 86.9812C64.4041 86.9812 64.2574 86.9812 64.1107 87.1277C63.964 87.2741 63.964 87.567 63.964 87.7134Z" fill="white"/>
<path d="M66.3113 89.0313V86.5419H67.0449L67.485 87.4205C67.6317 87.567 67.6317 87.7134 67.7784 87.8598C67.7784 88.0063 67.9251 88.1527 67.9251 88.2991C67.9251 88.1527 67.9251 87.8598 67.9251 87.7134C67.9251 87.567 67.9251 87.4205 67.9251 87.2741V86.6884H68.5119V89.1777H67.7784L67.3383 88.2991C67.3383 88.1527 67.1916 88.1527 67.1916 88.0063C67.1916 87.8598 67.0449 87.7134 66.8982 87.567C66.8982 87.7134 66.8982 87.8598 66.8982 88.0063C66.8982 88.1527 66.8982 88.2991 66.8982 88.4456V89.1777H66.3113V89.0313Z" fill="white"/>
<path d="M68.9521 89.0313V86.5419H71.006V86.9812H69.6856V87.4205H70.8593V88.0063H69.6856V88.592H71.006V89.0313H68.9521Z" fill="white"/>
<path d="M71.2994 88.1527H71.8862C71.8862 88.2991 71.8862 88.4456 72.0329 88.4456C72.1796 88.4456 72.1796 88.592 72.3263 88.592C72.473 88.592 72.6197 88.592 72.6197 88.592C72.7664 88.592 72.7664 88.4456 72.7664 88.4456V88.2991C72.7664 88.2991 72.6197 88.2991 72.473 88.1527C72.3263 88.1527 72.1796 88.0063 72.0329 88.0063C71.8862 88.0063 71.7395 87.8598 71.5928 87.7134C71.4461 87.567 71.4461 87.4205 71.4461 87.2741C71.4461 86.9812 71.5928 86.8348 71.7395 86.6884C71.8862 86.5419 72.1796 86.5419 72.473 86.5419C72.7664 86.5419 73.0599 86.6884 73.2066 86.8348C73.3533 86.9812 73.5 87.1277 73.5 87.4205H72.9131C72.9131 87.2741 72.9131 87.2741 72.7664 87.1277C72.7664 87.1277 72.6197 86.9812 72.473 86.9812C72.3263 86.9812 72.3263 86.9812 72.1796 86.9812L72.0329 87.1277C72.0329 87.2741 72.1796 87.2741 72.473 87.4205H72.6197C72.9131 87.567 73.2066 87.567 73.2066 87.7134C73.3533 87.7134 73.3533 87.8598 73.3533 88.0063C73.3533 88.1527 73.3533 88.1527 73.3533 88.2991C73.3533 88.592 73.2066 88.7384 73.0599 88.8849C72.9131 89.0313 72.6197 89.0313 72.1796 89.0313C71.8862 89.0313 71.5928 88.8849 71.4461 88.7384C71.4461 88.7384 71.2994 88.4456 71.2994 88.1527Z" fill="white"/>
<path fill-rule="evenodd" clip-rule="evenodd" d="M37.7036 62.0876L35.0629 63.9913L35.3563 65.8949L37.5569 66.0413L37.8503 67.0663L39.4641 67.5056L40.0509 67.0663L40.7844 67.7985L43.1317 67.0663L43.4251 64.7234L42.2515 63.8448V61.9412L41.2245 61.5019L39.7575 62.5269L37.7036 62.0876Z" fill="white"/>
<path fill-rule="evenodd" clip-rule="evenodd" d="M30.9551 61.7947L33.4491 62.234L33.7425 62.9662C33.5958 63.4055 33.4491 63.5519 33.1557 63.8448C32.7156 63.9912 31.5419 63.4055 31.3952 62.9662C31.1018 62.6733 30.9551 62.234 30.9551 61.7947Z" fill="white"/>
<path fill-rule="evenodd" clip-rule="evenodd" d="M51.494 82.5882V68.5306H66.4581V71.4593H56.482V73.9487H65.5779V76.7309H56.482V79.6596H66.7515V82.5882H51.494ZM30.515 82.5882V68.5306H35.9431L39.6108 73.2165C40.1976 73.9487 40.7844 74.6808 41.3713 75.413C41.9581 76.1452 42.3982 76.8773 42.8383 77.6095C42.6916 76.5845 42.6916 75.5594 42.6916 74.6808C42.6916 73.8022 42.5449 72.9236 42.5449 72.1915V68.5306H47.3862V82.5882H41.9581L38.1437 77.9024C37.7036 77.3166 37.2635 76.7309 36.6766 75.9987C36.0898 75.2666 35.6497 74.5344 34.9162 73.6558C35.0629 74.5344 35.0629 75.413 35.0629 76.2916C35.0629 77.1702 35.2096 77.7559 35.2096 78.3417V82.5882H30.515ZM13.0569 77.1702H17.7515V78.0488C17.7515 78.781 17.8982 79.2203 18.1916 79.6596C18.485 79.9524 19.0719 80.0989 19.6587 80.0989C20.3922 80.0989 20.979 79.9524 21.2725 79.5131C21.5659 79.0738 21.7126 78.3417 21.7126 77.3166V68.3842H26.7006V77.1702C26.7006 79.2203 26.1138 80.6846 25.0868 81.5632C24.0599 82.4418 22.1527 82.8811 19.8054 82.8811C17.6048 82.8811 15.8443 82.4418 14.8174 81.5632C13.6437 80.6846 13.2036 79.3667 13.2036 77.6095V77.3166V77.1702H13.0569Z" fill="white"/>
<path fill-rule="evenodd" clip-rule="evenodd" d="M40.1975 29.433C45.479 29.433 49.7335 33.5332 49.7335 38.8048C49.7335 43.9299 45.479 48.1765 40.1975 48.1765C35.0628 48.1765 30.6616 43.9299 30.6616 38.8048C30.6616 33.5332 34.9161 29.433 40.1975 29.433Z" fill="white"/>
<path d="M72.9132 84.6383H7.33533V85.224H72.9132V84.6383Z" fill="white"/>
<path fill-rule="evenodd" clip-rule="evenodd" d="M48.2664 58.4268L64.5508 44.3692H69.8323L50.6137 59.8911L48.2664 58.4268Z" fill="white"/>
<path fill-rule="evenodd" clip-rule="evenodd" d="M55.8952 44.3692L48.7066 51.2516L40.3443 50.0801L36.8233 52.2766L35.0629 56.9624L37.7036 56.816L39.7575 54.1802L41.0778 53.8873L47.0928 57.4017L60.8832 44.3692H55.8952Z" fill="white"/>
<path fill-rule="evenodd" clip-rule="evenodd" d="M35.7964 52.7159L34.1826 56.6696L19.9521 44.3692H26.1138L35.7964 52.7159Z" fill="white"/>
<path fill-rule="evenodd" clip-rule="evenodd" d="M40.491 54.7659L37.7036 57.9875L33.7425 58.2803L16.2844 44.3692H11.4431L30.9551 61.0626L33.8892 61.5019L34.1826 62.8198L34.7695 63.2591L37.4102 61.3554L39.7575 61.7947L41.0778 61.0626L42.6916 61.6483V63.4055L44.012 64.577L43.7186 66.9199L45.1856 66.3342L45.3323 65.7484L46.3593 65.4556L46.7994 64.4305L48.2665 63.6984L48.5599 62.5269L49.5868 61.7947L49.8802 60.7697L40.491 54.7659Z" fill="white"/>
<path fill-rule="evenodd" clip-rule="evenodd" d="M33.4491 66.0413H10.7095L17.8982 52.5695L29.0479 61.9412V62.0876V62.234V62.3805V62.5269V62.6733V62.8198V62.9662V63.1126V63.2591L29.1946 63.4055V63.5519L29.3413 63.6984L29.488 63.9912L29.6347 64.2841L29.7814 64.4305L30.0748 64.577L30.2215 64.7234L30.3682 64.8698L30.5149 65.0163L30.6616 65.1627L30.8083 65.3091L31.1018 65.4556L31.3952 65.602L31.6886 65.7484H31.982H32.4221H32.8622L33.4491 66.0413ZM62.9371 52.423L70.1257 65.8949H48.2664L48.4131 65.7484L50.0269 64.8698L50.3203 63.6984L51.3473 62.9662L51.6407 61.5019L62.9371 52.423Z" fill="white"/>
<path d="M108.856 50.9587C107.976 50.0801 106.949 49.3479 105.775 48.9086C104.602 48.4693 103.281 48.1765 101.814 48.1765H94.9192C94.4791 48.1765 94.1857 48.4693 94.1857 48.9086V66.9199C94.1857 67.3592 94.4791 67.6521 94.9192 67.6521H101.814C103.281 67.6521 104.602 67.3592 105.775 66.9199C106.949 66.4806 107.976 65.7484 108.856 64.8698C109.737 63.9912 110.47 62.9662 110.91 61.7947C111.35 60.6233 111.644 59.3054 111.644 57.841C111.644 56.3767 111.35 55.0588 110.91 53.8873C110.323 52.8623 109.737 51.6908 108.856 50.9587ZM101.668 63.5519H98.8803V52.2766H101.668C102.401 52.2766 103.135 52.423 103.722 52.7159C104.308 53.0087 104.895 53.3016 105.189 53.7409C105.629 54.1802 105.922 54.7659 106.216 55.4981C106.509 56.2303 106.509 56.9624 106.509 57.9875C106.509 58.8661 106.362 59.7447 106.216 60.4768C105.922 61.209 105.629 61.7947 105.189 62.234C104.749 62.6733 104.308 63.1126 103.722 63.2591C103.135 63.4055 102.548 63.5519 101.668 63.5519Z" fill="#FFFEFF"/>
<path d="M128.955 48.1765H126.021C125.581 48.1765 125.287 48.4693 125.287 48.9086V59.3054L117.219 49.055C117.072 48.9086 116.925 48.7622 116.925 48.7622C116.779 48.6157 116.632 48.4693 116.485 48.4693C116.338 48.4693 116.192 48.3229 116.045 48.3229C115.898 48.3229 115.752 48.3229 115.605 48.3229H113.844C113.404 48.3229 113.111 48.6157 113.111 49.055V67.0663C113.111 67.5056 113.404 67.7985 113.844 67.7985H116.779C117.219 67.7985 117.512 67.5056 117.512 67.0663V56.6696L125.581 66.9199C125.874 67.2127 126.021 67.5056 126.314 67.5056C126.608 67.652 126.901 67.6521 127.341 67.6521H129.102C129.542 67.6521 129.835 67.3592 129.835 66.9199V48.9086C129.689 48.4693 129.395 48.1765 128.955 48.1765Z" fill="#FFFEFF"/>
<path d="M144.213 48.1765H132.769C132.329 48.1765 132.036 48.4693 132.036 48.9086V66.9199C132.036 67.3592 132.329 67.6521 132.769 67.6521H144.213C144.653 67.6521 144.946 67.3592 144.946 66.9199V64.2841C144.946 63.8448 144.653 63.5519 144.213 63.5519H136.877V59.8911H142.452C142.892 59.8911 143.186 59.5982 143.186 59.1589V56.5231C143.186 56.0838 142.892 55.791 142.452 55.791H136.877V52.2766H144.213C144.653 52.2766 144.946 51.9837 144.946 51.5444V48.9086C144.946 48.4693 144.653 48.1765 144.213 48.1765Z" fill="#FFFEFF"/>
<path d="M158.883 48.1765H147.44C147 48.1765 146.707 48.4693 146.707 48.9086V66.9199C146.707 67.3592 147 67.6521 147.44 67.6521H150.814C151.255 67.6521 151.548 67.3592 151.548 66.9199V60.3304H157.563C158.003 60.3304 158.296 60.0375 158.296 59.5982V56.9624C158.296 56.5231 158.003 56.2303 157.563 56.2303H151.548V52.2766H158.883C159.323 52.2766 159.617 51.9837 159.617 51.5444V48.9086C159.617 48.4693 159.177 48.1765 158.883 48.1765Z" fill="#FFFEFF"/>
<path d="M167.099 50.5194V44.9549C167.099 44.9549 167.099 44.8085 167.246 44.8085H169.153C169.74 44.8085 170.18 44.9549 170.473 45.2478C170.766 45.5407 170.913 45.98 170.913 46.4193V48.9086C170.913 49.3479 170.766 49.7872 170.473 50.0801C170.18 50.373 169.74 50.5194 169.153 50.5194H167.099C167.099 50.6658 167.099 50.6658 167.099 50.5194ZM167.686 50.0801H169.153C169.446 50.0801 169.74 49.9337 170.033 49.7872C170.326 49.6408 170.326 49.3479 170.326 48.9086V46.5657C170.326 46.2728 170.18 45.98 170.033 45.6871C169.886 45.3942 169.593 45.3942 169.153 45.3942H167.686V50.0801Z" fill="#FFFEFF"/>
<path d="M172.087 50.5194V44.9549C172.087 44.9549 172.087 44.8085 172.234 44.8085H172.674C172.674 44.8085 172.82 44.8085 172.82 44.9549V50.5194C172.82 50.5194 172.82 50.6658 172.674 50.6658L172.087 50.5194C172.087 50.6658 172.087 50.6658 172.087 50.5194Z" fill="#FFFEFF"/>
<path d="M177.368 50.5194L176.195 48.03H174.874V50.5194C174.874 50.5194 174.874 50.6658 174.728 50.6658H174.287C174.287 50.6658 174.141 50.6658 174.141 50.5194V44.9549C174.141 44.9549 174.141 44.8085 174.287 44.8085H176.341C176.781 44.8085 177.222 44.9549 177.515 45.2478C177.808 45.5407 177.955 45.98 177.955 46.4193C177.955 46.8586 177.808 47.1514 177.662 47.4443C177.515 47.7372 177.222 47.8836 176.781 48.03L177.955 50.5194H177.368C177.368 50.6658 177.368 50.6658 177.368 50.5194ZM174.728 45.5407V47.5907H176.195C176.488 47.5907 176.781 47.4443 176.928 47.2979C177.075 47.1514 177.222 46.8586 177.222 46.5657C177.222 46.2728 177.075 45.98 176.928 45.8335C176.781 45.6871 176.488 45.5407 176.195 45.5407H174.728C174.728 45.3942 174.728 45.3942 174.728 45.5407Z" fill="#FFFEFF"/>
<path d="M182.65 45.3942H179.716V47.4443H181.769C181.769 47.4443 181.916 47.4443 181.916 47.5907V47.8836C181.916 47.8836 181.916 48.03 181.769 48.03H179.716V50.0801H182.65C182.65 50.0801 182.796 50.0801 182.796 50.2265V50.5194C182.796 50.5194 182.796 50.6658 182.65 50.6658H179.129C179.129 50.6658 178.982 50.6658 178.982 50.5194V44.9549C178.982 44.9549 178.982 44.8085 179.129 44.8085H182.65C182.65 44.8085 182.796 44.8085 182.796 44.9549L182.65 45.3942C182.796 45.3942 182.65 45.3942 182.65 45.3942Z" fill="#FFFEFF"/>
<path d="M184.704 50.5194C184.41 50.373 184.117 50.2265 183.97 49.9337C183.823 49.6408 183.677 49.3479 183.677 49.0551V46.8586C183.677 46.5657 183.823 46.1264 183.97 45.98C184.117 45.6871 184.41 45.5407 184.704 45.3942C184.997 45.2478 185.29 45.1014 185.731 45.1014C186.171 45.1014 186.464 45.1014 186.758 45.3942C187.051 45.5407 187.198 45.6871 187.491 45.98C187.638 46.2728 187.784 46.5657 187.784 46.8586H187.344C187.344 46.8586 187.198 46.8586 187.198 46.7121C187.198 46.2728 187.051 45.98 186.758 45.8335C186.464 45.6871 186.171 45.5407 185.731 45.5407C185.29 45.5407 184.997 45.6871 184.704 45.8335C184.41 45.98 184.264 46.4193 184.264 46.7121V49.0551C184.264 49.4944 184.41 49.7872 184.704 49.9337C184.997 50.0801 185.29 50.2265 185.731 50.2265C186.171 50.2265 186.464 50.0801 186.758 49.9337C187.051 49.7872 187.198 49.3479 187.198 49.0551C187.198 49.0551 187.198 49.0551 187.344 49.0551H187.784C187.784 49.0551 187.931 49.0551 187.931 49.2015C187.931 49.4944 187.784 49.9337 187.638 50.0801C187.491 50.373 187.198 50.5194 186.904 50.6658C186.611 50.8123 186.317 50.9587 185.877 50.9587C185.29 50.6658 184.997 50.6658 184.704 50.5194Z" fill="#FFFEFF"/>
<path d="M189.545 50.5194C189.252 50.373 188.958 50.2265 188.811 49.9337C188.665 49.6408 188.518 49.3479 188.518 49.0551V46.8586C188.518 46.5657 188.665 46.1264 188.811 45.98C188.958 45.6871 189.252 45.5407 189.545 45.3942C189.838 45.2478 190.132 45.1014 190.572 45.1014C191.012 45.1014 191.305 45.1014 191.599 45.3942C191.892 45.5407 192.039 45.6871 192.332 45.98C192.479 46.2728 192.626 46.5657 192.626 46.8586H192.186C192.186 46.8586 192.039 46.8586 192.039 46.7121C192.039 46.2728 191.892 45.98 191.599 45.8335C191.305 45.6871 191.012 45.5407 190.572 45.5407C190.132 45.5407 189.838 45.6871 189.545 45.8335C189.252 45.98 189.105 46.4193 189.105 46.7121V49.0551C189.105 49.4944 189.252 49.7872 189.545 49.9337C189.838 50.0801 190.132 50.2265 190.572 50.2265C191.012 50.2265 191.305 50.0801 191.599 49.9337C191.892 49.7872 192.039 49.3479 192.039 49.0551C192.039 49.0551 192.039 49.0551 192.186 49.0551H192.626C192.626 49.0551 192.772 49.0551 192.772 49.2015C192.772 49.4944 192.626 49.9337 192.479 50.0801C192.332 50.373 192.039 50.5194 191.746 50.6658C191.452 50.8123 191.159 50.9587 190.719 50.9587C190.132 50.6658 189.838 50.6658 189.545 50.5194Z" fill="#FFFEFF"/>
<path d="M193.653 50.5194V44.9549C193.653 44.9549 193.653 44.8085 193.799 44.8085H194.24C194.24 44.8085 194.386 44.8085 194.386 44.9549V50.5194C194.386 50.5194 194.386 50.6658 194.24 50.6658L193.653 50.5194C193.653 50.6658 193.653 50.6658 193.653 50.5194Z" fill="#FFFEFF"/>
<path d="M196.44 50.5194C196.147 50.373 195.853 50.0801 195.707 49.7872C195.56 49.4944 195.413 49.2015 195.413 48.7622V46.7121C195.413 46.2728 195.56 45.98 195.707 45.6871C195.853 45.3942 196.147 45.2478 196.44 44.9549C196.734 44.8085 197.027 44.6621 197.467 44.6621C197.907 44.6621 198.201 44.8085 198.494 44.9549C198.787 45.1014 199.081 45.3942 199.228 45.6871C199.374 45.98 199.521 46.2728 199.521 46.7121V48.7622C199.521 49.2015 199.374 49.4944 199.228 49.7872C199.081 50.0801 198.787 50.2265 198.494 50.5194C198.201 50.6658 197.907 50.8123 197.467 50.8123C197.027 50.8123 196.734 50.6658 196.44 50.5194ZM198.494 49.7872C198.787 49.4944 198.934 49.2015 198.934 48.7622V46.7121C198.934 46.2728 198.787 45.98 198.494 45.6871C198.201 45.3942 197.907 45.2478 197.467 45.2478C197.027 45.2478 196.734 45.3942 196.44 45.6871C196.147 45.98 196 46.2728 196 46.7121V48.7622C196 49.2015 196.147 49.4944 196.44 49.7872C196.734 50.0801 197.027 50.2265 197.467 50.2265C197.907 50.2265 198.201 50.0801 198.494 49.7872ZM197.174 44.3692L197.614 43.3442C197.614 43.3442 197.614 43.3442 197.761 43.3442H198.201L197.614 44.2228C197.614 44.2228 197.614 44.2228 197.467 44.2228L197.174 44.3692Z" fill="#FFFEFF"/>
<path d="M204.216 44.955H204.656C204.656 44.955 204.802 44.955 204.802 45.1014V50.6658C204.802 50.6658 204.802 50.8123 204.656 50.8123H204.216C204.216 50.8123 204.216 50.8123 204.069 50.8123L201.282 46.2729V50.8123C201.282 50.8123 201.282 50.9587 201.135 50.9587H200.695C200.695 50.9587 200.548 50.9587 200.548 50.8123V45.2478C200.548 45.2478 200.548 45.1014 200.695 45.1014H201.135C201.135 45.1014 201.135 45.1014 201.282 45.1014L204.069 49.6408L204.216 44.955C204.069 44.955 204.069 44.955 204.216 44.955Z" fill="#FFFEFF"/>
<path d="M211.111 44.955H211.551C211.551 44.955 211.698 44.955 211.698 45.1014V50.6658C211.698 50.6658 211.698 50.8123 211.551 50.8123H211.258C211.258 50.8123 211.257 50.8123 211.111 50.8123L208.323 46.2729V50.8123C208.323 50.8123 208.323 50.9587 208.177 50.9587H207.737C207.737 50.9587 207.59 50.9587 207.59 50.8123V45.2478C207.59 45.2478 207.59 45.1014 207.737 45.1014H208.177C208.177 45.1014 208.177 45.1014 208.323 45.1014L211.111 49.6408V44.955Z" fill="#FFFEFF"/>
<path d="M216.392 50.5194L216.099 49.4944H213.605L213.311 50.5194C213.311 50.5194 213.311 50.5194 213.165 50.5194H212.725C212.725 50.5194 212.578 50.5194 212.725 50.373L214.485 44.8085C214.485 44.8085 214.485 44.8085 214.632 44.8085H215.219H215.365L217.126 50.373C217.126 50.373 217.126 50.373 216.979 50.373L216.392 50.5194C216.539 50.6658 216.392 50.6658 216.392 50.5194ZM213.752 49.0551H215.952L214.925 45.6871L213.752 49.0551Z" fill="#FFFEFF"/>
<path d="M218.593 50.5194C218.299 50.373 218.006 50.2265 217.859 49.9337C217.713 49.6408 217.566 49.3479 217.566 49.0551V46.8586C217.566 46.5657 217.713 46.1264 217.859 45.98C218.006 45.6871 218.299 45.5407 218.593 45.3942C218.886 45.2478 219.18 45.1014 219.62 45.1014C220.06 45.1014 220.353 45.1014 220.647 45.3942C220.94 45.5407 221.087 45.6871 221.38 45.98C221.527 46.2728 221.674 46.5657 221.674 46.8586H221.234C221.234 46.8586 221.087 46.8586 221.087 46.7121C221.087 46.2728 220.94 45.98 220.647 45.8335C220.353 45.6871 220.06 45.3942 219.62 45.3942C219.18 45.3942 218.886 45.5407 218.593 45.6871C218.299 45.8335 218.153 46.2728 218.153 46.5657V48.9086C218.153 49.3479 218.299 49.6408 218.593 49.7872C218.886 49.9337 219.18 50.0801 219.62 50.0801C220.06 50.0801 220.353 49.9337 220.647 49.7872C220.94 49.6408 221.087 49.2015 221.087 48.9086C221.087 48.9086 221.087 48.9086 221.234 48.9086H221.674C221.674 48.9086 221.82 48.9086 221.82 49.0551C221.82 49.3479 221.674 49.7872 221.527 49.9337C221.38 50.2265 221.087 50.373 220.793 50.5194C220.5 50.6658 220.207 50.8123 219.767 50.8123C219.326 50.6658 218.886 50.6658 218.593 50.5194Z" fill="#FFFEFF"/>
<path d="M222.847 50.5194V44.9549C222.847 44.9549 222.847 44.8085 222.994 44.8085H223.434C223.434 44.8085 223.581 44.8085 223.581 44.9549V50.5194C223.581 50.5194 223.581 50.6658 223.434 50.6658L222.847 50.5194C222.847 50.6658 222.847 50.6658 222.847 50.5194Z" fill="#FFFEFF"/>
<path d="M225.635 50.5194C225.341 50.373 225.048 50.0801 224.901 49.7872C224.755 49.4944 224.608 49.2015 224.608 48.7622V46.7121C224.608 46.2728 224.755 45.98 224.901 45.6871C225.048 45.3942 225.341 45.2478 225.635 44.9549C225.928 44.8085 226.222 44.6621 226.662 44.6621C227.102 44.6621 227.395 44.8085 227.689 44.9549C227.982 45.1014 228.275 45.3942 228.422 45.6871C228.569 45.98 228.716 46.2728 228.716 46.7121V48.7622C228.716 49.2015 228.569 49.4944 228.422 49.7872C228.275 50.0801 227.982 50.2265 227.689 50.5194C227.395 50.6658 227.102 50.8123 226.662 50.8123C226.222 50.8123 225.928 50.6658 225.635 50.5194ZM227.542 49.7872C227.835 49.4944 227.982 49.2015 227.982 48.7622V46.7121C227.982 46.2728 227.835 45.98 227.542 45.6871C227.249 45.3942 226.955 45.2478 226.515 45.2478C226.075 45.2478 225.781 45.3942 225.488 45.6871C225.195 45.98 225.048 46.2728 225.048 46.7121V48.7622C225.048 49.2015 225.195 49.4944 225.488 49.7872C225.781 50.0801 226.075 50.2265 226.515 50.2265C226.955 50.2265 227.395 50.0801 227.542 49.7872Z" fill="#FFFEFF"/>
<path d="M233.264 44.955H233.704C233.704 44.955 233.85 44.955 233.85 45.1014V50.6658C233.85 50.6658 233.85 50.8123 233.704 50.8123H233.264C233.264 50.8123 233.263 50.8123 233.117 50.8123L230.329 46.2729V50.8123C230.329 50.8123 230.329 50.9587 230.183 50.9587H229.743C229.743 50.9587 229.596 50.9587 229.596 50.8123V45.2478C229.596 45.2478 229.596 45.1014 229.743 45.1014H230.183C230.183 45.1014 230.183 45.1014 230.329 45.1014L233.117 49.6408L233.264 44.955Z" fill="#FFFEFF"/>
<path d="M238.545 50.5194L238.252 49.4944H235.758L235.464 50.5194C235.464 50.5194 235.464 50.5194 235.317 50.5194H234.877C234.877 50.5194 234.731 50.5194 234.877 50.373L236.638 44.8085C236.638 44.8085 236.638 44.8085 236.784 44.8085H237.371H237.518L239.278 50.373C239.278 50.373 239.278 50.373 239.132 50.373L238.545 50.5194C238.545 50.6658 238.545 50.6658 238.545 50.5194ZM235.904 49.0551H238.105L237.078 45.6871L235.904 49.0551Z" fill="#FFFEFF"/>
<path d="M240.159 50.5194V44.9549C240.159 44.9549 240.159 44.8085 240.305 44.8085H240.746C240.746 44.8085 240.892 44.8085 240.892 44.9549V50.0801H243.826C243.826 50.0801 243.973 50.0801 243.973 50.2265V50.5194C243.973 50.5194 243.973 50.6658 243.826 50.6658L240.159 50.5194C240.159 50.6658 240.159 50.6658 240.159 50.5194Z" fill="#FFFEFF"/>
<path d="M167.099 59.7447V54.1802C167.099 54.1802 167.099 54.0338 167.246 54.0338H169.153C169.74 54.0338 170.18 54.1802 170.473 54.4731C170.766 54.7659 170.913 55.2052 170.913 55.6445V58.1339C170.913 58.5732 170.766 59.0125 170.473 59.3054C170.18 59.5982 169.74 59.7447 169.153 59.7447H167.099C167.099 59.8911 167.099 59.8911 167.099 59.7447ZM167.686 59.3054H169.153C169.446 59.3054 169.74 59.1589 170.033 59.0125C170.326 58.8661 170.326 58.5732 170.326 58.1339V55.791C170.326 55.4981 170.18 55.2052 170.033 54.9124C169.886 54.6195 169.593 54.6195 169.153 54.6195H167.686V59.3054Z" fill="#FFFEFF"/>
<path d="M175.755 54.6195H172.82V56.6696H174.874C174.874 56.6696 175.021 56.6696 175.021 56.816V57.1089C175.021 57.1089 175.021 57.2553 174.874 57.2553H172.82V59.3054H175.755C175.755 59.3054 175.901 59.3054 175.901 59.4518V59.7447C175.901 59.7447 175.901 59.8911 175.755 59.8911H172.234C172.234 59.8911 172.087 59.8911 172.087 59.7447V54.1802C172.087 54.1802 172.087 54.0338 172.234 54.0338H175.755C175.755 54.0338 175.901 54.0338 175.901 54.1802L175.755 54.6195Z" fill="#FFFEFF"/>
<path d="M182.063 54.6195H179.129V56.6696H181.183C181.183 56.6696 181.329 56.6696 181.329 56.816V57.1089C181.329 57.1089 181.329 57.2553 181.183 57.2553H179.129V59.3054H182.063C182.063 59.3054 182.21 59.3054 182.21 59.4518V59.7447C182.21 59.7447 182.21 59.8911 182.063 59.8911H178.542C178.542 59.8911 178.395 59.8911 178.395 59.7447V54.1802C178.395 54.1802 178.395 54.0338 178.542 54.0338H182.063C182.063 54.0338 182.21 54.0338 182.21 54.1802L182.063 54.6195C182.21 54.6195 182.21 54.6195 182.063 54.6195Z" fill="#FFFEFF"/>
<path d="M183.383 59.7447V54.1802C183.383 54.1802 183.383 54.0338 183.53 54.0338H185.437C186.024 54.0338 186.464 54.1802 186.758 54.4731C187.051 54.7659 187.198 55.2052 187.198 55.6445V58.1339C187.198 58.5732 187.051 59.0125 186.758 59.3054C186.464 59.5982 186.024 59.7447 185.437 59.7447H183.383C183.383 59.8911 183.383 59.8911 183.383 59.7447ZM183.97 59.3054H185.437C185.731 59.3054 186.024 59.1589 186.317 59.0125C186.611 58.8661 186.611 58.5732 186.611 58.1339V55.791C186.611 55.4981 186.464 55.2052 186.317 54.9124C186.171 54.6195 185.877 54.6195 185.437 54.6195H183.97V59.3054Z" fill="#FFFEFF"/>
<path d="M189.251 59.7447C188.958 59.5982 188.665 59.3054 188.518 59.1589C188.371 58.8661 188.225 58.5732 188.225 58.1339V54.1802C188.225 54.1802 188.225 54.0338 188.371 54.0338H188.811C188.811 54.0338 188.958 54.0338 188.958 54.1802V58.1339C188.958 58.5732 189.105 58.8661 189.398 59.0125C189.692 59.3054 189.985 59.3054 190.425 59.3054C190.865 59.3054 191.159 59.1589 191.452 59.0125C191.746 58.7196 191.892 58.4268 191.892 58.1339V54.1802C191.892 54.1802 191.892 54.0338 192.039 54.0338H192.479C192.479 54.0338 192.626 54.0338 192.626 54.1802V57.9875C192.626 58.2803 192.479 58.7196 192.332 59.0125C192.186 59.3054 191.892 59.4518 191.599 59.5982C191.305 59.7447 191.012 59.8911 190.572 59.8911C189.838 59.8911 189.545 59.8911 189.251 59.7447Z" fill="#FFFEFF"/>
<path d="M194.24 59.7447C193.946 59.5983 193.653 59.4518 193.506 59.159C193.359 58.8661 193.213 58.5732 193.213 58.2804V56.0839C193.213 55.791 193.359 55.3517 193.506 55.2053C193.653 54.9124 193.946 54.766 194.24 54.6195C194.533 54.4731 194.826 54.3267 195.266 54.3267C195.707 54.3267 196 54.3267 196.293 54.6195C196.587 54.766 196.734 54.9124 197.027 55.2053C197.174 55.4981 197.32 55.791 197.32 56.0839H196.88C196.88 56.0839 196.734 56.0839 196.734 55.9374C196.734 55.4981 196.587 55.2053 196.293 55.0588C196 54.9124 195.707 54.766 195.266 54.766C194.826 54.766 194.533 54.9124 194.24 55.0588C193.946 55.2053 193.799 55.6446 193.799 55.9374V58.2804C193.799 58.7197 193.946 59.0125 194.24 59.159C194.533 59.3054 194.826 59.4518 195.266 59.4518C195.707 59.4518 196 59.3054 196.293 59.159C196.587 59.0125 196.734 58.5732 196.734 58.2804C196.734 58.2804 196.734 58.2804 196.88 58.2804H197.32C197.32 58.2804 197.467 58.2804 197.467 58.4268C197.467 58.7197 197.32 59.159 197.174 59.3054C197.027 59.5983 196.734 59.7447 196.44 59.8911C196.147 60.0376 195.853 60.184 195.413 60.184C194.826 59.8911 194.386 59.8911 194.24 59.7447Z" fill="#FFFEFF"/>
<path d="M201.575 59.7447L201.281 58.7196H198.787L198.494 59.7447C198.494 59.7447 198.494 59.7447 198.347 59.7447H197.907C197.907 59.7447 197.761 59.7447 197.907 59.5982L199.668 54.0338C199.668 54.0338 199.668 54.0338 199.814 54.0338H200.401H200.548L202.308 59.5982C202.308 59.5982 202.308 59.5982 202.162 59.5982L201.575 59.7447C201.575 59.8911 201.575 59.8911 201.575 59.7447ZM198.934 58.2803H201.135L200.108 54.9124L198.934 58.2803Z" fill="#FFFEFF"/>
<path d="M203.775 59.7447C203.482 59.5983 203.189 59.4518 203.042 59.159C202.895 58.8661 202.749 58.5732 202.749 58.2804V56.0839C202.749 55.791 202.895 55.3517 203.042 55.2053C203.189 54.9124 203.482 54.766 203.775 54.6195C204.069 54.4731 204.362 54.3267 204.802 54.3267C205.243 54.3267 205.536 54.3267 205.829 54.6195C206.123 54.766 206.269 54.9124 206.563 55.2053C206.71 55.4981 206.856 55.791 206.856 56.0839H206.416C206.416 56.0839 206.269 56.0839 206.269 55.9374C206.269 55.4981 206.123 55.2053 205.829 55.0588C205.536 54.9124 205.243 54.766 204.802 54.766C204.362 54.766 204.069 54.9124 203.775 55.0588C203.482 55.2053 203.335 55.6446 203.335 55.9374V58.2804C203.335 58.7197 203.482 59.0125 203.775 59.159C204.069 59.3054 204.362 59.4518 204.802 59.4518C205.243 59.4518 205.536 59.3054 205.829 59.159C206.123 59.0125 206.269 58.5732 206.269 58.2804C206.269 58.2804 206.269 58.2804 206.416 58.2804H206.856C206.856 58.2804 207.003 58.2804 207.003 58.4268C207.003 58.7197 206.856 59.159 206.71 59.3054C206.563 59.5983 206.269 59.7447 205.976 59.8911C205.683 60.0376 205.389 60.184 204.949 60.184C204.509 59.8911 204.069 59.8911 203.775 59.7447Z" fill="#FFFEFF"/>
<path d="M208.03 59.7447V54.1802C208.03 54.1802 208.03 54.0338 208.177 54.0338H208.617C208.617 54.0338 208.763 54.0338 208.763 54.1802V59.7447C208.763 59.7447 208.763 59.8911 208.617 59.8911L208.03 59.7447C208.03 59.8911 208.03 59.8911 208.03 59.7447Z" fill="#FFFEFF"/>
<path d="M210.671 59.7447C210.377 59.5982 210.084 59.3054 209.937 59.0125C209.79 58.7196 209.644 58.4268 209.644 57.9875V55.9374C209.644 55.4981 209.79 55.2053 209.937 54.9124C210.084 54.6195 210.377 54.4731 210.671 54.1802C210.964 54.0338 211.258 53.8874 211.698 53.8874C212.138 53.8874 212.431 54.0338 212.725 54.1802C213.018 54.3267 213.311 54.6195 213.458 54.9124C213.605 55.2053 213.752 55.4981 213.752 55.9374V57.9875C213.752 58.4268 213.605 58.7196 213.458 59.0125C213.311 59.3054 213.018 59.4518 212.725 59.7447C212.431 59.8911 212.138 60.0375 211.698 60.0375C211.258 60.0375 210.964 59.8911 210.671 59.7447ZM212.725 59.0125C213.018 58.7196 213.165 58.4268 213.165 57.9875V55.9374C213.165 55.4981 213.018 55.2053 212.725 54.9124C212.431 54.6195 212.138 54.4731 211.698 54.4731C211.258 54.4731 210.964 54.6195 210.671 54.9124C210.377 55.2053 210.231 55.4981 210.231 55.9374V57.9875C210.231 58.4268 210.377 58.7196 210.671 59.0125C210.964 59.3054 211.258 59.4518 211.698 59.4518C212.138 59.4518 212.578 59.3054 212.725 59.0125ZM211.404 53.5945L211.844 52.5695C211.844 52.5695 211.844 52.5695 211.991 52.5695H212.431L211.844 53.4481C211.844 53.4481 211.844 53.4481 211.698 53.4481L211.404 53.5945Z" fill="#FFFEFF"/>
<path d="M218.446 54.1802H218.886C218.886 54.1802 219.033 54.1802 219.033 54.3266V59.8911C219.033 59.8911 219.033 60.0375 218.886 60.0375H218.446C218.446 60.0375 218.446 60.0375 218.299 60.0375L215.512 55.4981V60.0375C215.512 60.0375 215.512 60.184 215.365 60.184H214.925C214.925 60.184 214.778 60.184 214.778 60.0375V54.1802C214.778 54.1802 214.778 54.0338 214.925 54.0338H215.365C215.365 54.0338 215.365 54.0338 215.512 54.0338L218.299 58.5732L218.446 54.1802Z" fill="#FFFEFF"/>
<path d="M223.287 59.7447V57.4018L221.527 54.3267C221.527 54.3267 221.527 54.3267 221.674 54.3267H222.114H222.261L223.581 56.816L224.901 54.3267C224.901 54.3267 224.901 54.3267 225.048 54.3267H225.488L223.728 57.4018V59.7447C223.728 59.7447 223.728 59.8911 223.581 59.8911L223.287 59.7447C223.287 59.8911 223.287 59.8911 223.287 59.7447Z" fill="#FFFEFF"/>
<path d="M231.65 54.6195H228.716V56.6696H230.769C230.769 56.6696 230.916 56.6696 230.916 56.816V57.1089C230.916 57.1089 230.916 57.2553 230.769 57.2553H228.716V59.7447C228.716 59.7447 228.716 59.8911 228.569 59.8911H228.129C228.129 59.8911 227.982 59.8911 227.982 59.7447V54.1802C227.982 54.1802 227.982 54.0338 228.129 54.0338H231.65C231.65 54.0338 231.796 54.0338 231.796 54.1802L231.65 54.6195C231.796 54.6195 231.796 54.6195 231.65 54.6195Z" fill="#FFFEFF"/>
<path d="M233.41 59.7447C233.117 59.5983 232.823 59.3054 232.677 59.0125C232.53 58.7197 232.383 58.4268 232.383 57.9875V55.9374C232.383 55.4981 232.53 55.2053 232.677 54.9124C232.823 54.6195 233.117 54.4731 233.41 54.1802C233.704 54.0338 233.997 53.8874 234.437 53.8874C234.877 53.8874 235.171 54.0338 235.464 54.1802C235.758 54.3267 236.051 54.6195 236.198 54.9124C236.344 55.2053 236.491 55.4981 236.491 55.9374V57.9875C236.491 58.4268 236.344 58.7197 236.198 59.0125C236.051 59.3054 235.758 59.4518 235.464 59.7447C235.171 59.8911 234.877 60.0376 234.437 60.0376C233.997 60.0376 233.704 59.8911 233.41 59.7447ZM235.317 59.0125C235.611 58.7197 235.758 58.4268 235.758 57.9875V55.9374C235.758 55.4981 235.611 55.2053 235.317 54.9124C235.024 54.6195 234.731 54.4731 234.29 54.4731C233.85 54.4731 233.557 54.6195 233.264 54.9124C232.97 55.2053 232.823 55.4981 232.823 55.9374V57.9875C232.823 58.4268 232.97 58.7197 233.264 59.0125C233.557 59.3054 233.85 59.4518 234.29 59.4518C234.877 59.4518 235.171 59.3054 235.317 59.0125Z" fill="#FFFEFF"/>
<path d="M240.892 59.7447L239.719 57.2553H238.398V59.7447C238.398 59.7447 238.398 59.8911 238.252 59.8911H237.665C237.665 59.8911 237.518 59.8911 237.518 59.7447V54.1802C237.518 54.1802 237.518 54.0338 237.665 54.0338H239.719C240.159 54.0338 240.599 54.1802 240.892 54.4731C241.186 54.7659 241.332 55.2052 241.332 55.6445C241.332 56.0838 241.186 56.3767 241.039 56.6696C240.892 56.9624 240.599 57.1089 240.159 57.2553L241.332 59.7447H240.892C240.892 59.8911 240.892 59.8911 240.892 59.7447ZM238.252 54.7659V56.816H239.719C240.012 56.816 240.305 56.6696 240.452 56.5231C240.599 56.3767 240.746 56.0838 240.746 55.791C240.746 55.4981 240.599 55.2052 240.452 55.0588C240.305 54.9124 240.012 54.7659 239.719 54.7659H238.252C238.252 54.6195 238.252 54.6195 238.252 54.7659Z" fill="#FFFEFF"/>
<path d="M246.32 54.1802H246.761C246.761 54.1802 246.907 54.1802 246.907 54.3266V59.8911C246.907 59.8911 246.907 60.0375 246.761 60.0375H246.32C246.32 60.0375 246.174 60.0375 246.174 59.8911V55.3517L244.853 57.4017C244.853 57.4017 244.853 57.4017 244.707 57.4017H244.56C244.56 57.4017 244.56 57.4017 244.413 57.4017L243.093 55.3517V59.8911C243.093 59.8911 243.093 60.0375 242.946 60.0375H242.506C242.506 60.0375 242.359 60.0375 242.359 59.8911V54.1802C242.359 54.1802 242.359 54.0338 242.506 54.0338H242.946H243.093L244.56 56.3767L246.32 54.1802Z" fill="#FFFEFF"/>
<path d="M251.602 59.7447L251.308 58.7196H248.814L248.521 59.7447C248.521 59.7447 248.521 59.7447 248.374 59.7447H247.934C247.934 59.7447 247.787 59.7447 247.934 59.5982L249.695 54.0338C249.695 54.0338 249.695 54.0338 249.841 54.0338H250.428H250.575L252.335 59.5982C252.335 59.5982 252.335 59.5982 252.189 59.5982L251.602 59.7447C251.602 59.8911 251.602 59.8911 251.602 59.7447ZM248.961 58.2803H251.162L250.135 54.9124L248.961 58.2803Z" fill="#FFFEFF"/>
<path d="M253.802 59.7447C253.509 59.5983 253.216 59.4518 253.069 59.159C252.922 58.8661 252.776 58.5732 252.776 58.2804V56.0839C252.776 55.791 252.922 55.3517 253.069 55.2053C253.216 54.9124 253.509 54.766 253.802 54.6195C254.096 54.4731 254.389 54.3267 254.829 54.3267C255.27 54.3267 255.563 54.3267 255.856 54.6195C256.15 54.766 256.296 54.9124 256.59 55.2053C256.737 55.4981 256.883 55.791 256.883 56.0839H256.443C256.443 56.0839 256.296 56.0839 256.296 55.9374C256.296 55.4981 256.15 55.2053 255.856 55.0588C255.563 54.9124 255.27 54.766 254.829 54.766C254.389 54.766 254.096 54.9124 253.802 55.0588C253.509 55.2053 253.362 55.6446 253.362 55.9374V58.2804C253.362 58.7197 253.509 59.0125 253.802 59.159C254.096 59.3054 254.389 59.4518 254.829 59.4518C255.27 59.4518 255.563 59.3054 255.856 59.159C256.15 59.0125 256.296 58.5732 256.296 58.2804C256.296 58.2804 256.296 58.2804 256.443 58.2804H256.883C256.883 58.2804 257.03 58.2804 257.03 58.4268C257.03 58.7197 256.883 59.159 256.737 59.3054C256.59 59.5983 256.296 59.7447 256.003 59.8911C255.71 60.0376 255.416 60.184 254.976 60.184C254.389 59.8911 254.096 59.8911 253.802 59.7447Z" fill="#FFFEFF"/>
<path d="M257.91 59.7447V54.1802C257.91 54.1802 257.91 54.0338 258.057 54.0338H258.497C258.497 54.0338 258.644 54.0338 258.644 54.1802V59.7447C258.644 59.7447 258.644 59.8911 258.497 59.8911L257.91 59.7447C258.057 59.8911 257.91 59.8911 257.91 59.7447Z" fill="#FFFEFF"/>
<path d="M260.698 59.7447C260.404 59.5982 260.111 59.3054 259.964 59.0125C259.817 58.7196 259.671 58.4268 259.671 57.9875V55.9374C259.671 55.4981 259.817 55.2053 259.964 54.9124C260.111 54.6195 260.404 54.4731 260.698 54.1802C260.991 54.0338 261.284 53.8874 261.725 53.8874C262.165 53.8874 262.458 54.0338 262.752 54.1802C263.045 54.3267 263.338 54.6195 263.485 54.9124C263.632 55.2053 263.779 55.4981 263.779 55.9374V57.9875C263.779 58.4268 263.632 58.7196 263.485 59.0125C263.338 59.3054 263.045 59.4518 262.752 59.7447C262.458 59.8911 262.165 60.0375 261.725 60.0375C261.284 60.0375 260.991 59.8911 260.698 59.7447ZM262.752 59.0125C263.045 58.7196 263.192 58.4268 263.192 57.9875V55.9374C263.192 55.4981 263.045 55.2053 262.752 54.9124C262.458 54.6195 262.165 54.4731 261.725 54.4731C261.284 54.4731 260.991 54.6195 260.698 54.9124C260.404 55.2053 260.258 55.4981 260.258 55.9374V57.9875C260.258 58.4268 260.404 58.7196 260.698 59.0125C260.991 59.3054 261.284 59.4518 261.725 59.4518C262.165 59.4518 262.458 59.3054 262.752 59.0125ZM261.431 53.5945L261.871 52.5695C261.871 52.5695 261.871 52.5695 262.018 52.5695H262.458L261.871 53.4481C261.871 53.4481 261.871 53.4481 261.725 53.4481L261.431 53.5945Z" fill="#FFFEFF"/>
<path d="M268.473 54.1802H268.913C268.913 54.1802 269.06 54.1802 269.06 54.3266V59.8911C269.06 59.8911 269.06 60.0375 268.913 60.0375H268.473C268.473 60.0375 268.473 60.0375 268.326 60.0375L265.539 55.4981V60.0375C265.539 60.0375 265.539 60.184 265.392 60.184H264.952C264.952 60.184 264.805 60.184 264.805 60.0375V54.1802C264.805 54.1802 264.805 54.0338 264.952 54.0338H265.392C265.392 54.0338 265.392 54.0338 265.539 54.0338L268.326 58.5732L268.473 54.1802Z" fill="#FFFEFF"/>
<path d="M167.832 68.97C167.539 68.8235 167.246 68.6771 167.099 68.3842C166.952 68.0914 166.805 67.7985 166.805 67.5056V65.3091C166.805 65.0163 166.952 64.577 167.099 64.4305C167.246 64.1377 167.539 63.9912 167.832 63.8448C168.126 63.6984 168.419 63.5519 168.859 63.5519C169.299 63.5519 169.593 63.5519 169.886 63.8448C170.18 63.9912 170.326 64.1377 170.62 64.4305C170.767 64.7234 170.913 65.0163 170.913 65.3091H170.473C170.473 65.3091 170.326 65.3091 170.326 65.1627C170.326 64.7234 170.18 64.4305 169.886 64.2841C169.593 64.1377 169.299 63.9912 168.859 63.9912C168.419 63.9912 168.126 64.1377 167.832 64.2841C167.539 64.4305 167.392 64.8698 167.392 65.1627V67.3592C167.392 67.7985 167.539 68.0914 167.832 68.2378C168.126 68.3842 168.419 68.5307 168.859 68.5307C169.299 68.5307 169.593 68.3842 169.886 68.2378C170.18 68.0914 170.326 67.6521 170.326 67.3592C170.326 67.3592 170.326 67.3592 170.473 67.3592H170.913C170.913 67.3592 171.06 67.3592 171.06 67.5056C171.06 67.7985 170.913 68.2378 170.767 68.3842C170.62 68.6771 170.326 68.8235 170.033 68.97C169.74 69.1164 169.446 69.2628 169.006 69.2628C168.419 69.1164 168.126 69.1164 167.832 68.97Z" fill="#FFFEFF"/>
<path d="M171.94 62.8198L172.38 61.7947C172.38 61.7947 172.38 61.7947 172.527 61.7947H172.967L172.38 62.6733C172.38 62.6733 172.38 62.6733 172.234 62.6733L171.94 62.8198ZM171.94 68.9699V63.4055C171.94 63.4055 171.94 63.2591 172.087 63.2591H172.527C172.527 63.2591 172.674 63.2591 172.674 63.4055V68.9699C172.674 68.9699 172.674 69.1164 172.527 69.1164L171.94 68.9699C172.087 69.1164 171.94 69.1164 171.94 68.9699Z" fill="#FFFEFF"/>
<path d="M175.314 68.97L173.554 63.4055C173.554 63.4055 173.554 63.4055 173.701 63.4055H174.141H174.287L175.755 68.2378L177.222 63.4055C177.222 63.4055 177.222 63.4055 177.368 63.4055H177.808C177.808 63.4055 177.955 63.4055 177.808 63.552L176.048 69.1164C176.048 69.1164 176.048 69.1164 175.901 69.1164L175.314 68.97C175.314 69.1164 175.314 69.1164 175.314 68.97Z" fill="#FFFEFF"/>
<path d="M178.835 68.9699V63.4055C178.835 63.4055 178.835 63.2591 178.982 63.2591H179.422C179.422 63.2591 179.569 63.2591 179.569 63.4055V68.9699C179.569 68.9699 179.569 69.1164 179.422 69.1164L178.835 68.9699C178.835 69.1164 178.835 69.1164 178.835 68.9699Z" fill="#FFFEFF"/>
<path d="M181.476 68.97C181.183 68.8235 180.889 68.6771 180.743 68.3842C180.596 68.0914 180.449 67.7985 180.449 67.5056V65.3091C180.449 65.0163 180.596 64.577 180.743 64.4305C180.889 64.1377 181.183 63.9912 181.476 63.8448C181.77 63.6984 182.063 63.5519 182.503 63.5519C182.943 63.5519 183.237 63.5519 183.53 63.8448C183.823 63.9912 183.97 64.1377 184.264 64.4305C184.41 64.7234 184.557 65.0163 184.557 65.3091H184.117C184.117 65.3091 183.97 65.3091 183.97 65.1627C183.97 64.7234 183.823 64.4305 183.53 64.2841C183.237 64.1377 182.943 63.9912 182.503 63.9912C182.063 63.9912 181.77 64.1377 181.476 64.2841C181.183 64.4305 181.036 64.8698 181.036 65.1627V67.3592C181.036 67.7985 181.183 68.0914 181.476 68.2378C181.77 68.3842 182.063 68.5307 182.503 68.5307C182.943 68.5307 183.237 68.3842 183.53 68.2378C183.823 68.0914 183.97 67.6521 183.97 67.3592C183.97 67.3592 183.97 67.3592 184.117 67.3592H184.557C184.557 67.3592 184.704 67.3592 184.704 67.5056C184.704 67.7985 184.557 68.2378 184.41 68.3842C184.264 68.6771 183.97 68.8235 183.677 68.97C183.383 69.1164 183.09 69.2628 182.65 69.2628C182.21 69.1164 181.77 69.1164 181.476 68.97Z" fill="#FFFEFF"/>
<path d="M188.958 68.9699L188.665 67.9449H186.171L185.877 68.9699C185.877 68.9699 185.877 68.9699 185.731 68.9699H185.29C185.29 68.9699 185.144 68.9699 185.29 68.8235L187.051 63.2591C187.051 63.2591 187.051 63.2591 187.198 63.2591H187.784H187.931L189.692 68.8235C189.692 68.8235 189.692 68.8235 189.545 68.8235L188.958 68.9699C188.958 69.1164 188.958 69.1164 188.958 68.9699ZM186.317 67.5056H188.518L187.491 64.1377L186.317 67.5056Z" fill="#FFFEFF"/>
<path d="M192.772 68.97C192.479 68.8235 192.186 68.6771 192.039 68.3842C191.892 68.0914 191.746 67.7985 191.746 67.5056V65.3091C191.746 65.0163 191.892 64.577 192.039 64.4305C192.186 64.1377 192.479 63.9912 192.772 63.8448C193.066 63.6984 193.359 63.5519 193.799 63.5519C194.24 63.5519 194.533 63.5519 194.826 63.8448C195.12 63.9912 195.267 64.1377 195.56 64.4305C195.707 64.7234 195.853 65.0163 195.853 65.3091H195.413C195.413 65.3091 195.267 65.3091 195.267 65.1627C195.267 64.7234 195.12 64.4305 194.826 64.2841C194.533 64.1377 194.24 63.9912 193.799 63.9912C193.359 63.9912 193.066 64.1377 192.772 64.2841C192.479 64.4305 192.332 64.8698 192.332 65.1627V67.3592C192.332 67.7985 192.479 68.0914 192.772 68.2378C193.066 68.3842 193.359 68.5307 193.799 68.5307C194.24 68.5307 194.533 68.3842 194.826 68.2378C195.12 68.0914 195.267 67.6521 195.267 67.3592C195.267 67.3592 195.267 67.3592 195.413 67.3592H195.853C195.853 67.3592 196 67.3592 196 67.5056C196 67.7985 195.853 68.2378 195.707 68.3842C195.56 68.6771 195.267 68.8235 194.973 68.97C194.68 69.1164 194.386 69.2628 193.946 69.2628C193.506 69.1164 193.066 69.1164 192.772 68.97Z" fill="#FFFEFF"/>
<path d="M197.027 68.9699V63.4055C197.027 63.4055 197.027 63.2591 197.174 63.2591H197.614C197.614 63.2591 197.761 63.2591 197.761 63.4055V68.9699C197.761 68.9699 197.761 69.1164 197.614 69.1164L197.027 68.9699C197.027 69.1164 197.027 69.1164 197.027 68.9699Z" fill="#FFFEFF"/>
<path d="M199.814 68.9699C199.521 68.8235 199.228 68.5307 199.081 68.3842C198.934 68.0914 198.787 67.7985 198.787 67.3592V63.5519C198.787 63.5519 198.787 63.4055 198.934 63.4055H199.374C199.374 63.4055 199.521 63.4055 199.521 63.5519V67.3592C199.521 67.7985 199.668 68.0913 199.961 68.2378C200.255 68.5306 200.548 68.5306 200.988 68.5306C201.428 68.5306 201.722 68.3842 202.015 68.2378C202.308 67.9449 202.455 67.6521 202.455 67.3592V63.4055C202.455 63.4055 202.455 63.2591 202.602 63.2591H203.042C203.042 63.2591 203.189 63.2591 203.189 63.4055V67.3592C203.189 67.6521 203.042 68.0914 202.895 68.3842C202.749 68.6771 202.455 68.8235 202.162 68.9699C201.868 69.1164 201.575 69.2628 201.135 69.2628C200.548 69.1164 200.108 69.1164 199.814 68.9699Z" fill="#FFFEFF"/>
<path d="M204.216 68.9699V63.4055C204.216 63.4055 204.216 63.2591 204.362 63.2591H206.269C206.856 63.2591 207.296 63.4055 207.59 63.6984C207.883 63.9912 208.03 64.4305 208.03 64.8698V67.3592C208.03 67.7985 207.883 68.2378 207.59 68.5306C207.296 68.8235 206.856 68.9699 206.269 68.9699H204.216C204.216 69.1164 204.216 69.1164 204.216 68.9699ZM204.802 68.5306H206.269C206.563 68.5306 206.856 68.3842 207.15 68.2378C207.443 68.0913 207.443 67.7985 207.443 67.3592V65.0163C207.443 64.7234 207.296 64.4305 207.15 64.1377C207.003 63.8448 206.71 63.8448 206.269 63.8448H204.802V68.5306Z" fill="#FFFEFF"/>
<path d="M212.284 68.9699L211.991 67.9449H209.497L209.204 68.9699C209.204 68.9699 209.204 68.9699 209.057 68.9699H208.617C208.617 68.9699 208.47 68.9699 208.617 68.8235L210.377 63.2591C210.377 63.2591 210.377 63.2591 210.524 63.2591H211.111H211.258L213.018 68.8235C213.018 68.8235 213.018 68.8235 212.871 68.8235L212.284 68.9699C212.284 69.1164 212.284 69.1164 212.284 68.9699ZM209.644 67.5056H211.844L210.817 64.1377L209.644 67.5056Z" fill="#FFFEFF"/>
<path d="M213.898 68.9699V63.4055C213.898 63.4055 213.898 63.2591 214.045 63.2591H215.952C216.539 63.2591 216.979 63.4055 217.273 63.6984C217.566 63.9912 217.713 64.4305 217.713 64.8698V67.3592C217.713 67.7985 217.566 68.2378 217.273 68.5306C216.979 68.8235 216.539 68.9699 215.952 68.9699H213.898C213.898 69.1164 213.898 69.1164 213.898 68.9699ZM214.485 68.5306H215.952C216.246 68.5306 216.539 68.3842 216.832 68.2378C217.126 68.0913 217.126 67.7985 217.126 67.3592V65.0163C217.126 64.7234 216.979 64.4305 216.832 64.1377C216.686 63.8448 216.392 63.8448 215.952 63.8448H214.485V68.5306Z" fill="#FFFEFF"/>
<path d="M221.967 68.9699L221.674 67.9449H219.18L218.886 68.9699C218.886 68.9699 218.886 68.9699 218.74 68.9699H218.299C218.299 68.9699 218.153 68.9699 218.299 68.8235L220.06 63.2591C220.06 63.2591 220.06 63.2591 220.207 63.2591H220.793H220.94L222.701 68.8235C222.701 68.8235 222.701 68.8235 222.554 68.8235L221.967 68.9699C221.967 69.1164 221.967 69.1164 221.967 68.9699ZM219.326 67.5056H221.527L220.5 64.1377L219.326 67.5056Z" fill="#FFFEFF"/>
<path d="M227.102 63.4055H227.542C227.542 63.4055 227.689 63.4055 227.689 63.552V69.1164C227.689 69.1164 227.689 69.2628 227.542 69.2628H227.102C227.102 69.2628 227.102 69.2628 226.955 69.2628L224.168 64.7234V69.2628C224.168 69.2628 224.168 69.4093 224.021 69.4093H223.581C223.581 69.4093 223.434 69.4093 223.434 69.2628V63.6984C223.434 63.6984 223.434 63.552 223.581 63.552H224.021C224.021 63.552 224.021 63.552 224.168 63.552L226.955 68.0914L227.102 63.4055C226.955 63.4055 226.955 63.4055 227.102 63.4055Z" fill="#FFFEFF"/>
<path d="M232.237 68.9699L231.943 67.9449H229.449L229.156 68.9699C229.156 68.9699 229.156 68.9699 229.009 68.9699H228.569C228.569 68.9699 228.422 68.9699 228.569 68.8235L230.329 63.2591C230.329 63.2591 230.329 63.2591 230.476 63.2591H231.063H231.21L232.97 68.8235C232.97 68.8235 232.97 68.8235 232.823 68.8235L232.237 68.9699C232.383 69.1164 232.237 69.1164 232.237 68.9699ZM229.596 67.5056H231.796L230.769 64.1377L229.596 67.5056Z" fill="#FFFEFF"/>
</svg>
