<svg width="175" height="107" viewBox="0 0 175 107" fill="none" xmlns="http://www.w3.org/2000/svg">
<path d="M94.5127 18.311L100.25 4.61756L87.5 0L80.806 17.8333L82.7186 18.311H94.5127Z" fill="#C4C4C4"/>
<path d="M95.7878 26.4315H77.7778L67.7368 36.7812H105.988L95.7878 26.4315Z" fill="#3E3E3E"/>
<path d="M99.1348 71.9703H74.4308L67.7368 37.5774H105.988L99.1348 71.9703Z" fill="#3E3E3E"/>
<path d="M90.3688 72.4479H79.531H74.5901L74.9089 77.2247H80.6466H89.0938H98.816L99.1348 72.4479H90.3688Z" fill="#3E3E3E"/>
<path d="M95.469 19.744H77.7778V25.6354H95.469V19.744Z" fill="#3E3E3E"/>
<path opacity="0.3" d="M90.5282 37.4181H67.7368L74.4308 72.4479H90.5282V37.4181Z" fill="#3E3E3E"/>
<path opacity="0.3" d="M87.6594 26.2723H77.7778L67.7368 37.4182H86.5437L87.6594 26.2723Z" fill="#3E3E3E"/>
<path opacity="0.3" d="M87.3406 19.9032H77.7778V26.2722H87.3406V19.9032Z" fill="#3E3E3E"/>
<path opacity="0.3" d="M82.5592 72.4479H79.531H74.5901L74.9089 77.2247H80.6466H82.5592V72.4479Z" fill="#3E3E3E"/>
<path d="M9.72222 92.192H10.8379C10.9973 92.192 10.9973 92.192 10.9973 92.3512V106.363C10.9973 106.522 10.9973 106.522 10.8379 106.522H9.72222C9.56284 106.522 9.56284 106.522 9.56284 106.363V94.8989C9.56284 94.8989 9.56284 94.8989 9.56284 94.7396C9.56284 94.5804 9.56284 94.7396 9.56284 94.7396L6.21585 99.9941C5.89709 100.313 5.89709 100.313 5.7377 100.313H5.25956C5.10018 100.313 5.10018 100.313 4.9408 100.153L1.59381 95.0581C1.59381 95.0581 1.59381 95.0581 1.59381 95.2173V106.682C1.59381 106.841 1.59381 106.841 1.43443 106.841H0.159381C0 106.682 0 106.682 0 106.522V92.5105C0 92.3512 0 92.3512 0.159381 92.3512H1.27505C1.43443 92.3512 1.43443 92.3512 1.59381 92.5105L5.41894 98.4018L9.40346 92.3512C9.40346 92.3512 9.56284 92.192 9.72222 92.192Z" fill="#303030"/>
<path d="M16.7349 106.363C15.938 106.045 15.4599 105.408 14.9818 104.771C14.5036 104.134 14.3442 103.338 14.3442 102.382V92.5104C14.3442 92.3512 14.3442 92.3512 14.5036 92.3512H15.6193C15.7787 92.3512 15.7787 92.3512 15.7787 92.5104V102.382C15.7787 103.338 16.0974 104.134 16.7349 104.771C17.3725 105.408 18.1694 105.726 19.285 105.726C20.4007 105.726 21.1976 105.408 21.8351 104.771C22.4727 104.134 22.7914 103.338 22.7914 102.382V92.5104C22.7914 92.3512 22.7914 92.3512 22.9508 92.3512H24.0665C24.2258 92.3512 24.2258 92.3512 24.2258 92.5104V102.382C24.2258 103.338 24.0665 104.134 23.5883 104.771C23.1102 105.408 22.632 106.045 21.8351 106.363C21.0382 106.682 20.2413 107 19.285 107C18.3288 106.841 17.5319 106.682 16.7349 106.363Z" fill="#303030"/>
<path d="M28.3698 105.885C27.4135 105.248 26.9354 104.293 26.9354 103.019V102.382C26.9354 102.223 26.9354 102.223 27.0947 102.223H28.051C28.2104 102.223 28.2104 102.223 28.2104 102.382V103.019C28.2104 103.815 28.5292 104.452 29.1667 104.93C29.8042 105.408 30.7605 105.726 31.8762 105.726C32.9918 105.726 33.7887 105.567 34.2669 105.089C34.745 104.612 35.0638 103.975 35.0638 103.338C35.0638 102.86 34.9044 102.382 34.745 102.064C34.4263 101.746 34.1075 101.427 33.6294 101.109C33.1512 100.79 32.3543 100.472 31.398 99.994C30.2824 99.5163 29.4855 99.1979 29.0073 98.8794C28.5292 98.561 27.8916 98.2425 27.5729 97.6056C27.2541 96.9687 27.0947 96.491 27.0947 95.6949C27.0947 94.5803 27.5729 93.625 28.3698 92.9881C29.1667 92.3512 30.2824 92.0327 31.7168 92.0327C33.3106 92.0327 34.4263 92.3512 35.3825 93.1473C36.3388 93.9434 36.6576 94.7396 36.6576 96.0134V96.491C36.6576 96.6503 36.6576 96.6503 36.4982 96.6503H35.5419C35.3825 96.6503 35.3825 96.6503 35.3825 96.491V96.1726C35.3825 95.3765 35.0638 94.7396 34.4263 94.2619C33.7887 93.7842 32.9918 93.4658 31.8762 93.4658C30.9199 93.4658 30.123 93.625 29.6448 94.1027C29.1667 94.5803 28.8479 95.058 28.8479 95.8541C28.8479 96.3318 29.0073 96.8095 29.1667 97.128C29.4855 97.4464 29.8042 97.7649 30.2824 97.9241C30.7605 98.2425 31.5574 98.4018 32.5137 98.8794C33.47 99.3571 34.2669 99.6756 34.9044 99.994C35.5419 100.312 36.0201 100.79 36.3388 101.268C36.6576 101.746 36.9763 102.382 36.9763 103.179C36.9763 104.293 36.4982 105.248 35.7013 105.885C34.9044 106.522 33.6294 106.841 32.1949 106.841C30.4417 106.841 29.1667 106.522 28.3698 105.885Z" fill="#303030"/>
<path d="M48.9299 93.4658H41.2796C41.2796 93.4658 41.1202 93.4658 41.1202 93.625V98.7202C41.1202 98.7202 41.1202 98.8795 41.2796 98.8795H46.6985C46.8579 98.8795 46.8579 98.8795 46.8579 99.0387V99.8348C46.8579 99.9941 46.8579 99.9941 46.6985 99.9941H41.2796C41.2796 99.9941 41.1202 99.9941 41.1202 100.153V105.408C41.1202 105.408 41.1202 105.567 41.2796 105.567H48.9299C49.0892 105.567 49.0892 105.567 49.0892 105.726V106.522C49.0892 106.682 49.0892 106.682 48.9299 106.682H40.0045C39.8452 106.682 39.8452 106.682 39.8452 106.522V92.5104C39.8452 92.3512 39.8452 92.3512 40.0045 92.3512H48.9299C49.0892 92.3512 49.0892 92.3512 49.0892 92.5104V93.3066C49.0892 93.4658 49.0892 93.4658 48.9299 93.4658Z" fill="#303030"/>
<path d="M53.8707 106.363C53.0738 105.885 52.5956 105.408 52.1175 104.612C51.6394 103.815 51.48 103.019 51.48 102.064V96.8095C51.48 95.8542 51.6394 95.0581 52.1175 94.2619C52.5956 93.4658 53.0738 92.9881 53.8707 92.5104C54.6676 92.0328 55.4645 91.8735 56.4208 91.8735C57.3771 91.8735 58.3333 92.0328 58.9709 92.5104C59.7678 92.9881 60.2459 93.4658 60.7241 94.2619C61.2022 95.0581 61.3616 95.8542 61.3616 96.8095V102.064C61.3616 103.019 61.2022 103.815 60.7241 104.612C60.2459 105.408 59.7678 105.885 58.9709 106.363C58.174 106.841 57.3771 107 56.4208 107C55.4645 106.841 54.6676 106.682 53.8707 106.363ZM59.1302 104.771C59.7678 104.134 60.0865 103.338 60.0865 102.223V96.9688C60.0865 95.8542 59.7678 95.0581 59.1302 94.4212C58.4927 93.7842 57.6958 93.4658 56.5802 93.4658C55.4645 93.4658 54.6676 93.7842 54.0301 94.4212C53.3926 95.0581 53.0738 95.8542 53.0738 96.9688V102.223C53.0738 103.338 53.3926 104.134 54.0301 104.771C54.6676 105.408 55.4645 105.726 56.5802 105.726C57.5364 105.567 58.4927 105.408 59.1302 104.771Z" fill="#303030"/>
<path d="M77.7778 93.4658H70.1275C70.1275 93.4658 69.9681 93.4658 69.9681 93.625V98.7202C69.9681 98.7202 69.9681 98.8795 70.1275 98.8795H75.5465C75.7058 98.8795 75.7058 98.8795 75.7058 99.0387V99.8348C75.7058 99.9941 75.7058 99.9941 75.5465 99.9941H70.1275C70.1275 99.9941 69.9681 99.9941 69.9681 100.153V105.408C69.9681 105.408 69.9681 105.567 70.1275 105.567H77.7778C77.9372 105.567 77.9372 105.567 77.9372 105.726V106.522C77.9372 106.682 77.9372 106.682 77.7778 106.682H68.8525C68.6931 106.682 68.6931 106.682 68.6931 106.522V92.5104C68.6931 92.3512 68.6931 92.3512 68.8525 92.3512H77.7778C77.9372 92.3512 77.9372 92.3512 77.9372 92.5104V93.3066C78.0966 93.4658 77.9372 93.4658 77.7778 93.4658Z" fill="#303030"/>
<path d="M80.9654 106.522V92.5104C80.9654 92.3512 80.9654 92.3512 81.1248 92.3512H82.2404C82.3998 92.3512 82.3998 92.3512 82.3998 92.5104V105.408C82.3998 105.408 82.3998 105.567 82.5592 105.567H89.8907C90.0501 105.567 90.0501 105.567 90.0501 105.726V106.522C90.0501 106.682 90.0501 106.682 89.8907 106.682H81.2842C81.1248 106.682 80.9654 106.682 80.9654 106.522Z" fill="#303030"/>
<path d="M101.685 93.4658H94.0346C94.0346 93.4658 93.8752 93.4658 93.8752 93.625V98.7202C93.8752 98.7202 93.8752 98.8795 94.0346 98.8795H99.4535C99.6129 98.8795 99.6129 98.8795 99.6129 99.0387V99.8348C99.6129 99.9941 99.6129 99.9941 99.4535 99.9941H94.0346C94.0346 99.9941 93.8752 99.9941 93.8752 100.153V105.408C93.8752 105.408 93.8752 105.567 94.0346 105.567H101.685C101.844 105.567 101.844 105.567 101.844 105.726V106.522C101.844 106.682 101.844 106.682 101.685 106.682H92.7595C92.6002 106.682 92.6002 106.682 92.6002 106.522V92.5104C92.6002 92.3512 92.6002 92.3512 92.7595 92.3512H101.685C101.844 92.3512 101.844 92.3512 101.844 92.5104V93.3066C102.004 93.4658 101.844 93.4658 101.685 93.4658Z" fill="#303030"/>
<path d="M106.785 106.363C105.988 106.045 105.51 105.408 105.032 104.771C104.554 104.134 104.394 103.338 104.394 102.382V96.6503C104.394 95.6949 104.554 94.8988 105.032 94.2619C105.51 93.625 105.988 92.9881 106.785 92.6696C107.582 92.3512 108.379 92.0327 109.335 92.0327C110.291 92.0327 111.088 92.1919 111.885 92.6696C112.682 92.9881 113.16 93.625 113.638 94.2619C114.117 94.8988 114.276 95.6949 114.276 96.6503V96.8095H114.117H113.001C112.842 96.8095 112.842 96.8095 112.842 96.6503C112.842 95.6949 112.523 94.8988 111.885 94.2619C111.248 93.625 110.451 93.3065 109.495 93.3065C108.538 93.3065 107.582 93.625 107.104 94.2619C106.466 94.8988 106.148 95.6949 106.148 96.6503V102.382C106.148 103.338 106.466 104.134 107.104 104.771C107.741 105.408 108.538 105.726 109.495 105.726C110.451 105.726 111.407 105.408 111.885 104.771C112.523 104.134 112.842 103.338 112.842 102.382C112.842 102.223 112.842 102.223 113.001 102.223H114.117C114.276 102.223 114.276 102.223 114.276 102.382C114.276 103.338 114.117 104.134 113.638 104.771C113.16 105.408 112.682 106.045 111.885 106.363C111.088 106.682 110.291 107 109.335 107C108.379 107 107.423 106.682 106.785 106.363Z" fill="#303030"/>
<path d="M126.07 92.5105V93.4658C126.07 93.625 126.07 93.625 125.911 93.625H121.926C121.926 93.625 121.767 93.625 121.767 93.7843V106.682C121.767 106.841 121.767 106.841 121.607 106.841H120.492C120.332 106.841 120.332 106.841 120.332 106.682V93.7843C120.332 93.7843 120.332 93.625 120.173 93.625H116.348C116.189 93.625 116.189 93.625 116.189 93.4658V92.5105C116.189 92.3512 116.189 92.3512 116.348 92.3512H125.911C125.911 92.192 126.07 92.3512 126.07 92.5105Z" fill="#303030"/>
<path d="M129.576 106.363C128.78 105.885 128.301 105.408 127.823 104.612C127.345 103.815 127.186 103.019 127.186 102.064V96.8095C127.186 95.8542 127.345 95.0581 127.823 94.2619C128.301 93.4658 128.78 92.9881 129.576 92.5104C130.373 92.0328 131.17 91.8735 132.127 91.8735C133.083 91.8735 134.039 92.0328 134.677 92.5104C135.474 92.9881 135.952 93.4658 136.43 94.2619C136.908 95.0581 137.067 95.8542 137.067 96.8095V102.064C137.067 103.019 136.908 103.815 136.43 104.612C135.952 105.408 135.474 105.885 134.677 106.363C133.88 106.841 133.083 107 132.127 107C131.17 106.841 130.214 106.682 129.576 106.363ZM134.677 104.771C135.314 104.134 135.633 103.338 135.633 102.223V96.9688C135.633 95.8542 135.314 95.0581 134.677 94.4212C134.039 93.7842 133.242 93.4658 132.127 93.4658C131.011 93.4658 130.214 93.7842 129.576 94.4212C128.939 95.0581 128.62 95.8542 128.62 96.9688V102.223C128.62 103.338 128.939 104.134 129.576 104.771C130.214 105.408 131.011 105.726 132.127 105.726C133.242 105.567 134.039 105.408 134.677 104.771Z" fill="#303030"/>
<path d="M148.543 106.522L145.515 100.153C145.515 100.153 145.515 100.153 145.355 100.153H141.849C141.849 100.153 141.689 100.153 141.689 100.313V106.682C141.689 106.841 141.689 106.841 141.53 106.841H140.414C140.255 106.841 140.255 106.841 140.255 106.682V92.6697C140.255 92.5105 140.255 92.5105 140.414 92.5105H145.833C146.949 92.5105 147.905 92.829 148.702 93.6251C149.499 94.4212 149.818 95.3766 149.818 96.4912C149.818 97.4465 149.499 98.2426 149.021 98.8795C148.543 99.5164 147.746 99.9941 146.949 100.153C146.949 100.153 146.949 100.153 146.949 100.313L149.977 106.682C149.977 106.682 149.977 106.682 149.977 106.841C149.977 107 149.977 107 149.818 107H148.702C148.702 106.682 148.543 106.682 148.543 106.522ZM141.849 93.6251V98.8795C141.849 98.8795 141.849 99.0388 142.008 99.0388H145.833C146.63 99.0388 147.268 98.7203 147.746 98.2426C148.224 97.765 148.543 97.1281 148.543 96.3319C148.543 95.5358 148.224 94.8989 147.746 94.4212C147.268 93.9435 146.63 93.6251 145.833 93.6251H141.849C141.849 93.4659 141.849 93.6251 141.849 93.6251Z" fill="#303030"/>
<path d="M161.931 106.522L161.134 103.975C161.134 103.975 161.134 103.975 160.974 103.975H154.759C154.759 103.975 154.759 103.975 154.599 103.975L153.802 106.522C153.802 106.682 153.643 106.682 153.484 106.682H152.368C152.209 106.682 152.209 106.682 152.209 106.522L156.831 92.3512C156.831 92.192 156.99 92.192 157.149 92.192H158.584C158.743 92.192 158.743 92.192 158.903 92.3512L163.525 106.522V106.682C163.525 106.841 163.525 106.841 163.365 106.841H162.25C162.09 106.682 161.931 106.682 161.931 106.522ZM155.237 102.701H160.656L157.946 94.262L155.237 102.701C155.077 102.701 155.077 102.701 155.237 102.701Z" fill="#303030"/>
<path d="M165.915 106.522V92.5104C165.915 92.3512 165.915 92.3512 166.075 92.3512H167.19C167.35 92.3512 167.35 92.3512 167.35 92.5104V105.408C167.35 105.408 167.35 105.567 167.509 105.567H174.841C175 105.567 175 105.567 175 105.726V106.522C175 106.682 175 106.682 174.841 106.682H166.234C166.075 106.682 165.915 106.682 165.915 106.522Z" fill="#303030"/>
</svg>
