<svg width="196" height="70" viewBox="0 0 196 70" fill="none" xmlns="http://www.w3.org/2000/svg">
<g clip-path="url(#clip0_67_924)">
<path d="M76.3796 28.7476C77.1713 29.6064 78.1331 30.2935 79.2453 30.7745C80.351 31.2554 81.5876 31.4959 82.9158 31.4959C84.2439 31.4959 85.474 31.2554 86.5797 30.7745C87.6854 30.2935 88.6472 29.6133 89.4323 28.7476C90.2174 27.8887 90.839 26.8581 91.2708 25.69C91.7026 24.522 91.9185 23.2372 91.9185 21.8767C91.9185 20.5163 91.7026 19.2383 91.2708 18.0634C90.8325 16.8885 90.2174 15.8648 89.4323 15.0059C88.6406 14.147 87.6854 13.4668 86.5797 12.9859C85.4805 12.498 84.2439 12.2576 82.9158 12.2576C81.5876 12.2576 80.351 12.498 79.2453 12.979C78.1331 13.46 77.1713 14.1402 76.3796 15.0059C75.5879 15.8648 74.9664 16.8954 74.5346 18.0703C74.1027 19.2383 73.8868 20.5163 73.8868 21.8836C73.8868 23.2509 74.1093 24.5289 74.5346 25.6969C74.9664 26.8581 75.5879 27.8887 76.3796 28.7476ZM78.5583 19.4651C78.7742 18.778 79.0948 18.194 79.4874 17.7199C79.88 17.2527 80.3707 16.8954 80.9399 16.648C81.5156 16.3938 82.183 16.2701 82.9158 16.2701C83.6486 16.2701 84.3094 16.3938 84.8851 16.648C85.4478 16.8954 85.932 17.2595 86.3245 17.7199C86.7236 18.1871 87.0311 18.778 87.2471 19.4651C87.4695 20.1659 87.5807 20.9767 87.5807 21.8767C87.5807 22.7699 87.4695 23.5876 87.2471 24.2884C87.0311 24.9686 86.7236 25.5595 86.3245 26.0198C85.932 26.4802 85.4478 26.8375 84.8851 27.0848C84.3094 27.3322 83.6486 27.4627 82.9158 27.4627C82.183 27.4627 81.5156 27.3322 80.9399 27.0848C80.3707 26.8375 79.88 26.4733 79.4874 26.013C79.0883 25.5458 78.7742 24.9617 78.5583 24.2746C78.3293 23.5738 78.2181 22.7631 78.2181 21.8699C78.2181 20.9767 78.3293 20.1659 78.5583 19.4651Z" fill="url(#paint0_linear_67_924)"/>
<path d="M94.359 31.2966H100.647C101.674 31.2966 102.596 31.1523 103.408 30.8775C104.225 30.5958 104.932 30.1904 105.501 29.682C106.077 29.1667 106.522 28.5414 106.829 27.8269C107.13 27.1192 107.281 26.3359 107.281 25.5045C107.281 24.1441 106.816 22.447 104.821 21.4782C104.86 21.4576 104.893 21.4301 104.932 21.4026C105.351 21.1003 105.711 20.7568 105.985 20.3789C106.267 19.9941 106.476 19.575 106.613 19.1284C106.744 18.6887 106.816 18.2352 106.816 17.7542C106.816 16.9503 106.685 16.2152 106.424 15.5693C106.155 14.896 105.73 14.3188 105.161 13.8516C104.605 13.3913 103.898 13.0408 103.054 12.8004C102.236 12.5736 101.248 12.45 100.11 12.45H94.3655C94.0449 12.45 93.7832 12.7248 93.7832 13.0615V30.6851C93.7767 31.0218 94.0384 31.2966 94.359 31.2966ZM98.036 16.2083H100.103C101.013 16.2083 101.667 16.3595 102.053 16.6686C102.393 16.9435 102.557 17.4244 102.557 18.1459C102.557 18.8261 102.367 19.3002 101.988 19.5887C101.549 19.9185 100.849 20.0834 99.9268 20.0834H98.036V16.2083ZM98.036 23.567H100.588C101.072 23.567 101.491 23.615 101.818 23.7181C102.125 23.8074 102.367 23.9311 102.55 24.0891C102.721 24.2403 102.845 24.4189 102.923 24.6251C103.008 24.8587 103.054 25.1266 103.054 25.4289C103.054 25.7313 103.015 26.013 102.93 26.2672C102.858 26.5077 102.74 26.7069 102.57 26.8856C102.4 27.0642 102.158 27.2154 101.85 27.3322C101.53 27.4558 101.105 27.5177 100.601 27.5177H98.0425V23.567H98.036Z" fill="url(#paint1_linear_67_924)"/>
<path d="M109.446 30.0256C109.885 30.3348 110.362 30.5958 110.866 30.8157C111.37 31.0287 111.9 31.2005 112.45 31.3173C112.999 31.4341 113.562 31.4959 114.131 31.4959C115.119 31.4959 116.015 31.331 116.8 31.0081C117.586 30.6783 118.26 30.2317 118.809 29.6545C119.359 29.0843 119.784 28.3972 120.072 27.6276C120.353 26.865 120.497 26.0405 120.497 25.1679C120.497 24.3503 120.366 23.6426 120.118 23.0517C119.869 22.4677 119.529 21.9661 119.117 21.5538C118.717 21.1622 118.253 20.8324 117.743 20.5713C117.258 20.3308 116.768 20.1178 116.271 19.9323C115.786 19.7605 115.309 19.5888 114.844 19.4376C114.419 19.2933 114.033 19.1284 113.699 18.9498C113.411 18.7986 113.182 18.6062 113.012 18.3933C112.881 18.2284 112.816 18.0154 112.816 17.7474C112.816 17.5 112.855 17.2871 112.934 17.0878C113.006 16.9023 113.117 16.7511 113.267 16.6137C113.424 16.4694 113.634 16.3595 113.876 16.2702C114.138 16.1808 114.452 16.1328 114.818 16.1328C115.23 16.1328 115.584 16.1877 115.871 16.2908C116.185 16.4076 116.46 16.5313 116.689 16.6687C116.938 16.813 117.16 16.9504 117.344 17.0741C117.631 17.2664 117.906 17.3558 118.168 17.3558C118.43 17.3558 118.672 17.287 118.875 17.1565C119.077 17.0191 119.247 16.813 119.385 16.5313L120.137 14.9922C120.255 14.7517 120.209 14.4563 120.019 14.2708C119.385 13.6318 118.6 13.1302 117.703 12.7729C116.814 12.4225 115.832 12.2507 114.785 12.2507C113.85 12.2507 112.999 12.4088 112.26 12.7179C111.514 13.034 110.879 13.4531 110.362 13.9753C109.846 14.5044 109.446 15.1227 109.172 15.803C108.903 16.4832 108.766 17.1977 108.766 17.9123C108.766 18.7918 108.89 19.5544 109.139 20.1797C109.388 20.798 109.721 21.334 110.14 21.7531C110.546 22.1653 111.01 22.502 111.527 22.7562C112.011 22.9967 112.502 23.2028 113.006 23.3677C113.483 23.5326 113.961 23.6838 114.425 23.8212C114.844 23.9449 115.224 24.1029 115.544 24.2816C115.832 24.4396 116.061 24.632 116.225 24.8518C116.362 25.0373 116.428 25.2847 116.428 25.6076C116.428 26.2604 116.257 26.7344 115.904 27.0505C115.531 27.394 114.975 27.5658 114.236 27.5658C113.739 27.5658 113.307 27.4971 112.966 27.3597C112.594 27.2085 112.266 27.0368 111.998 26.8581C111.704 26.6657 111.449 26.4871 111.233 26.3222C110.912 26.0817 110.585 25.958 110.271 25.958C110.016 25.958 109.78 26.0267 109.564 26.1642C109.388 26.281 109.231 26.4253 109.106 26.597C109.093 26.6176 109.08 26.6314 109.067 26.6589L108.171 28.2323C108.033 28.4728 108.066 28.7682 108.256 28.9743C108.596 29.3728 109.002 29.7233 109.446 30.0256Z" fill="url(#paint2_linear_67_924)"/>
<path d="M133.936 30.6851V28.0673C133.936 27.7238 133.674 27.4558 133.354 27.4558H126.556V23.6975H131.783C132.104 23.6975 132.366 23.4227 132.366 23.086V20.5644C132.366 20.2277 132.104 19.9529 131.783 19.9529H126.556V16.2839H133.354C133.674 16.2839 133.936 16.009 133.936 15.6724V13.0615C133.936 12.7248 133.674 12.45 133.354 12.45H122.859C122.538 12.45 122.277 12.7248 122.277 13.0615V30.6851C122.277 31.0218 122.538 31.2966 122.859 31.2966H133.354C133.674 31.2966 133.936 31.0218 133.936 30.6851Z" fill="url(#paint3_linear_67_924)"/>
<path d="M136.71 31.2966H139.805C140.125 31.2966 140.387 31.0218 140.387 30.6851V24.4121H141.126C141.427 24.4121 141.532 24.4602 141.545 24.4739C141.591 24.5014 141.669 24.5632 141.767 24.7213L145.268 30.3622C145.451 30.6577 145.68 30.8844 145.942 31.0493C146.216 31.2142 146.544 31.3035 146.917 31.3035H149.697C149.913 31.3035 150.116 31.1798 150.214 30.9806C150.312 30.7813 150.306 30.5409 150.181 30.3553L146.014 23.8487C145.896 23.6769 145.778 23.512 145.647 23.3608C145.916 23.2234 146.171 23.0723 146.406 22.9074C146.917 22.5432 147.348 22.1172 147.695 21.6363C148.042 21.1484 148.31 20.6125 148.5 20.0216C148.683 19.4307 148.775 18.8055 148.775 18.1459C148.775 17.3214 148.637 16.5519 148.369 15.8648C148.088 15.1502 147.649 14.5318 147.061 14.0234C146.485 13.5287 145.745 13.1371 144.862 12.8691C144.005 12.608 142.971 12.4706 141.787 12.4706H136.71C136.389 12.4706 136.128 12.7454 136.128 13.0821V30.7058C136.128 31.0218 136.389 31.2966 136.71 31.2966ZM140.387 16.2083H141.787C142.788 16.2083 143.521 16.4007 143.966 16.7855C144.385 17.1496 144.587 17.6649 144.587 18.3726C144.587 18.7436 144.528 19.0803 144.417 19.3826C144.313 19.6712 144.156 19.9117 143.94 20.1247C143.724 20.3377 143.429 20.5095 143.076 20.6331C142.703 20.7637 142.252 20.8324 141.741 20.8324H140.387V16.2083Z" fill="url(#paint4_linear_67_924)"/>
<path d="M167.448 13.0615C167.448 12.7248 167.186 12.45 166.872 12.45H165.014H164.373C163.973 12.45 163.627 12.5736 163.345 12.821C163.09 13.0408 162.913 13.3019 162.809 13.5768L158.909 24.3365C158.864 24.4602 158.818 24.5976 158.765 24.735C158.72 24.5907 158.674 24.4602 158.621 24.3296L154.709 13.5836C154.578 13.2538 154.395 12.9927 154.146 12.7866C153.871 12.5599 153.531 12.45 153.132 12.45H150.633C150.443 12.45 150.26 12.553 150.155 12.7179C150.044 12.8828 150.024 13.1027 150.096 13.2882L156.816 30.9119C156.907 31.1455 157.117 31.2966 157.359 31.2966H160.159C160.395 31.2966 160.61 31.1455 160.696 30.9119L167.402 13.3294C167.428 13.247 167.448 13.1576 167.448 13.0615Z" fill="url(#paint5_linear_67_924)"/>
<path d="M182.345 31.0356C182.457 30.8638 182.476 30.6577 182.411 30.4653L175.875 12.8348C175.79 12.6011 175.574 12.4431 175.332 12.4431H172.165C171.929 12.4431 171.713 12.6011 171.622 12.8348L165.086 30.4653C165.014 30.6508 165.04 30.8638 165.145 31.0356C165.256 31.2005 165.432 31.2967 165.622 31.2967H167.448H168.03C168.429 31.2967 168.776 31.173 169.064 30.9256C169.325 30.6989 169.509 30.4309 169.607 30.1355L170.706 26.9543H176.784L177.89 30.1424C178.008 30.4653 178.191 30.7333 178.452 30.9463C178.727 31.173 179.074 31.2898 179.473 31.2898H181.868C182.057 31.2967 182.234 31.1936 182.345 31.0356ZM171.923 23.4158L173.663 18.4001C173.696 18.3245 173.722 18.2421 173.748 18.1596C173.774 18.2352 173.801 18.3108 173.827 18.3795L175.567 23.4158H171.923Z" fill="url(#paint6_linear_67_924)"/>
<path d="M78.8658 38.7034H75.7581C75.4375 38.7034 75.1758 38.9782 75.1758 39.3149V56.9386C75.1758 57.2752 75.4309 57.5501 75.7581 57.5501H78.8658C79.1864 57.5501 79.4481 57.2752 79.4481 56.9386V39.3149C79.4481 38.9782 79.1864 38.7034 78.8658 38.7034Z" fill="url(#paint7_linear_67_924)"/>
<path d="M84.1458 41.1975C83.341 42.0495 82.7129 43.0801 82.2811 44.2619C81.8493 45.4299 81.6334 46.7354 81.6334 48.1233C81.6334 49.5044 81.8558 50.7961 82.3008 51.971C82.7457 53.1459 83.3738 54.1765 84.1654 55.0285C84.9636 55.8805 85.9189 56.5538 87.005 57.0279C88.0911 57.502 89.2949 57.7425 90.5838 57.7425C91.2839 57.7425 91.9513 57.7013 92.5663 57.6257C93.1878 57.5432 93.7701 57.4195 94.3197 57.2615C94.8693 57.0966 95.3927 56.8836 95.8834 56.6294C96.3676 56.3752 96.8387 56.0729 97.2836 55.7293C97.4341 55.6125 97.5191 55.427 97.5191 55.2346V48.1027C97.5191 47.766 97.2574 47.4912 96.9368 47.4912H91.4017C91.0811 47.4912 90.8194 47.766 90.8194 48.1027V49.9578C90.8194 50.2945 90.9437 50.5968 91.1727 50.8304C91.3232 50.9885 91.6045 51.1808 92.0494 51.1808H93.5477V53.3795C93.214 53.5238 92.8672 53.6475 92.5139 53.7368C92.0429 53.8605 91.4736 53.9223 90.8259 53.9223C90.1193 53.9223 89.4585 53.7918 88.8631 53.5375C88.2743 53.2833 87.7639 52.9123 87.3386 52.4313C86.9134 51.9504 86.5731 51.3457 86.3311 50.638C86.089 49.9166 85.9581 49.0715 85.9581 48.1302C85.9581 47.2576 86.0759 46.4674 86.3049 45.7735C86.5339 45.0933 86.8545 44.5024 87.2667 44.0214C87.6789 43.5473 88.1761 43.1763 88.7584 42.9221C89.3473 42.661 90.0212 42.5305 90.7605 42.5305C91.2316 42.5305 91.6438 42.5648 91.9971 42.6266C92.3504 42.6954 92.6775 42.7778 92.9588 42.8809C93.2336 42.9839 93.4888 43.1007 93.7178 43.2382C93.973 43.3893 94.2216 43.5405 94.4571 43.6916C94.7254 43.8771 95.0198 43.9733 95.3208 43.9733C95.8115 43.9733 96.2367 43.7122 96.5181 43.2313L97.4144 41.7472C97.5649 41.4998 97.5257 41.1769 97.3228 40.9776C96.5835 40.2493 95.6741 39.6516 94.6207 39.1912C93.5608 38.7378 92.298 38.5042 90.8717 38.5042C89.4781 38.5042 88.1957 38.7378 87.0639 39.205C85.932 39.6791 84.944 40.3455 84.1458 41.1975Z" fill="url(#paint8_linear_67_924)"/>
<path d="M114.007 38.7034H110.912C110.591 38.7034 110.33 38.9782 110.33 39.3149V49.8685C110.33 50.4731 110.251 51.0228 110.101 51.5037C109.957 51.9641 109.741 52.3626 109.473 52.6786C109.204 52.9947 108.877 53.2352 108.485 53.4138C108.086 53.5925 107.628 53.6818 107.104 53.6818C106.587 53.6818 106.123 53.5925 105.73 53.4138C105.338 53.242 105.01 52.9947 104.742 52.6786C104.474 52.3557 104.265 51.9572 104.114 51.4968C103.964 51.0159 103.885 50.4662 103.885 49.8616V39.3149C103.885 38.9782 103.623 38.7034 103.303 38.7034H100.208C99.8876 38.7034 99.6259 38.9782 99.6259 39.3149V49.8685C99.6259 50.9884 99.8025 52.0328 100.143 52.9878C100.483 53.9497 100.993 54.8017 101.641 55.5025C102.289 56.2034 103.087 56.7668 104.009 57.1584C104.925 57.5432 105.966 57.7424 107.104 57.7424C108.243 57.7424 109.283 57.5432 110.199 57.1584C111.121 56.7668 111.92 56.2102 112.574 55.5025C113.228 54.7948 113.732 53.9497 114.079 52.9878C114.419 52.0328 114.589 50.9815 114.589 49.8685V39.3149C114.589 38.9782 114.327 38.7034 114.007 38.7034Z" fill="url(#paint9_linear_67_924)"/>
<path d="M121.518 39.095L114.982 56.7256C114.91 56.9111 114.936 57.1241 115.041 57.2958C115.152 57.4607 115.328 57.5569 115.518 57.5569H117.926C118.325 57.5569 118.672 57.4333 118.96 57.1859C119.221 56.9592 119.404 56.6981 119.503 56.3958L120.602 53.2146H126.68L127.786 56.4095C127.903 56.7324 128.093 57.0004 128.348 57.2134C128.623 57.4401 128.97 57.5569 129.369 57.5569H131.764C131.953 57.5569 132.137 57.4607 132.241 57.2958C132.353 57.1309 132.379 56.9179 132.307 56.7256L125.771 39.095C125.685 38.8614 125.47 38.7034 125.227 38.7034H122.061C121.825 38.7034 121.603 38.8614 121.518 39.095ZM123.566 44.6535C123.598 44.5779 123.625 44.4955 123.651 44.413C123.677 44.4886 123.703 44.5642 123.729 44.6329L125.47 49.6692H121.825L123.566 44.6535Z" fill="url(#paint10_linear_67_924)"/>
<path d="M133.471 39.3149V56.9386C133.471 57.2752 133.733 57.5501 134.054 57.5501H143.815C144.136 57.5501 144.398 57.2752 144.398 56.9386V54.2314C144.398 53.8948 144.136 53.6199 143.815 53.6199H137.731V39.3149C137.731 38.9782 137.469 38.7034 137.148 38.7034H134.054C133.733 38.7034 133.471 38.9782 133.471 39.3149Z" fill="url(#paint11_linear_67_924)"/>
<path d="M161.893 48.1302C161.893 46.7697 161.67 45.4917 161.239 44.3443C160.807 43.19 160.185 42.18 159.394 41.3486C158.608 40.5173 157.647 39.8645 156.541 39.3973C155.442 38.937 154.212 38.7034 152.884 38.7034H146.531C146.21 38.7034 145.948 38.9782 145.948 39.3149V56.9386C145.948 57.2752 146.21 57.5501 146.531 57.5501H152.884C154.212 57.5501 155.442 57.3165 156.541 56.863C157.647 56.4026 158.608 55.743 159.4 54.9048C160.192 54.0665 160.807 53.0634 161.239 51.9091C161.67 50.7685 161.893 49.4906 161.893 48.1302ZM157.221 50.5349C156.999 51.222 156.685 51.806 156.292 52.2733C155.9 52.7336 155.416 53.0978 154.853 53.3382C154.277 53.5925 153.616 53.7161 152.884 53.7161H150.234V42.5304H152.884C153.616 42.5304 154.277 42.661 154.853 42.9083C155.422 43.1557 155.906 43.513 156.292 43.9802C156.691 44.4474 157.005 45.0314 157.221 45.7116C157.444 46.4124 157.562 47.2232 157.562 48.1164C157.562 49.0234 157.444 49.8341 157.221 50.5349Z" fill="url(#paint12_linear_67_924)"/>
<path d="M168.108 39.095L161.572 56.7256C161.5 56.9111 161.526 57.1241 161.631 57.2958C161.736 57.4607 161.919 57.5569 162.109 57.5569H164.51C164.909 57.5569 165.256 57.4333 165.544 57.1859C165.805 56.9592 165.989 56.6981 166.087 56.3958L167.192 53.2146H173.271L174.376 56.4095C174.494 56.7324 174.684 57.0004 174.939 57.2134C175.214 57.4401 175.561 57.5569 175.96 57.5569H178.354C178.544 57.5569 178.727 57.4607 178.832 57.2958C178.943 57.1309 178.963 56.9179 178.897 56.7256L172.361 39.095C172.276 38.8614 172.06 38.7034 171.818 38.7034H168.651C168.409 38.7034 168.193 38.8614 168.108 39.095ZM170.15 44.6535C170.176 44.5779 170.209 44.4955 170.235 44.413C170.261 44.4886 170.287 44.5642 170.307 44.6329L172.047 49.6692H168.403L170.15 44.6535Z" fill="url(#paint13_linear_67_924)"/>
<path d="M193.507 41.3486C192.716 40.5173 191.76 39.8645 190.655 39.3973C189.555 38.937 188.325 38.7034 186.997 38.7034H180.644C180.324 38.7034 180.062 38.9782 180.062 39.3149V56.9386C180.062 57.2752 180.324 57.5501 180.644 57.5501H186.997C188.325 57.5501 189.555 57.3165 190.655 56.863C191.76 56.4026 192.722 55.743 193.514 54.9048C194.305 54.0665 194.927 53.0634 195.359 51.9091C195.791 50.7617 196.013 49.4837 196.013 48.1233C196.013 46.7629 195.791 45.4849 195.359 44.3374C194.914 43.19 194.299 42.18 193.507 41.3486ZM191.335 50.5349C191.113 51.222 190.805 51.806 190.406 52.2733C190.013 52.7336 189.529 53.0978 188.967 53.3382C188.391 53.5925 187.73 53.7161 186.997 53.7161H184.347V42.5304H186.997C187.73 42.5304 188.391 42.661 188.967 42.9083C189.529 43.1557 190.013 43.513 190.406 43.9802C190.805 44.4474 191.113 45.0314 191.335 45.7116C191.558 46.4124 191.675 47.2232 191.675 48.1164C191.675 49.0234 191.558 49.8341 191.335 50.5349Z" fill="url(#paint14_linear_67_924)"/>
<path d="M33.3286 12.9515C35.5204 12.9515 37.0645 7.26934 37.3 4.31488C37.4832 2.02002 35.6578 0 33.3286 0C31.1368 0 29.174 2.02002 29.3572 4.31488C29.5927 7.26934 31.1368 12.9515 33.3286 12.9515Z" fill="url(#paint15_linear_67_924)"/>
<path d="M15.2772 10.5124C16.8867 12.9446 20.9301 17.0534 22.8275 15.906C24.7249 14.7585 23.3575 9.02141 22.1536 6.34178C21.519 4.92639 20.145 4.10876 18.6991 4.10876C18.0121 4.10876 17.3055 4.29428 16.6577 4.68591C14.7604 5.84021 14.0276 8.6229 15.2772 10.5124Z" fill="url(#paint16_linear_67_924)"/>
<path d="M6.03892 23.2715C8.59058 24.5357 14.0472 25.9717 15.1464 23.9723C16.239 21.9798 12.3265 17.7336 10.0103 16.0434C9.38225 15.583 8.65601 15.3632 7.92977 15.3632C6.58197 15.3632 5.22108 16.1189 4.46867 17.5C3.3695 19.4994 4.05648 22.289 6.03892 23.2715Z" fill="url(#paint17_linear_67_924)"/>
<path d="M4.10882 39.1706C6.91565 38.9232 12.333 37.3017 12.333 35C12.333 32.6983 6.92219 31.0768 4.10882 30.8294C4.01068 30.8225 3.906 30.8157 3.80786 30.8157C1.7469 30.8157 0 32.6708 0 35C0 37.3086 1.92356 39.363 4.10882 39.1706Z" fill="url(#paint18_linear_67_924)"/>
<path d="M10.0103 53.9567C12.3265 52.2664 16.2456 48.0203 15.1464 46.0277C14.7538 45.3132 13.8051 45.0383 12.6274 45.0383C10.5141 45.0383 7.68114 45.9178 6.03892 46.7286C4.05648 47.7111 3.30407 50.3838 4.46867 52.5C5.56131 54.4995 8.2111 55.269 10.0103 53.9567Z" fill="url(#paint19_linear_67_924)"/>
<path d="M15.2772 59.4876C14.0276 61.3771 14.6491 64.0911 16.6643 65.3072C18.5682 66.4615 21.2246 65.7401 22.1602 63.6582C23.3575 60.9786 24.7314 55.2483 22.8275 54.094C22.6051 53.9566 22.3499 53.8948 22.0686 53.8948C20.0076 53.9016 16.697 57.3439 15.2772 59.4876Z" fill="url(#paint20_linear_67_924)"/>
<path d="M37.3 65.6851C37.0644 62.7375 35.5204 57.0553 33.3286 57.0553C31.1367 57.0553 29.5927 62.7375 29.3571 65.6851C29.1739 67.9799 30.9993 69.9999 33.3286 69.9999C35.5269 69.9999 37.4832 67.9799 37.3 65.6851Z" fill="url(#paint21_linear_67_924)"/>
<path d="M44.5886 53.8948C44.3072 53.8948 44.0521 53.9566 43.8296 54.094C41.9322 55.2415 43.2997 60.9786 44.497 63.6582C45.4326 65.7401 47.9777 66.5302 49.9929 65.3072C51.8903 64.1529 52.6296 61.3771 51.3799 59.4808C49.9667 57.3439 46.6561 53.8948 44.5886 53.8948Z" fill="url(#paint22_linear_67_924)"/>
<path d="M51.5173 46.0277C50.4181 48.0203 54.3372 52.2664 56.6533 53.9567C58.4526 55.269 61.0369 54.6163 62.195 52.5001C63.2942 50.5075 62.6072 47.7111 60.6248 46.7286C58.9891 45.9178 56.1495 45.0383 54.0428 45.0383C52.8585 45.0383 51.9099 45.3132 51.5173 46.0277Z" fill="url(#paint23_linear_67_924)"/>
<path d="M62.8362 30.8157C62.7381 30.8157 62.6465 30.8225 62.5483 30.8294C59.7415 31.0768 54.3241 32.6983 54.3241 35C54.3241 37.3017 59.7349 38.9232 62.5483 39.1706C64.7336 39.363 66.6571 37.446 66.6571 35C66.6571 32.7945 64.8971 30.8157 62.8362 30.8157Z" fill="url(#paint24_linear_67_924)"/>
<path d="M51.5173 23.9723C52.61 25.9648 58.0731 24.5288 60.6248 23.2715C62.6072 22.2889 63.3596 19.6162 62.195 17.5C61.4688 16.1808 60.0686 15.3906 58.675 15.3906C57.9619 15.3906 57.2553 15.5968 56.6468 16.0434C54.3307 17.7336 50.4181 21.9798 51.5173 23.9723Z" fill="url(#paint25_linear_67_924)"/>
<path d="M43.8296 15.906C45.727 17.0603 49.777 12.9446 51.3799 10.5124C52.6296 8.62288 52.008 5.9089 49.9929 4.6859C49.3778 4.31487 48.6909 4.13623 48.0039 4.13623C46.5579 4.13623 45.1316 4.92638 44.497 6.3349C43.2997 9.02139 41.9257 14.7517 43.8296 15.906Z" fill="url(#paint26_linear_67_924)"/>
<path d="M30.5152 23.9104C31.6144 23.615 31.6864 20.5506 31.4377 19.039C31.2742 18.0427 30.4171 17.3419 29.4487 17.3419C29.2721 17.3419 29.0889 17.3625 28.9122 17.4106C27.8131 17.7129 27.0803 18.9909 27.4598 20.1177C27.9439 21.5675 29.416 24.2127 30.5152 23.9104Z" fill="url(#paint27_linear_67_924)"/>
<path d="M21.1526 22.0416C20.3413 22.8798 20.3151 24.3777 21.1788 25.1541C22.2845 26.1572 24.8165 27.6619 25.6278 26.8237C26.4391 25.9854 25.039 23.2989 24.1099 22.1172C23.737 21.6431 23.1874 21.4026 22.6247 21.4026C22.1013 21.4026 21.5713 21.6156 21.1526 22.0416Z" fill="url(#paint28_linear_67_924)"/>
<path d="M16.6316 30.1424C16.3306 31.2967 17.0176 32.6021 18.1299 32.822C19.5627 33.1037 22.4742 33.0831 22.7752 31.9288C23.0762 30.7813 20.5899 29.1804 19.2225 28.6514C19.0131 28.5689 18.7907 28.5277 18.5813 28.5277C17.7177 28.5277 16.8933 29.1598 16.6316 30.1424Z" fill="url(#paint29_linear_67_924)"/>
<path d="M16.5596 39.5347C16.8475 40.689 18.0644 41.4586 19.1309 41.0669C20.5049 40.5585 23.0173 39.0057 22.7294 37.8514C22.5266 37.0337 21.0152 36.7589 19.6412 36.7589C19.072 36.7589 18.5224 36.807 18.1037 36.8826C16.9849 37.075 16.2586 38.3048 16.5596 39.5347Z" fill="url(#paint30_linear_67_924)"/>
<path d="M20.9628 47.7042C21.7545 48.5561 23.1743 48.5836 23.9202 47.6767C24.8689 46.5155 26.3017 43.8496 25.51 42.9976C25.3399 42.819 25.0978 42.7434 24.8034 42.7434C23.7042 42.7434 21.9246 43.8221 21.0348 44.5985C20.1646 45.3543 20.1188 46.7972 20.9628 47.7042Z" fill="url(#paint31_linear_67_924)"/>
<path d="M27.2373 49.731C26.8447 50.851 27.4925 52.1221 28.6505 52.4656C29.7432 52.7817 30.9863 52.0602 31.1956 50.8853C31.4639 49.3806 31.4443 46.3162 30.3516 45.9933C30.2927 45.9727 30.2273 45.9658 30.1619 45.9658C29.0889 45.9658 27.7149 48.3706 27.2373 49.731Z" fill="url(#paint32_linear_67_924)"/>
<path d="M35.9653 46.0414C34.8661 46.3369 34.8007 49.4013 35.0428 50.9129C35.2325 52.0878 36.4036 52.8573 37.5683 52.5344C38.6674 52.2321 39.4002 50.9541 39.0207 49.8204C38.5627 48.4531 37.2215 46.0071 36.1419 46.0071C36.0896 46.014 36.0242 46.0208 35.9653 46.0414Z" fill="url(#paint33_linear_67_924)"/>
<path d="M42.3771 47.8279C43.1034 48.7486 44.4774 48.7967 45.3344 47.9035C46.1457 47.0652 46.1719 45.5674 45.3083 44.791C44.425 43.994 42.6454 42.874 41.5397 42.874C41.2583 42.874 41.0228 42.9496 40.8592 43.1145C40.0545 43.9596 41.4415 46.6461 42.3771 47.8279Z" fill="url(#paint34_linear_67_924)"/>
<path d="M43.7053 38.0231C43.4043 39.1774 45.884 40.7715 47.2515 41.3005C48.3179 41.7128 49.5283 41.0326 49.8489 39.8095C50.1499 38.6621 49.4629 37.3498 48.3506 37.1299C47.8926 37.0406 47.2776 36.9788 46.643 36.9788H46.6364C45.3148 36.9788 43.9147 37.2399 43.7053 38.0231Z" fill="url(#paint35_linear_67_924)"/>
<path d="M43.7511 32.1005C44.0324 33.2548 46.944 33.3304 48.3833 33.0693C49.5022 32.87 50.2284 31.6401 49.9274 30.4171C49.6919 29.4689 48.8348 28.7819 47.945 28.7819C47.7487 28.7819 47.5524 28.8162 47.3561 28.8849C45.9756 29.3934 43.4698 30.9462 43.7511 32.1005Z" fill="url(#paint36_linear_67_924)"/>
<path d="M40.9835 26.9542C41.7817 27.8062 44.3334 26.3358 45.4522 25.3533C46.3224 24.5907 46.3682 23.1478 45.5242 22.2408C45.1251 21.8148 44.5689 21.595 44.0259 21.595C43.4763 21.595 42.9398 21.8148 42.5669 22.2683C41.6182 23.4364 40.1853 26.1022 40.9835 26.9542Z" fill="url(#paint37_linear_67_924)"/>
<path d="M35.2914 19.0665C35.0231 20.5712 35.0428 23.6356 36.1419 23.9585C37.2346 24.2746 38.7525 21.6568 39.2563 20.2208C39.6488 19.1009 39.0011 17.8229 37.843 17.4862C37.6664 17.4381 37.4897 17.4106 37.3131 17.4106C36.3709 17.4106 35.468 18.084 35.2914 19.0665Z" fill="url(#paint38_linear_67_924)"/>
<path d="M40.2769 34.9726C40.2769 34.1 40.1265 33.2686 39.8647 32.4922C39.3348 33.3511 38.4188 33.9282 37.372 33.9282C35.7363 33.9282 34.4081 32.5334 34.4081 30.8157C34.4081 29.6683 35.0035 28.672 35.8802 28.1292C35.0689 27.7857 34.1791 27.5864 33.2435 27.5864C29.3572 27.5864 26.2101 30.8913 26.2101 34.9726C26.2101 39.0538 29.3572 42.3587 33.2435 42.3587C37.1299 42.3587 40.2769 39.0538 40.2769 34.9726Z" fill="url(#paint39_linear_67_924)"/>
</g>
<defs>
<linearGradient id="paint0_linear_67_924" x1="82.908" y1="-27.1148" x2="82.908" y2="93.3562" gradientUnits="userSpaceOnUse">
<stop stop-color="#E83A4F"/>
<stop offset="0.2471" stop-color="#D5313B"/>
<stop offset="0.6908" stop-color="#B12018"/>
<stop offset="1" stop-color="#B12018"/>
</linearGradient>
<linearGradient id="paint1_linear_67_924" x1="100.53" y1="-27.1148" x2="100.53" y2="93.3562" gradientUnits="userSpaceOnUse">
<stop stop-color="#E83A4F"/>
<stop offset="0.2471" stop-color="#D5313B"/>
<stop offset="0.6908" stop-color="#B12018"/>
<stop offset="1" stop-color="#B12018"/>
</linearGradient>
<linearGradient id="paint2_linear_67_924" x1="114.29" y1="-27.1148" x2="114.29" y2="93.3562" gradientUnits="userSpaceOnUse">
<stop stop-color="#E83A4F"/>
<stop offset="0.2471" stop-color="#D5313B"/>
<stop offset="0.6908" stop-color="#B12018"/>
<stop offset="1" stop-color="#B12018"/>
</linearGradient>
<linearGradient id="paint3_linear_67_924" x1="128.106" y1="-27.1148" x2="128.106" y2="93.3562" gradientUnits="userSpaceOnUse">
<stop stop-color="#E83A4F"/>
<stop offset="0.2471" stop-color="#D5313B"/>
<stop offset="0.6908" stop-color="#B12018"/>
<stop offset="1" stop-color="#B12018"/>
</linearGradient>
<linearGradient id="paint4_linear_67_924" x1="143.211" y1="-27.1148" x2="143.211" y2="93.3562" gradientUnits="userSpaceOnUse">
<stop stop-color="#E83A4F"/>
<stop offset="0.2471" stop-color="#D5313B"/>
<stop offset="0.6908" stop-color="#B12018"/>
<stop offset="1" stop-color="#B12018"/>
</linearGradient>
<linearGradient id="paint5_linear_67_924" x1="158.75" y1="-27.1148" x2="158.75" y2="93.3562" gradientUnits="userSpaceOnUse">
<stop stop-color="#E83A4F"/>
<stop offset="0.2471" stop-color="#D5313B"/>
<stop offset="0.6908" stop-color="#B12018"/>
<stop offset="1" stop-color="#B12018"/>
</linearGradient>
<linearGradient id="paint6_linear_67_924" x1="173.747" y1="-27.1148" x2="173.747" y2="93.3562" gradientUnits="userSpaceOnUse">
<stop stop-color="#E83A4F"/>
<stop offset="0.2471" stop-color="#D5313B"/>
<stop offset="0.6908" stop-color="#B12018"/>
<stop offset="1" stop-color="#B12018"/>
</linearGradient>
<linearGradient id="paint7_linear_67_924" x1="77.316" y1="-27.1149" x2="77.316" y2="93.3562" gradientUnits="userSpaceOnUse">
<stop stop-color="#E83A4F"/>
<stop offset="0.2471" stop-color="#D5313B"/>
<stop offset="0.6908" stop-color="#B12018"/>
<stop offset="1" stop-color="#B12018"/>
</linearGradient>
<linearGradient id="paint8_linear_67_924" x1="89.5785" y1="-27.1148" x2="89.5785" y2="93.3562" gradientUnits="userSpaceOnUse">
<stop stop-color="#E83A4F"/>
<stop offset="0.2471" stop-color="#D5313B"/>
<stop offset="0.6908" stop-color="#B12018"/>
<stop offset="1" stop-color="#B12018"/>
</linearGradient>
<linearGradient id="paint9_linear_67_924" x1="107.108" y1="-27.1148" x2="107.108" y2="93.3561" gradientUnits="userSpaceOnUse">
<stop stop-color="#E83A4F"/>
<stop offset="0.2471" stop-color="#D5313B"/>
<stop offset="0.6908" stop-color="#B12018"/>
<stop offset="1" stop-color="#B12018"/>
</linearGradient>
<linearGradient id="paint10_linear_67_924" x1="123.647" y1="-27.1148" x2="123.647" y2="93.3561" gradientUnits="userSpaceOnUse">
<stop stop-color="#E83A4F"/>
<stop offset="0.2471" stop-color="#D5313B"/>
<stop offset="0.6908" stop-color="#B12018"/>
<stop offset="1" stop-color="#B12018"/>
</linearGradient>
<linearGradient id="paint11_linear_67_924" x1="138.935" y1="-27.1149" x2="138.935" y2="93.3562" gradientUnits="userSpaceOnUse">
<stop stop-color="#E83A4F"/>
<stop offset="0.2471" stop-color="#D5313B"/>
<stop offset="0.6908" stop-color="#B12018"/>
<stop offset="1" stop-color="#B12018"/>
</linearGradient>
<linearGradient id="paint12_linear_67_924" x1="153.922" y1="-27.1149" x2="153.922" y2="93.3562" gradientUnits="userSpaceOnUse">
<stop stop-color="#E83A4F"/>
<stop offset="0.2471" stop-color="#D5313B"/>
<stop offset="0.6908" stop-color="#B12018"/>
<stop offset="1" stop-color="#B12018"/>
</linearGradient>
<linearGradient id="paint13_linear_67_924" x1="170.235" y1="-27.1148" x2="170.235" y2="93.3561" gradientUnits="userSpaceOnUse">
<stop stop-color="#E83A4F"/>
<stop offset="0.2471" stop-color="#D5313B"/>
<stop offset="0.6908" stop-color="#B12018"/>
<stop offset="1" stop-color="#B12018"/>
</linearGradient>
<linearGradient id="paint14_linear_67_924" x1="188.034" y1="-27.1149" x2="188.034" y2="93.3562" gradientUnits="userSpaceOnUse">
<stop stop-color="#E83A4F"/>
<stop offset="0.2471" stop-color="#D5313B"/>
<stop offset="0.6908" stop-color="#B12018"/>
<stop offset="1" stop-color="#B12018"/>
</linearGradient>
<linearGradient id="paint15_linear_67_924" x1="33.3341" y1="-27.1148" x2="33.3341" y2="93.3561" gradientUnits="userSpaceOnUse">
<stop stop-color="#E83A4F"/>
<stop offset="0.2471" stop-color="#D5313B"/>
<stop offset="0.6908" stop-color="#B12018"/>
<stop offset="1" stop-color="#B12018"/>
</linearGradient>
<linearGradient id="paint16_linear_67_924" x1="19.2187" y1="-27.1148" x2="19.2187" y2="93.3561" gradientUnits="userSpaceOnUse">
<stop stop-color="#E83A4F"/>
<stop offset="0.2471" stop-color="#D5313B"/>
<stop offset="0.6908" stop-color="#B12018"/>
<stop offset="1" stop-color="#B12018"/>
</linearGradient>
<linearGradient id="paint17_linear_67_924" x1="9.64238" y1="-27.1148" x2="9.64238" y2="93.3561" gradientUnits="userSpaceOnUse">
<stop stop-color="#E83A4F"/>
<stop offset="0.2471" stop-color="#D5313B"/>
<stop offset="0.6908" stop-color="#B12018"/>
<stop offset="1" stop-color="#B12018"/>
</linearGradient>
<linearGradient id="paint18_linear_67_924" x1="6.16911" y1="-27.1148" x2="6.16911" y2="93.3561" gradientUnits="userSpaceOnUse">
<stop stop-color="#E83A4F"/>
<stop offset="0.2471" stop-color="#D5313B"/>
<stop offset="0.6908" stop-color="#B12018"/>
<stop offset="1" stop-color="#B12018"/>
</linearGradient>
<linearGradient id="paint19_linear_67_924" x1="9.62707" y1="-27.1148" x2="9.62707" y2="93.3562" gradientUnits="userSpaceOnUse">
<stop stop-color="#E83A4F"/>
<stop offset="0.2471" stop-color="#D5313B"/>
<stop offset="0.6908" stop-color="#B12018"/>
<stop offset="1" stop-color="#B12018"/>
</linearGradient>
<linearGradient id="paint20_linear_67_924" x1="19.206" y1="-27.1148" x2="19.206" y2="93.3561" gradientUnits="userSpaceOnUse">
<stop stop-color="#E83A4F"/>
<stop offset="0.2471" stop-color="#D5313B"/>
<stop offset="0.6908" stop-color="#B12018"/>
<stop offset="1" stop-color="#B12018"/>
</linearGradient>
<linearGradient id="paint21_linear_67_924" x1="33.3316" y1="-27.1149" x2="33.3316" y2="93.3561" gradientUnits="userSpaceOnUse">
<stop stop-color="#E83A4F"/>
<stop offset="0.2471" stop-color="#D5313B"/>
<stop offset="0.6908" stop-color="#B12018"/>
<stop offset="1" stop-color="#B12018"/>
</linearGradient>
<linearGradient id="paint22_linear_67_924" x1="47.447" y1="-27.1148" x2="47.447" y2="93.3561" gradientUnits="userSpaceOnUse">
<stop stop-color="#E83A4F"/>
<stop offset="0.2471" stop-color="#D5313B"/>
<stop offset="0.6908" stop-color="#B12018"/>
<stop offset="1" stop-color="#B12018"/>
</linearGradient>
<linearGradient id="paint23_linear_67_924" x1="57.0234" y1="-27.1148" x2="57.0234" y2="93.3562" gradientUnits="userSpaceOnUse">
<stop stop-color="#E83A4F"/>
<stop offset="0.2471" stop-color="#D5313B"/>
<stop offset="0.6908" stop-color="#B12018"/>
<stop offset="1" stop-color="#B12018"/>
</linearGradient>
<linearGradient id="paint24_linear_67_924" x1="60.4966" y1="-27.1148" x2="60.4966" y2="93.3561" gradientUnits="userSpaceOnUse">
<stop stop-color="#E83A4F"/>
<stop offset="0.2471" stop-color="#D5313B"/>
<stop offset="0.6908" stop-color="#B12018"/>
<stop offset="1" stop-color="#B12018"/>
</linearGradient>
<linearGradient id="paint25_linear_67_924" x1="57.0362" y1="-27.1149" x2="57.0362" y2="93.3561" gradientUnits="userSpaceOnUse">
<stop stop-color="#E83A4F"/>
<stop offset="0.2471" stop-color="#D5313B"/>
<stop offset="0.6908" stop-color="#B12018"/>
<stop offset="1" stop-color="#B12018"/>
</linearGradient>
<linearGradient id="paint26_linear_67_924" x1="47.4598" y1="-27.1148" x2="47.4598" y2="93.3561" gradientUnits="userSpaceOnUse">
<stop stop-color="#E83A4F"/>
<stop offset="0.2471" stop-color="#D5313B"/>
<stop offset="0.6908" stop-color="#B12018"/>
<stop offset="1" stop-color="#B12018"/>
</linearGradient>
<linearGradient id="paint27_linear_67_924" x1="29.4597" y1="-27.1149" x2="29.4597" y2="93.3561" gradientUnits="userSpaceOnUse">
<stop stop-color="#E83A4F"/>
<stop offset="0.2471" stop-color="#D5313B"/>
<stop offset="0.6908" stop-color="#B12018"/>
<stop offset="1" stop-color="#B12018"/>
</linearGradient>
<linearGradient id="paint28_linear_67_924" x1="23.2083" y1="-27.1149" x2="23.2083" y2="93.3561" gradientUnits="userSpaceOnUse">
<stop stop-color="#E83A4F"/>
<stop offset="0.2471" stop-color="#D5313B"/>
<stop offset="0.6908" stop-color="#B12018"/>
<stop offset="1" stop-color="#B12018"/>
</linearGradient>
<linearGradient id="paint29_linear_67_924" x1="19.6865" y1="-27.1148" x2="19.6865" y2="93.3562" gradientUnits="userSpaceOnUse">
<stop stop-color="#E83A4F"/>
<stop offset="0.2471" stop-color="#D5313B"/>
<stop offset="0.6908" stop-color="#B12018"/>
<stop offset="1" stop-color="#B12018"/>
</linearGradient>
<linearGradient id="paint30_linear_67_924" x1="19.6277" y1="-27.1149" x2="19.6277" y2="93.3562" gradientUnits="userSpaceOnUse">
<stop stop-color="#E83A4F"/>
<stop offset="0.2471" stop-color="#D5313B"/>
<stop offset="0.6908" stop-color="#B12018"/>
<stop offset="1" stop-color="#B12018"/>
</linearGradient>
<linearGradient id="paint31_linear_67_924" x1="23.0473" y1="-27.1149" x2="23.0473" y2="93.3562" gradientUnits="userSpaceOnUse">
<stop stop-color="#E83A4F"/>
<stop offset="0.2471" stop-color="#D5313B"/>
<stop offset="0.6908" stop-color="#B12018"/>
<stop offset="1" stop-color="#B12018"/>
</linearGradient>
<linearGradient id="paint32_linear_67_924" x1="29.2347" y1="-27.1148" x2="29.2347" y2="93.3561" gradientUnits="userSpaceOnUse">
<stop stop-color="#E83A4F"/>
<stop offset="0.2471" stop-color="#D5313B"/>
<stop offset="0.6908" stop-color="#B12018"/>
<stop offset="1" stop-color="#B12018"/>
</linearGradient>
<linearGradient id="paint33_linear_67_924" x1="37.0323" y1="-27.1149" x2="37.0323" y2="93.3562" gradientUnits="userSpaceOnUse">
<stop stop-color="#E83A4F"/>
<stop offset="0.2471" stop-color="#D5313B"/>
<stop offset="0.6908" stop-color="#B12018"/>
<stop offset="1" stop-color="#B12018"/>
</linearGradient>
<linearGradient id="paint34_linear_67_924" x1="43.2837" y1="-27.1148" x2="43.2837" y2="93.3562" gradientUnits="userSpaceOnUse">
<stop stop-color="#E83A4F"/>
<stop offset="0.2471" stop-color="#D5313B"/>
<stop offset="0.6908" stop-color="#B12018"/>
<stop offset="1" stop-color="#B12018"/>
</linearGradient>
<linearGradient id="paint35_linear_67_924" x1="46.8055" y1="-27.1149" x2="46.8055" y2="93.3562" gradientUnits="userSpaceOnUse">
<stop stop-color="#E83A4F"/>
<stop offset="0.2471" stop-color="#D5313B"/>
<stop offset="0.6908" stop-color="#B12018"/>
<stop offset="1" stop-color="#B12018"/>
</linearGradient>
<linearGradient id="paint36_linear_67_924" x1="46.8643" y1="-27.1149" x2="46.8643" y2="93.3561" gradientUnits="userSpaceOnUse">
<stop stop-color="#E83A4F"/>
<stop offset="0.2471" stop-color="#D5313B"/>
<stop offset="0.6908" stop-color="#B12018"/>
<stop offset="1" stop-color="#B12018"/>
</linearGradient>
<linearGradient id="paint37_linear_67_924" x1="43.4447" y1="-27.1148" x2="43.4447" y2="93.356" gradientUnits="userSpaceOnUse">
<stop stop-color="#E83A4F"/>
<stop offset="0.2471" stop-color="#D5313B"/>
<stop offset="0.6908" stop-color="#B12018"/>
<stop offset="1" stop-color="#B12018"/>
</linearGradient>
<linearGradient id="paint38_linear_67_924" x1="37.2572" y1="-27.1149" x2="37.2572" y2="93.3562" gradientUnits="userSpaceOnUse">
<stop stop-color="#E83A4F"/>
<stop offset="0.2471" stop-color="#D5313B"/>
<stop offset="0.6908" stop-color="#B12018"/>
<stop offset="1" stop-color="#B12018"/>
</linearGradient>
<linearGradient id="paint39_linear_67_924" x1="33.2472" y1="-27.1148" x2="33.2472" y2="93.3562" gradientUnits="userSpaceOnUse">
<stop stop-color="#E83A4F"/>
<stop offset="0.2471" stop-color="#D5313B"/>
<stop offset="0.6908" stop-color="#B12018"/>
<stop offset="1" stop-color="#B12018"/>
</linearGradient>
<clipPath id="clip0_67_924">
<rect width="196" height="70" fill="white"/>
</clipPath>
</defs>
</svg>
