<svg width="211" height="115" viewBox="0 0 211 115" fill="none" xmlns="http://www.w3.org/2000/svg">
<path d="M13.5406 111C13.4073 111 13.314 110.94 13.2606 110.82L10.7606 105.28C10.734 105.227 10.694 105.2 10.6406 105.2H8.78063C8.71396 105.2 8.68063 105.233 8.68063 105.3V110.76C8.68063 110.827 8.65396 110.887 8.60063 110.94C8.56063 110.98 8.50729 111 8.44063 111H6.10063C6.03396 111 5.97396 110.98 5.92063 110.94C5.88063 110.887 5.86063 110.827 5.86063 110.76V97.24C5.86063 97.1733 5.88063 97.12 5.92063 97.08C5.97396 97.0267 6.03396 97 6.10063 97H11.8206C12.674 97 13.4206 97.1733 14.0606 97.52C14.714 97.8667 15.214 98.36 15.5606 99C15.9206 99.64 16.1006 100.38 16.1006 101.22C16.1006 102.127 15.874 102.907 15.4206 103.56C14.9673 104.2 14.334 104.653 13.5206 104.92C13.454 104.947 13.434 104.993 13.4606 105.06L16.1806 110.72C16.2073 110.773 16.2206 110.813 16.2206 110.84C16.2206 110.947 16.1473 111 16.0006 111H13.5406ZM8.78063 99.42C8.71396 99.42 8.68063 99.4533 8.68063 99.52V102.94C8.68063 103.007 8.71396 103.04 8.78063 103.04H11.4006C11.9606 103.04 12.414 102.873 12.7606 102.54C13.1206 102.207 13.3006 101.773 13.3006 101.24C13.3006 100.707 13.1206 100.273 12.7606 99.94C12.414 99.5933 11.9606 99.42 11.4006 99.42H8.78063ZM27.8658 99.18C27.8658 99.2467 27.8391 99.3067 27.7858 99.36C27.7458 99.4 27.6924 99.42 27.6258 99.42H21.0658C20.9991 99.42 20.9658 99.4533 20.9658 99.52V102.62C20.9658 102.687 20.9991 102.72 21.0658 102.72H25.3658C25.4324 102.72 25.4858 102.747 25.5258 102.8C25.5791 102.84 25.6058 102.893 25.6058 102.96V104.9C25.6058 104.967 25.5791 105.027 25.5258 105.08C25.4858 105.12 25.4324 105.14 25.3658 105.14H21.0658C20.9991 105.14 20.9658 105.173 20.9658 105.24V108.48C20.9658 108.547 20.9991 108.58 21.0658 108.58H27.6258C27.6924 108.58 27.7458 108.607 27.7858 108.66C27.8391 108.7 27.8658 108.753 27.8658 108.82V110.76C27.8658 110.827 27.8391 110.887 27.7858 110.94C27.7458 110.98 27.6924 111 27.6258 111H18.3858C18.3191 111 18.2591 110.98 18.2058 110.94C18.1658 110.887 18.1458 110.827 18.1458 110.76V97.24C18.1458 97.1733 18.1658 97.12 18.2058 97.08C18.2591 97.0267 18.3191 97 18.3858 97H27.6258C27.6924 97 27.7458 97.0267 27.7858 97.08C27.8391 97.12 27.8658 97.1733 27.8658 97.24V99.18ZM35.6055 96.98C36.4855 96.98 37.2588 97.16 37.9255 97.52C38.5921 97.88 39.1055 98.3933 39.4655 99.06C39.8388 99.7133 40.0255 100.467 40.0255 101.32C40.0255 102.16 39.8321 102.9 39.4455 103.54C39.0721 104.18 38.5388 104.68 37.8455 105.04C37.1655 105.387 36.3788 105.56 35.4855 105.56H32.6455C32.5788 105.56 32.5455 105.593 32.5455 105.66V110.76C32.5455 110.827 32.5188 110.887 32.4655 110.94C32.4255 110.98 32.3721 111 32.3055 111H29.9655C29.8988 111 29.8388 110.98 29.7855 110.94C29.7455 110.887 29.7255 110.827 29.7255 110.76V97.22C29.7255 97.1533 29.7455 97.1 29.7855 97.06C29.8388 97.0067 29.8988 96.98 29.9655 96.98H35.6055ZM35.1855 103.3C35.7988 103.3 36.2921 103.127 36.6655 102.78C37.0388 102.42 37.2255 101.953 37.2255 101.38C37.2255 100.793 37.0388 100.32 36.6655 99.96C36.2921 99.6 35.7988 99.42 35.1855 99.42H32.6455C32.5788 99.42 32.5455 99.4533 32.5455 99.52V103.2C32.5455 103.267 32.5788 103.3 32.6455 103.3H35.1855ZM46.7391 111.22C45.6991 111.22 44.7791 111.007 43.9791 110.58C43.1924 110.153 42.5791 109.56 42.1391 108.8C41.6991 108.027 41.4791 107.14 41.4791 106.14V101.86C41.4791 100.873 41.6991 100 42.1391 99.24C42.5791 98.48 43.1924 97.8933 43.9791 97.48C44.7791 97.0533 45.6991 96.84 46.7391 96.84C47.7924 96.84 48.7124 97.0533 49.4991 97.48C50.2991 97.8933 50.9191 98.48 51.3591 99.24C51.7991 100 52.0191 100.873 52.0191 101.86V106.14C52.0191 107.14 51.7991 108.027 51.3591 108.8C50.9191 109.573 50.2991 110.173 49.4991 110.6C48.7124 111.013 47.7924 111.22 46.7391 111.22ZM46.7391 108.8C47.4724 108.8 48.0657 108.567 48.5191 108.1C48.9724 107.633 49.1991 107.013 49.1991 106.24V101.84C49.1991 101.067 48.9724 100.447 48.5191 99.98C48.0791 99.5 47.4857 99.26 46.7391 99.26C46.0057 99.26 45.4124 99.5 44.9591 99.98C44.5191 100.447 44.2991 101.067 44.2991 101.84V106.24C44.2991 107.013 44.5191 107.633 44.9591 108.1C45.4124 108.567 46.0057 108.8 46.7391 108.8ZM58.9809 111.16C57.9143 111.16 56.9809 110.993 56.1809 110.66C55.3809 110.313 54.7609 109.827 54.3209 109.2C53.8943 108.56 53.6809 107.82 53.6809 106.98V106.54C53.6809 106.473 53.7009 106.42 53.7409 106.38C53.7943 106.327 53.8543 106.3 53.9209 106.3H56.2009C56.2676 106.3 56.3209 106.327 56.3609 106.38C56.4143 106.42 56.4409 106.473 56.4409 106.54V106.84C56.4409 107.373 56.6876 107.827 57.1809 108.2C57.6743 108.56 58.3409 108.74 59.1809 108.74C59.8876 108.74 60.4143 108.593 60.7609 108.3C61.1076 107.993 61.2809 107.62 61.2809 107.18C61.2809 106.86 61.1743 106.593 60.9609 106.38C60.7476 106.153 60.4543 105.96 60.0809 105.8C59.7209 105.627 59.1409 105.393 58.3409 105.1C57.4476 104.793 56.6876 104.48 56.0609 104.16C55.4476 103.84 54.9276 103.407 54.5009 102.86C54.0876 102.3 53.8809 101.613 53.8809 100.8C53.8809 100 54.0876 99.3 54.5009 98.7C54.9143 98.1 55.4876 97.64 56.2209 97.32C56.9543 97 57.8009 96.84 58.7609 96.84C59.7743 96.84 60.6743 97.02 61.4609 97.38C62.2609 97.74 62.8809 98.2467 63.3209 98.9C63.7743 99.54 64.0009 100.287 64.0009 101.14V101.44C64.0009 101.507 63.9743 101.567 63.9209 101.62C63.8809 101.66 63.8276 101.68 63.7609 101.68H61.4609C61.3943 101.68 61.3343 101.66 61.2809 101.62C61.2409 101.567 61.2209 101.507 61.2209 101.44V101.28C61.2209 100.72 60.9876 100.247 60.5209 99.86C60.0676 99.46 59.4409 99.26 58.6409 99.26C58.0143 99.26 57.5209 99.3933 57.1609 99.66C56.8143 99.9267 56.6409 100.293 56.6409 100.76C56.6409 101.093 56.7409 101.373 56.9409 101.6C57.1543 101.827 57.4609 102.033 57.8609 102.22C58.2743 102.393 58.9076 102.633 59.7609 102.94C60.7076 103.287 61.4476 103.593 61.9809 103.86C62.5276 104.127 63.0143 104.527 63.4409 105.06C63.8809 105.58 64.1009 106.26 64.1009 107.1C64.1009 108.353 63.6409 109.347 62.7209 110.08C61.8009 110.8 60.5543 111.16 58.9809 111.16ZM66.3155 111C66.2488 111 66.1888 110.98 66.1355 110.94C66.0955 110.887 66.0755 110.827 66.0755 110.76V97.24C66.0755 97.1733 66.0955 97.12 66.1355 97.08C66.1888 97.0267 66.2488 97 66.3155 97H68.6555C68.7221 97 68.7755 97.0267 68.8155 97.08C68.8688 97.12 68.8955 97.1733 68.8955 97.24V110.76C68.8955 110.827 68.8688 110.887 68.8155 110.94C68.7755 110.98 68.7221 111 68.6555 111H66.3155ZM80.9894 97C81.056 97 81.1094 97.0267 81.1494 97.08C81.2027 97.12 81.2294 97.1733 81.2294 97.24V99.2C81.2294 99.2667 81.2027 99.3267 81.1494 99.38C81.1094 99.42 81.056 99.44 80.9894 99.44H77.4094C77.3427 99.44 77.3094 99.4733 77.3094 99.54V110.76C77.3094 110.827 77.2827 110.887 77.2294 110.94C77.1894 110.98 77.136 111 77.0694 111H74.7294C74.6627 111 74.6027 110.98 74.5494 110.94C74.5094 110.887 74.4894 110.827 74.4894 110.76V99.54C74.4894 99.4733 74.456 99.44 74.3894 99.44H70.9094C70.8427 99.44 70.7827 99.42 70.7294 99.38C70.6894 99.3267 70.6694 99.2667 70.6694 99.2V97.24C70.6694 97.1733 70.6894 97.12 70.7294 97.08C70.7827 97.0267 70.8427 97 70.9094 97H80.9894ZM87.4422 111.22C86.4022 111.22 85.4822 111.007 84.6822 110.58C83.8955 110.153 83.2822 109.56 82.8422 108.8C82.4022 108.027 82.1822 107.14 82.1822 106.14V101.86C82.1822 100.873 82.4022 100 82.8422 99.24C83.2822 98.48 83.8955 97.8933 84.6822 97.48C85.4822 97.0533 86.4022 96.84 87.4422 96.84C88.4955 96.84 89.4155 97.0533 90.2022 97.48C91.0022 97.8933 91.6222 98.48 92.0622 99.24C92.5022 100 92.7222 100.873 92.7222 101.86V106.14C92.7222 107.14 92.5022 108.027 92.0622 108.8C91.6222 109.573 91.0022 110.173 90.2022 110.6C89.4155 111.013 88.4955 111.22 87.4422 111.22ZM87.4422 108.8C88.1755 108.8 88.7689 108.567 89.2222 108.1C89.6755 107.633 89.9022 107.013 89.9022 106.24V101.84C89.9022 101.067 89.6755 100.447 89.2222 99.98C88.7822 99.5 88.1889 99.26 87.4422 99.26C86.7089 99.26 86.1155 99.5 85.6622 99.98C85.2222 100.447 85.0022 101.067 85.0022 101.84V106.24C85.0022 107.013 85.2222 107.633 85.6622 108.1C86.1155 108.567 86.7089 108.8 87.4422 108.8ZM102.564 111C102.431 111 102.337 110.94 102.284 110.82L99.7841 105.28C99.7574 105.227 99.7174 105.2 99.6641 105.2H97.8041C97.7374 105.2 97.7041 105.233 97.7041 105.3V110.76C97.7041 110.827 97.6774 110.887 97.6241 110.94C97.5841 110.98 97.5307 111 97.4641 111H95.1241C95.0574 111 94.9974 110.98 94.9441 110.94C94.9041 110.887 94.8841 110.827 94.8841 110.76V97.24C94.8841 97.1733 94.9041 97.12 94.9441 97.08C94.9974 97.0267 95.0574 97 95.1241 97H100.844C101.697 97 102.444 97.1733 103.084 97.52C103.737 97.8667 104.237 98.36 104.584 99C104.944 99.64 105.124 100.38 105.124 101.22C105.124 102.127 104.897 102.907 104.444 103.56C103.991 104.2 103.357 104.653 102.544 104.92C102.477 104.947 102.457 104.993 102.484 105.06L105.204 110.72C105.231 110.773 105.244 110.813 105.244 110.84C105.244 110.947 105.171 111 105.024 111H102.564ZM97.8041 99.42C97.7374 99.42 97.7041 99.4533 97.7041 99.52V102.94C97.7041 103.007 97.7374 103.04 97.8041 103.04H100.424C100.984 103.04 101.437 102.873 101.784 102.54C102.144 102.207 102.324 101.773 102.324 101.24C102.324 100.707 102.144 100.273 101.784 99.94C101.437 99.5933 100.984 99.42 100.424 99.42H97.8041ZM107.409 111C107.343 111 107.283 110.98 107.229 110.94C107.189 110.887 107.169 110.827 107.169 110.76V97.24C107.169 97.1733 107.189 97.12 107.229 97.08C107.283 97.0267 107.343 97 107.409 97H109.749C109.816 97 109.869 97.0267 109.909 97.08C109.963 97.12 109.989 97.1733 109.989 97.24V110.76C109.989 110.827 109.963 110.887 109.909 110.94C109.869 110.98 109.816 111 109.749 111H107.409ZM117.403 111.22C116.363 111.22 115.443 111.007 114.643 110.58C113.856 110.153 113.243 109.56 112.803 108.8C112.363 108.027 112.143 107.14 112.143 106.14V101.86C112.143 100.873 112.363 100 112.803 99.24C113.243 98.48 113.856 97.8933 114.643 97.48C115.443 97.0533 116.363 96.84 117.403 96.84C118.456 96.84 119.376 97.0533 120.163 97.48C120.963 97.8933 121.583 98.48 122.023 99.24C122.463 100 122.683 100.873 122.683 101.86V106.14C122.683 107.14 122.463 108.027 122.023 108.8C121.583 109.573 120.963 110.173 120.163 110.6C119.376 111.013 118.456 111.22 117.403 111.22ZM117.403 108.8C118.136 108.8 118.73 108.567 119.183 108.1C119.636 107.633 119.863 107.013 119.863 106.24V101.84C119.863 101.067 119.636 100.447 119.183 99.98C118.743 99.5 118.15 99.26 117.403 99.26C116.67 99.26 116.076 99.5 115.623 99.98C115.183 100.447 114.963 101.067 114.963 101.84V106.24C114.963 107.013 115.183 107.633 115.623 108.1C116.076 108.567 116.67 108.8 117.403 108.8ZM132.569 111C132.436 111 132.349 110.933 132.309 110.8L128.189 97.28L128.169 97.2C128.169 97.0667 128.242 97 128.389 97H130.909C131.056 97 131.149 97.0667 131.189 97.2L133.849 106.96C133.862 107 133.882 107.02 133.909 107.02C133.936 107.02 133.956 107 133.969 106.96L136.589 97.2C136.629 97.0667 136.722 97 136.869 97H139.329C139.409 97 139.469 97.0267 139.509 97.08C139.549 97.1333 139.556 97.2 139.529 97.28L135.349 110.8C135.309 110.933 135.222 111 135.089 111H132.569ZM141.53 111C141.464 111 141.404 110.98 141.35 110.94C141.31 110.887 141.29 110.827 141.29 110.76V97.24C141.29 97.1733 141.31 97.12 141.35 97.08C141.404 97.0267 141.464 97 141.53 97H143.87C143.937 97 143.99 97.0267 144.03 97.08C144.084 97.12 144.11 97.1733 144.11 97.24V110.76C144.11 110.827 144.084 110.887 144.03 110.94C143.99 110.98 143.937 111 143.87 111H141.53ZM154.224 111C154.091 111 153.998 110.94 153.944 110.82L151.444 105.28C151.418 105.227 151.378 105.2 151.324 105.2H149.464C149.398 105.2 149.364 105.233 149.364 105.3V110.76C149.364 110.827 149.338 110.887 149.284 110.94C149.244 110.98 149.191 111 149.124 111H146.784C146.718 111 146.658 110.98 146.604 110.94C146.564 110.887 146.544 110.827 146.544 110.76V97.24C146.544 97.1733 146.564 97.12 146.604 97.08C146.658 97.0267 146.718 97 146.784 97H152.504C153.358 97 154.104 97.1733 154.744 97.52C155.398 97.8667 155.898 98.36 156.244 99C156.604 99.64 156.784 100.38 156.784 101.22C156.784 102.127 156.558 102.907 156.104 103.56C155.651 104.2 155.018 104.653 154.204 104.92C154.138 104.947 154.118 104.993 154.144 105.06L156.864 110.72C156.891 110.773 156.904 110.813 156.904 110.84C156.904 110.947 156.831 111 156.684 111H154.224ZM149.464 99.42C149.398 99.42 149.364 99.4533 149.364 99.52V102.94C149.364 103.007 149.398 103.04 149.464 103.04H152.084C152.644 103.04 153.098 102.873 153.444 102.54C153.804 102.207 153.984 101.773 153.984 101.24C153.984 100.707 153.804 100.273 153.444 99.94C153.098 99.5933 152.644 99.42 152.084 99.42H149.464ZM168.47 97C168.537 97 168.59 97.0267 168.63 97.08C168.683 97.12 168.71 97.1733 168.71 97.24V99.2C168.71 99.2667 168.683 99.3267 168.63 99.38C168.59 99.42 168.537 99.44 168.47 99.44H164.89C164.823 99.44 164.79 99.4733 164.79 99.54V110.76C164.79 110.827 164.763 110.887 164.71 110.94C164.67 110.98 164.617 111 164.55 111H162.21C162.143 111 162.083 110.98 162.03 110.94C161.99 110.887 161.97 110.827 161.97 110.76V99.54C161.97 99.4733 161.937 99.44 161.87 99.44H158.39C158.323 99.44 158.263 99.42 158.21 99.38C158.17 99.3267 158.15 99.2667 158.15 99.2V97.24C158.15 97.1733 158.17 97.12 158.21 97.08C158.263 97.0267 158.323 97 158.39 97H168.47ZM175.589 111.16C174.562 111.16 173.656 110.96 172.869 110.56C172.096 110.16 171.489 109.6 171.049 108.88C170.622 108.147 170.409 107.307 170.409 106.36V97.24C170.409 97.1733 170.429 97.12 170.469 97.08C170.522 97.0267 170.582 97 170.649 97H172.989C173.056 97 173.109 97.0267 173.149 97.08C173.202 97.12 173.229 97.1733 173.229 97.24V106.38C173.229 107.087 173.442 107.66 173.869 108.1C174.309 108.527 174.882 108.74 175.589 108.74C176.296 108.74 176.862 108.527 177.289 108.1C177.729 107.66 177.949 107.087 177.949 106.38V97.24C177.949 97.1733 177.969 97.12 178.009 97.08C178.062 97.0267 178.122 97 178.189 97H180.529C180.596 97 180.649 97.0267 180.689 97.08C180.742 97.12 180.769 97.1733 180.769 97.24V106.36C180.769 107.307 180.549 108.147 180.109 108.88C179.682 109.6 179.076 110.16 178.289 110.56C177.516 110.96 176.616 111.16 175.589 111.16ZM191.616 111C191.483 111 191.396 110.933 191.356 110.8L190.756 108.84C190.729 108.787 190.696 108.76 190.656 108.76H185.736C185.696 108.76 185.663 108.787 185.636 108.84L185.056 110.8C185.016 110.933 184.929 111 184.796 111H182.256C182.176 111 182.116 110.98 182.076 110.94C182.036 110.887 182.029 110.813 182.056 110.72L186.376 97.2C186.416 97.0667 186.503 97 186.636 97H189.776C189.909 97 189.996 97.0667 190.036 97.2L194.356 110.72C194.369 110.747 194.376 110.78 194.376 110.82C194.376 110.94 194.303 111 194.156 111H191.616ZM186.356 106.46C186.343 106.54 186.369 106.58 186.436 106.58H189.956C190.036 106.58 190.063 106.54 190.036 106.46L188.236 100.52C188.223 100.467 188.203 100.447 188.176 100.46C188.149 100.46 188.129 100.48 188.116 100.52L186.356 106.46ZM196.374 111C196.307 111 196.247 110.98 196.194 110.94C196.154 110.887 196.134 110.827 196.134 110.76V97.24C196.134 97.1733 196.154 97.12 196.194 97.08C196.247 97.0267 196.307 97 196.374 97H198.714C198.781 97 198.834 97.0267 198.874 97.08C198.927 97.12 198.954 97.1733 198.954 97.24V108.48C198.954 108.547 198.987 108.58 199.054 108.58H205.594C205.661 108.58 205.714 108.607 205.754 108.66C205.807 108.7 205.834 108.753 205.834 108.82V110.76C205.834 110.827 205.807 110.887 205.754 110.94C205.714 110.98 205.661 111 205.594 111H196.374Z" fill="#4D4D4D"/>
<g clip-path="url(#clip0_320_22)">
<path d="M106.272 19.346H114.981V16.6339H106.272V19.346ZM106.272 46.4665H114.981V43.7544H106.272V46.4665ZM106.272 42.1272H114.981V21.154H106.272V42.1272ZM106.272 51.7098H114.981V48.0937H106.272V51.7098ZM106.272 15.0067H114.981V10.4866H106.272V15.0067ZM129.676 47.1897L123.689 48.4553L124.415 51.8906L130.402 50.625L129.676 47.1897ZM127.317 40.3192C126.773 39.2344 125.685 38.8728 124.596 39.2344C123.508 39.596 122.963 40.8616 123.326 41.9464C123.689 43.0312 124.778 43.7544 125.866 43.3928C126.955 43.0312 127.68 41.5848 127.317 40.3192ZM129.313 45.3817L123.326 46.6473L117.339 17.5379L123.326 16.2723L129.313 45.3817ZM122.238 10.3058L116.251 11.5714L117.158 15.9107L123.145 14.6451L122.238 10.3058ZM92.1209 24.2277V45.5625C94.1166 44.8393 96.1123 44.4777 98.2894 44.4777C100.104 44.4777 101.918 44.6585 103.551 45.3817V24.4085C101.918 25.1317 100.104 25.3125 98.2894 25.3125C96.1123 25.3125 94.1166 24.9509 92.1209 24.2277ZM92.1209 22.4196C94.1166 23.1428 96.1123 23.6853 98.2894 23.5044C100.104 23.6853 101.918 23.3236 103.551 22.4196V19.346H92.1209V22.4196V22.4196ZM92.1209 47.5513V51.7098H103.551V47.5513C101.918 46.6473 100.104 46.2857 98.2894 46.4665C96.1123 46.2857 94.1166 46.6473 92.1209 47.5513ZM81.5983 51.529H90.3067V47.9129H81.5983V51.529ZM83.2311 40.8616C83.2311 42.308 84.5011 43.5736 85.9525 43.5736C87.4039 43.5736 88.6739 42.308 88.6739 40.8616C88.6739 39.4152 87.4039 38.1495 85.9525 38.1495C85.2268 38.1495 84.5011 38.5111 83.9568 38.8728C83.4125 39.596 83.2311 40.1384 83.2311 40.8616ZM81.5983 16.6339H90.3067V46.2857H81.5983V16.6339ZM81.5983 10.6674H90.3067V15.0067H81.5983V10.6674Z" fill="#4D4D4D"/>
<path d="M124.778 76.8415H114.618C114.255 76.8415 113.892 76.4799 113.892 76.1183V73.9487C113.892 73.5871 113.529 73.2255 113.166 73.2255H98.8337C98.4709 73.2255 98.108 73.5871 98.108 73.9487V76.1183C98.108 76.4799 97.7451 76.8415 97.3823 76.8415H87.2225C86.8596 76.8415 86.4968 77.2031 86.4968 77.5648V80.4576C86.4968 80.8192 86.8596 81.1808 87.2225 81.1808H124.596C124.959 81.1808 125.322 80.8192 125.322 80.4576V77.5648C125.322 77.0223 125.14 76.8415 124.778 76.8415Z" fill="#4D4D4D"/>
<path d="M144.009 57.6763H67.9914V5.42411C67.9914 4.70089 68.5356 4.15848 69.2613 4.15848H142.557C143.283 4.15848 143.827 4.70089 143.827 5.42411V57.6763H144.009ZM106.091 65.0893C104.821 65.0893 103.732 64.0045 103.732 62.7388C103.732 61.4732 104.821 60.3884 106.091 60.3884C107.361 60.3884 108.449 61.4732 108.449 62.7388C108.449 64.0045 107.361 65.0893 106.091 65.0893ZM142.739 0H69.4428C66.3585 0 64 2.35045 64 5.42411V64.3661C64 67.2589 66.3585 69.7902 69.4428 69.7902H142.739C145.641 69.7902 148.181 67.4397 148.181 64.3661V5.42411C148 2.35045 145.641 0 142.739 0Z" fill="#4D4D4D"/>
</g>
<defs>
<clipPath id="clip0_320_22">
<rect width="84" height="81" fill="white" transform="translate(64)"/>
</clipPath>
</defs>
</svg>
