<svg width="245" height="107" viewBox="0 0 245 107" fill="none" xmlns="http://www.w3.org/2000/svg">
<path d="M39.5232 100L36.7182 95.325H35.6642V100H33.2672V87.998H37.8402C39.2342 87.998 40.2939 88.338 41.0192 89.018C41.7559 89.698 42.1242 90.5933 42.1242 91.704C42.1242 92.6107 41.8692 93.37 41.3592 93.982C40.8605 94.594 40.1352 95.002 39.1832 95.206L42.1752 100H39.5232ZM35.6642 93.676H37.6362C39.0075 93.676 39.6932 93.0697 39.6932 91.857C39.6932 91.279 39.5232 90.8313 39.1832 90.514C38.8545 90.1853 38.3389 90.021 37.6362 90.021H35.6642V93.676ZM46.1398 89.902V93.013H50.3898V94.849H46.1398V98.079H50.8998V100H43.7428V87.998H50.8998V89.902H46.1398ZM55.0714 95.546V100H52.6744V87.998H57.0434C58.4601 87.998 59.5254 88.338 60.2394 89.018C60.9648 89.698 61.3274 90.6217 61.3274 91.789C61.3274 92.9337 60.9534 93.846 60.2054 94.526C59.4688 95.206 58.4148 95.546 57.0434 95.546H55.0714ZM56.7884 93.625C58.1938 93.625 58.8964 93.013 58.8964 91.789C58.8964 91.1883 58.7321 90.7293 58.4034 90.412C58.0748 90.0947 57.5364 89.936 56.7884 89.936H55.0714V93.625H56.7884ZM68.5114 87.828C69.6334 87.828 70.6477 88.0887 71.5544 88.61C72.4724 89.1313 73.1921 89.8623 73.7134 90.803C74.2461 91.7323 74.5124 92.7863 74.5124 93.965C74.5124 95.1437 74.2461 96.2033 73.7134 97.144C73.1921 98.0847 72.4724 98.8157 71.5544 99.337C70.6477 99.8583 69.6334 100.119 68.5114 100.119C67.3894 100.119 66.3694 99.8583 65.4514 99.337C64.5447 98.8157 63.8251 98.0847 63.2924 97.144C62.7711 96.2033 62.5104 95.1437 62.5104 93.965C62.5104 92.7863 62.7711 91.7323 63.2924 90.803C63.8251 89.8623 64.5447 89.1313 65.4514 88.61C66.3694 88.0887 67.3894 87.828 68.5114 87.828ZM68.5114 90.038C67.8087 90.038 67.1911 90.1967 66.6584 90.514C66.1257 90.8313 65.7064 91.2903 65.4004 91.891C65.1057 92.4803 64.9584 93.1717 64.9584 93.965C64.9584 94.7583 65.1057 95.4553 65.4004 96.056C65.7064 96.6453 66.1257 97.0987 66.6584 97.416C67.1911 97.7333 67.8087 97.892 68.5114 97.892C69.2141 97.892 69.8317 97.7333 70.3644 97.416C70.8971 97.0987 71.3107 96.6453 71.6054 96.056C71.9114 95.4553 72.0644 94.7583 72.0644 93.965C72.0644 93.1717 71.9114 92.4803 71.6054 91.891C71.3107 91.2903 70.8971 90.8313 70.3644 90.514C69.8317 90.1967 69.2141 90.038 68.5114 90.038ZM84.5601 96.719C84.5601 97.331 84.4071 97.8977 84.1011 98.419C83.7951 98.929 83.3417 99.3427 82.7411 99.66C82.1404 99.966 81.4094 100.119 80.5481 100.119C79.6981 100.119 78.9387 99.9773 78.2701 99.694C77.6014 99.3993 77.0631 98.98 76.6551 98.436C76.2584 97.892 76.0317 97.2573 75.9751 96.532H78.5251C78.5817 97.0193 78.7744 97.4273 79.1031 97.756C79.4431 98.0733 79.8907 98.232 80.4461 98.232C80.9447 98.232 81.3244 98.1017 81.5851 97.841C81.8571 97.569 81.9931 97.2233 81.9931 96.804C81.9931 96.43 81.8854 96.124 81.6701 95.886C81.4547 95.6367 81.1827 95.4383 80.8541 95.291C80.5254 95.1437 80.0721 94.9737 79.4941 94.781C78.7461 94.5317 78.1341 94.288 77.6581 94.05C77.1821 93.8007 76.7741 93.4437 76.4341 92.979C76.1054 92.5143 75.9411 91.908 75.9411 91.16C75.9411 90.1287 76.3094 89.3183 77.0461 88.729C77.7941 88.1283 78.7801 87.828 80.0041 87.828C81.2734 87.828 82.2821 88.134 83.0301 88.746C83.7894 89.358 84.2201 90.174 84.3221 91.194H81.7381C81.6701 90.7633 81.4887 90.412 81.1941 90.14C80.8994 89.8567 80.4971 89.715 79.9871 89.715C79.5451 89.715 79.1881 89.834 78.9161 90.072C78.6441 90.2987 78.5081 90.633 78.5081 91.075C78.5081 91.4263 78.6101 91.721 78.8141 91.959C79.0294 92.1857 79.2957 92.3727 79.6131 92.52C79.9417 92.6673 80.3837 92.8317 80.9391 93.013C81.7097 93.285 82.3331 93.54 82.8091 93.778C83.2964 94.016 83.7101 94.373 84.0501 94.849C84.3901 95.325 84.5601 95.9483 84.5601 96.719ZM88.7228 87.998V100H86.3258V87.998H88.7228ZM99.0512 87.998V89.902H95.7362V100H93.3392V89.902H90.0412V87.998H99.0512ZM105.998 87.828C107.12 87.828 108.134 88.0887 109.041 88.61C109.959 89.1313 110.678 89.8623 111.2 90.803C111.732 91.7323 111.999 92.7863 111.999 93.965C111.999 95.1437 111.732 96.2033 111.2 97.144C110.678 98.0847 109.959 98.8157 109.041 99.337C108.134 99.8583 107.12 100.119 105.998 100.119C104.876 100.119 103.856 99.8583 102.938 99.337C102.031 98.8157 101.311 98.0847 100.779 97.144C100.257 96.2033 99.9967 95.1437 99.9967 93.965C99.9967 92.7863 100.257 91.7323 100.779 90.803C101.311 89.8623 102.031 89.1313 102.938 88.61C103.856 88.0887 104.876 87.828 105.998 87.828ZM105.998 90.038C105.295 90.038 104.677 90.1967 104.145 90.514C103.612 90.8313 103.193 91.2903 102.887 91.891C102.592 92.4803 102.445 93.1717 102.445 93.965C102.445 94.7583 102.592 95.4553 102.887 96.056C103.193 96.6453 103.612 97.0987 104.145 97.416C104.677 97.7333 105.295 97.892 105.998 97.892C106.7 97.892 107.318 97.7333 107.851 97.416C108.383 97.0987 108.797 96.6453 109.092 96.056C109.398 95.4553 109.551 94.7583 109.551 93.965C109.551 93.1717 109.398 92.4803 109.092 91.891C108.797 91.2903 108.383 90.8313 107.851 90.514C107.318 90.1967 106.7 90.038 105.998 90.038ZM120.057 100L117.252 95.325H116.198V100H113.801V87.998H118.374C119.768 87.998 120.828 88.338 121.553 89.018C122.29 89.698 122.658 90.5933 122.658 91.704C122.658 92.6107 122.403 93.37 121.893 93.982C121.395 94.594 120.669 95.002 119.717 95.206L122.709 100H120.057ZM116.198 93.676H118.17C119.542 93.676 120.227 93.0697 120.227 91.857C120.227 91.279 120.057 90.8313 119.717 90.514C119.389 90.1853 118.873 90.021 118.17 90.021H116.198V93.676ZM126.674 87.998V100H124.277V87.998H126.674ZM134.469 87.828C135.591 87.828 136.606 88.0887 137.512 88.61C138.43 89.1313 139.15 89.8623 139.671 90.803C140.204 91.7323 140.47 92.7863 140.47 93.965C140.47 95.1437 140.204 96.2033 139.671 97.144C139.15 98.0847 138.43 98.8157 137.512 99.337C136.606 99.8583 135.591 100.119 134.469 100.119C133.347 100.119 132.327 99.8583 131.409 99.337C130.503 98.8157 129.783 98.0847 129.25 97.144C128.729 96.2033 128.468 95.1437 128.468 93.965C128.468 92.7863 128.729 91.7323 129.25 90.803C129.783 89.8623 130.503 89.1313 131.409 88.61C132.327 88.0887 133.347 87.828 134.469 87.828ZM134.469 90.038C133.767 90.038 133.149 90.1967 132.616 90.514C132.084 90.8313 131.664 91.2903 131.358 91.891C131.064 92.4803 130.916 93.1717 130.916 93.965C130.916 94.7583 131.064 95.4553 131.358 96.056C131.664 96.6453 132.084 97.0987 132.616 97.416C133.149 97.7333 133.767 97.892 134.469 97.892C135.172 97.892 135.79 97.7333 136.322 97.416C136.855 97.0987 137.269 96.6453 137.563 96.056C137.869 95.4553 138.022 94.7583 138.022 93.965C138.022 93.1717 137.869 92.4803 137.563 91.891C137.269 91.2903 136.855 90.8313 136.322 90.514C135.79 90.1967 135.172 90.038 134.469 90.038ZM147.658 87.998L150.871 97.501L154.101 87.998H156.668L152.418 100H149.341L145.091 87.998H147.658ZM160.359 87.998V100H157.962V87.998H160.359ZM168.783 100L165.978 95.325H164.924V100H162.527V87.998H167.1C168.494 87.998 169.554 88.338 170.279 89.018C171.016 89.698 171.384 90.5933 171.384 91.704C171.384 92.6107 171.129 93.37 170.619 93.982C170.12 94.594 169.395 95.002 168.443 95.206L171.435 100H168.783ZM164.924 93.676H166.896C168.267 93.676 168.953 93.0697 168.953 91.857C168.953 91.279 168.783 90.8313 168.443 90.514C168.114 90.1853 167.599 90.021 166.896 90.021H164.924V93.676ZM181.163 87.998V89.902H177.848V100H175.451V89.902H172.153V87.998H181.163ZM184.794 87.998V95.036C184.794 95.9767 184.998 96.685 185.406 97.161C185.825 97.6257 186.426 97.858 187.208 97.858C187.979 97.858 188.568 97.6257 188.976 97.161C189.395 96.685 189.605 95.9767 189.605 95.036V87.998H191.985V95.036C191.985 96.1467 191.775 97.0873 191.356 97.858C190.948 98.6173 190.376 99.184 189.639 99.558C188.914 99.932 188.086 100.119 187.157 100.119C185.718 100.119 184.567 99.6883 183.706 98.827C182.845 97.9657 182.414 96.702 182.414 95.036V87.998H184.794ZM201.397 97.586H196.586L195.736 100H193.203L197.623 88.134H200.36L204.763 100H202.23L201.397 97.586ZM200.751 95.767L198.983 90.701L197.215 95.767H200.751ZM208.453 98.164H212.482V100H206.056V87.998H208.453V98.164Z" fill="#4D4D4D"/>
<g clip-path="url(#clip0_320_14)">
<path d="M122.724 16.0022H129.877V13.7589H122.724V16.0022ZM122.724 38.4353H129.877V36.1919H122.724V38.4353ZM122.724 34.846H129.877V17.4978H122.724V34.846ZM122.724 42.7723H129.877V39.7812H122.724V42.7723ZM122.724 12.4129H129.877V8.67409H122.724V12.4129ZM141.948 39.0335L137.03 40.0803L137.626 42.9219L142.544 41.875L141.948 39.0335ZM140.011 33.3504C139.564 32.4531 138.67 32.154 137.775 32.4531C136.881 32.7522 136.434 33.7991 136.732 34.6964C137.03 35.5937 137.924 36.1919 138.819 35.8928C139.713 35.5937 140.309 34.3973 140.011 33.3504ZM141.65 37.5379L136.732 38.5848L131.814 14.5067L136.732 13.4598L141.65 37.5379ZM135.838 8.52454L130.92 9.57141L131.665 13.1607L136.583 12.1138L135.838 8.52454ZM111.099 20.0402V37.6875C112.739 37.0893 114.378 36.7902 116.166 36.7902C117.657 36.7902 119.147 36.9397 120.488 37.5379V20.1897C119.147 20.7879 117.657 20.9375 116.166 20.9375C114.378 20.9375 112.739 20.6384 111.099 20.0402ZM111.099 18.5446C112.739 19.1428 114.378 19.5915 116.166 19.4419C117.657 19.5915 119.147 19.2924 120.488 18.5446V16.0022H111.099V18.5446ZM111.099 39.3326V42.7723H120.488V39.3326C119.147 38.5848 117.657 38.2857 116.166 38.4353C114.378 38.2857 112.739 38.5848 111.099 39.3326ZM102.456 42.6228H109.609V39.6317H102.456V42.6228ZM103.797 33.7991C103.797 34.9955 104.84 36.0424 106.032 36.0424C107.225 36.0424 108.268 34.9955 108.268 33.7991C108.268 32.6027 107.225 31.5558 106.032 31.5558C105.436 31.5558 104.84 31.8549 104.393 32.154C103.946 32.7522 103.797 33.2009 103.797 33.7991ZM102.456 13.7589H109.609V38.2857H102.456V13.7589ZM102.456 8.82364H109.609V12.4129H102.456V8.82364Z" fill="#4D4D4D"/>
<path d="M137.924 63.5603H129.579C129.281 63.5603 128.983 63.2612 128.983 62.9621V61.1674C128.983 60.8683 128.685 60.5692 128.387 60.5692H116.613C116.315 60.5692 116.017 60.8683 116.017 61.1674V62.9621C116.017 63.2612 115.719 63.5603 115.421 63.5603H107.076C106.778 63.5603 106.479 63.8594 106.479 64.1585V66.5514C106.479 66.8505 106.778 67.1496 107.076 67.1496H137.775C138.073 67.1496 138.372 66.8505 138.372 66.5514V64.1585C138.372 63.7098 138.222 63.5603 137.924 63.5603Z" fill="#4D4D4D"/>
<path d="M153.721 47.7076H91.2786V4.48661C91.2786 3.88839 91.7257 3.43973 92.3218 3.43973H152.529C153.125 3.43973 153.572 3.88839 153.572 4.48661V47.7076H153.721ZM122.575 53.8393C121.531 53.8393 120.637 52.942 120.637 51.8951C120.637 50.8482 121.531 49.9509 122.575 49.9509C123.618 49.9509 124.512 50.8482 124.512 51.8951C124.512 52.942 123.618 53.8393 122.575 53.8393ZM152.678 0H92.4708C89.9374 0 88 1.9442 88 4.48661V53.2411C88 55.6339 89.9374 57.7277 92.4708 57.7277H152.678C155.063 57.7277 157.149 55.7835 157.149 53.2411V4.48661C157 1.9442 155.063 0 152.678 0Z" fill="#4D4D4D"/>
</g>
<defs>
<clipPath id="clip0_320_14">
<rect width="69" height="67" fill="white" transform="translate(88)"/>
</clipPath>
</defs>
</svg>
