<svg width="189" height="54" viewBox="0 0 189 54" fill="none" xmlns="http://www.w3.org/2000/svg">
<g clip-path="url(#clip0_168_27)">
<path d="M118.111 10.5726C118.054 10.6295 117.997 10.7431 117.941 10.7431C117.884 10.7431 117.827 10.8 117.714 10.8C117.657 10.8 117.543 10.7431 117.43 10.6863C117.316 10.6295 117.203 10.5726 117.089 10.4589C116.976 10.4021 116.805 10.3452 116.635 10.2316C116.465 10.1747 116.238 10.1179 116.011 10.1179C115.784 10.1179 115.614 10.1179 115.443 10.1747C115.273 10.2316 115.159 10.2884 115.046 10.4021C114.932 10.5158 114.876 10.6295 114.819 10.7431C114.762 10.8568 114.762 11.0274 114.762 11.141C114.762 11.3116 114.819 11.4821 114.932 11.6526C115.046 11.7663 115.216 11.88 115.386 11.9937C115.557 12.1074 115.784 12.1642 116.011 12.221C116.238 12.2779 116.465 12.3916 116.692 12.4484C116.919 12.5052 117.146 12.6189 117.373 12.7326C117.6 12.8463 117.827 12.96 117.997 13.1305C118.168 13.301 118.338 13.5284 118.451 13.7558C118.565 13.9831 118.622 14.2674 118.622 14.6652C118.622 15.0631 118.565 15.4042 118.451 15.7452C118.338 16.0863 118.111 16.3705 117.884 16.5979C117.657 16.8252 117.316 17.0526 116.976 17.1663C116.635 17.28 116.181 17.3937 115.727 17.3937C115.443 17.3937 115.216 17.3937 114.932 17.3368C114.649 17.28 114.422 17.2231 114.195 17.1095C113.968 16.9958 113.741 16.8821 113.514 16.7684C113.286 16.6547 113.116 16.4842 112.946 16.3137L113.4 15.5747C113.457 15.5179 113.514 15.461 113.57 15.461C113.627 15.4042 113.684 15.4042 113.797 15.4042C113.911 15.4042 114.024 15.461 114.081 15.5179C114.195 15.5747 114.308 15.6884 114.478 15.8021C114.649 15.9158 114.819 15.9726 114.989 16.0863C115.216 16.1431 115.443 16.2 115.727 16.2C116.181 16.2 116.522 16.0863 116.749 15.8589C116.976 15.6316 117.089 15.3474 117.089 14.9495C117.089 14.7221 117.032 14.5516 116.919 14.4379C116.805 14.3242 116.635 14.1537 116.465 14.0968C116.295 13.9831 116.068 13.9263 115.841 13.8695C115.614 13.8126 115.386 13.7558 115.159 13.6421C114.932 13.5284 114.705 13.4716 114.478 13.3579C114.251 13.2442 114.024 13.1305 113.854 12.96C113.684 12.7895 113.514 12.5621 113.4 12.3347C113.286 12.0505 113.23 11.7663 113.23 11.3684C113.23 11.0842 113.286 10.7431 113.4 10.4589C113.514 10.1747 113.684 9.89051 113.911 9.66314C114.138 9.43577 114.422 9.26525 114.762 9.15156C115.103 9.03788 115.5 8.92419 115.897 8.92419C116.408 8.92419 116.862 8.98104 117.259 9.15156C117.657 9.32209 118.054 9.54946 118.338 9.77683L118.111 10.5726Z" fill="#4D4D4D"/>
<path d="M121.743 17.4505H120.154V9.09473H121.743V17.4505Z" fill="#4D4D4D"/>
<path d="M128.214 10.5726C128.157 10.6295 128.1 10.7431 128.043 10.7431C127.986 10.8 127.93 10.8 127.816 10.8C127.759 10.8 127.646 10.7431 127.532 10.6863C127.419 10.6295 127.305 10.5726 127.192 10.4589C127.078 10.4021 126.908 10.3452 126.738 10.2316C126.568 10.1747 126.341 10.1179 126.114 10.1179C125.886 10.1179 125.716 10.1179 125.546 10.1747C125.376 10.2316 125.262 10.2884 125.149 10.4021C125.035 10.5158 124.978 10.6295 124.922 10.7431C124.865 10.8568 124.865 11.0274 124.865 11.141C124.865 11.3116 124.922 11.4821 125.035 11.6526C125.149 11.7663 125.262 11.88 125.489 11.9937C125.659 12.1074 125.886 12.1642 126.114 12.221C126.341 12.2779 126.568 12.3916 126.795 12.4484C127.022 12.5052 127.249 12.6189 127.476 12.7326C127.703 12.8463 127.93 12.96 128.1 13.1305C128.27 13.301 128.441 13.5284 128.554 13.7558C128.668 13.9831 128.724 14.2674 128.724 14.6652C128.724 15.0631 128.668 15.4042 128.554 15.7452C128.441 16.0863 128.214 16.3705 127.986 16.5979C127.759 16.8252 127.419 17.0526 127.078 17.1663C126.738 17.28 126.284 17.3937 125.83 17.3937C125.546 17.3937 125.319 17.3937 125.035 17.3368C124.751 17.28 124.524 17.2231 124.297 17.1095C124.07 16.9958 123.843 16.8821 123.616 16.7684C123.389 16.6547 123.219 16.4842 123.049 16.3137L123.503 15.5747C123.559 15.5179 123.616 15.461 123.673 15.461C123.73 15.4042 123.786 15.4042 123.9 15.4042C124.014 15.4042 124.127 15.461 124.241 15.5179C124.354 15.5747 124.468 15.6884 124.638 15.8021C124.808 15.9158 124.978 15.9726 125.149 16.0863C125.376 16.1431 125.603 16.2 125.886 16.2C126.341 16.2 126.681 16.0863 126.908 15.8589C127.135 15.6316 127.249 15.3474 127.249 14.9495C127.249 14.7221 127.192 14.5516 127.078 14.4379C126.965 14.3242 126.795 14.1537 126.624 14.0968C126.454 13.9831 126.227 13.9263 126 13.8695C125.773 13.8126 125.546 13.7558 125.319 13.6421C125.092 13.5852 124.865 13.4716 124.638 13.3579C124.411 13.2442 124.184 13.1305 124.014 12.96C123.843 12.7895 123.673 12.5621 123.559 12.3347C123.446 12.0505 123.389 11.7663 123.389 11.3684C123.389 11.0842 123.446 10.7431 123.559 10.4589C123.673 10.1747 123.843 9.89051 124.07 9.66314C124.297 9.43577 124.581 9.26525 124.922 9.15156C125.262 9.03788 125.659 8.92419 126.057 8.92419C126.568 8.92419 127.022 8.98104 127.419 9.15156C127.816 9.32209 128.214 9.54946 128.497 9.77683L128.214 10.5726Z" fill="#4D4D4D"/>
<path d="M135.932 9.09473V10.4021H133.435V17.5074H131.903V10.3453H129.349V9.09473H135.932Z" fill="#4D4D4D"/>
<path d="M142.289 9.09473V10.3453H138.6V12.6758H141.495V13.8695H138.6V16.2568H142.289V17.5074H137.011V9.09473H142.289Z" fill="#4D4D4D"/>
<path d="M148.135 14.381C148.192 14.4947 148.249 14.6653 148.305 14.7789C148.362 14.6653 148.419 14.4947 148.476 14.381C148.532 14.2674 148.589 14.0968 148.646 13.9831L151.143 9.32209C151.2 9.26525 151.2 9.20841 151.257 9.20841C151.314 9.15157 151.314 9.15157 151.37 9.15157C151.427 9.15157 151.484 9.15157 151.484 9.09473C151.541 9.09473 151.597 9.09473 151.654 9.09473H152.846V17.4505H151.484V12.0505C151.484 11.9368 151.484 11.8231 151.484 11.7095C151.484 11.5958 151.484 11.4821 151.484 11.3684L148.93 16.1431C148.873 16.2568 148.816 16.3137 148.703 16.3705C148.589 16.4274 148.476 16.4842 148.362 16.4842H148.135C148.022 16.4842 147.908 16.4274 147.795 16.3705C147.681 16.3137 147.624 16.2 147.568 16.1431L145.014 11.3684C145.014 11.4821 145.014 11.5958 145.07 11.7663C145.07 11.88 145.07 11.9937 145.07 12.1074V17.5074H143.708V9.09473H144.9C144.957 9.09473 145.014 9.09473 145.07 9.09473C145.127 9.09473 145.184 9.09473 145.184 9.15157C145.241 9.15157 145.241 9.20841 145.297 9.20841C145.354 9.26525 145.354 9.26525 145.411 9.32209L147.908 13.9831C148.022 14.0968 148.078 14.2105 148.135 14.381Z" fill="#4D4D4D"/>
<path d="M161.984 17.4505H160.792C160.678 17.4505 160.565 17.3937 160.451 17.3368C160.338 17.28 160.281 17.1663 160.281 17.1095L159.657 15.4042H156.195L155.57 17.1095C155.513 17.2231 155.457 17.28 155.4 17.3368C155.286 17.3937 155.173 17.4505 155.059 17.4505H153.811L157.103 9.09473H158.692L161.984 17.4505ZM156.592 14.2674H159.259L158.238 11.4821C158.181 11.3684 158.124 11.1979 158.068 11.0274C158.011 10.8568 157.954 10.6863 157.897 10.4589C157.841 10.6295 157.784 10.8568 157.727 11.0274C157.67 11.1979 157.613 11.3684 157.557 11.4821L156.592 14.2674Z" fill="#4D4D4D"/>
<path d="M121.062 27.1705C121.062 27.7958 120.949 28.3642 120.778 28.8758C120.551 29.3874 120.268 29.8421 119.927 30.1832C119.53 30.5811 119.132 30.8653 118.565 31.0358C118.054 31.2632 117.486 31.32 116.862 31.32H113.684V22.9642H116.862C117.486 22.9642 118.054 23.0779 118.565 23.2484C119.076 23.4758 119.53 23.76 119.927 24.1011C120.324 24.4421 120.608 24.8969 120.778 25.4084C120.949 25.9769 121.062 26.5453 121.062 27.1705ZM119.473 27.1705C119.473 26.7158 119.416 26.3179 119.303 25.92C119.189 25.579 119.019 25.2379 118.792 25.0105C118.565 24.7832 118.281 24.5558 117.941 24.4421C117.6 24.3284 117.259 24.2148 116.862 24.2148H115.216V30.1263H116.862C117.259 30.1263 117.657 30.0695 117.941 29.899C118.281 29.7853 118.565 29.5579 118.792 29.3305C119.019 29.1032 119.189 28.7621 119.303 28.4211C119.416 28.0232 119.473 27.6253 119.473 27.1705Z" fill="#4D4D4D"/>
<path d="M127.703 22.9642V24.2148H124.014V26.5453H126.908V27.739H124.014V30.1263H127.703V31.3769H122.424V22.9642H127.703Z" fill="#4D4D4D"/>
<path d="M138.827 31.3768H137.635C137.522 31.3768 137.408 31.3199 137.295 31.2631C137.181 31.2063 137.124 31.0926 137.124 31.0357L136.5 29.3305H133.038L132.414 31.0357C132.357 31.1494 132.3 31.2063 132.243 31.2631C132.13 31.3199 132.016 31.3768 131.903 31.3768H130.711L134.003 23.021H135.592L138.827 31.3768ZM133.435 28.1936H136.103L135.081 25.4084C135.024 25.2947 134.968 25.1242 134.911 24.9536C134.854 24.7831 134.797 24.6126 134.741 24.3852C134.684 24.5557 134.627 24.7831 134.57 24.9536C134.514 25.1242 134.457 25.2947 134.4 25.4084L133.435 28.1936Z" fill="#4D4D4D"/>
<path d="M145.297 29.3873C145.354 29.3873 145.468 29.4441 145.524 29.501L146.149 30.1831C145.808 30.581 145.411 30.922 144.9 31.1494C144.389 31.3768 143.822 31.4905 143.141 31.4905C142.516 31.4905 141.949 31.3768 141.438 31.1494C140.927 30.922 140.53 30.6378 140.189 30.2399C139.849 29.842 139.565 29.3873 139.395 28.8757C139.224 28.3641 139.111 27.7957 139.111 27.1705C139.111 26.5452 139.224 25.9768 139.395 25.4652C139.622 24.9536 139.905 24.4989 140.246 24.101C140.643 23.7031 141.097 23.4189 141.608 23.1915C142.119 22.9641 142.743 22.8505 143.368 22.8505C143.992 22.8505 144.503 22.9641 145.014 23.1347C145.468 23.3052 145.865 23.5894 146.205 23.9305L145.695 24.6694C145.638 24.7263 145.638 24.7831 145.581 24.7831C145.524 24.8399 145.468 24.8399 145.354 24.8399C145.241 24.8399 145.184 24.7831 145.07 24.7263C144.957 24.6694 144.843 24.5557 144.73 24.4989C144.559 24.442 144.389 24.3284 144.162 24.2715C143.935 24.2147 143.651 24.1578 143.311 24.1578C142.914 24.1578 142.573 24.2147 142.232 24.3852C141.892 24.5557 141.608 24.7263 141.381 24.9536C141.154 25.181 140.984 25.522 140.814 25.8631C140.7 26.2041 140.587 26.6589 140.587 27.1136C140.587 27.5684 140.643 28.0231 140.814 28.3641C140.927 28.7052 141.154 29.0463 141.381 29.2736C141.608 29.501 141.892 29.7284 142.176 29.842C142.459 29.9557 142.8 30.0694 143.197 30.0694C143.424 30.0694 143.595 30.0694 143.765 30.0126C143.935 30.0126 144.105 29.9557 144.219 29.8989C144.389 29.842 144.503 29.7852 144.616 29.7284C144.73 29.6715 144.9 29.5578 145.014 29.4441C145.07 29.3873 145.07 29.3873 145.127 29.3873C145.184 29.3873 145.241 29.3873 145.297 29.3873Z" fill="#4D4D4D"/>
<path d="M153.13 29.3873C153.186 29.3873 153.3 29.4441 153.357 29.501L153.981 30.1831C153.641 30.581 153.243 30.922 152.732 31.1494C152.222 31.3768 151.654 31.4905 150.973 31.4905C150.349 31.4905 149.781 31.3768 149.27 31.1494C148.759 30.922 148.362 30.6378 148.022 30.2399C147.681 29.842 147.397 29.3873 147.227 28.8757C147.057 28.3641 146.943 27.7957 146.943 27.1705C146.943 26.5452 147.057 25.9768 147.284 25.4652C147.511 24.9536 147.795 24.4989 148.135 24.101C148.532 23.7031 148.986 23.4189 149.497 23.1915C150.008 22.9641 150.632 22.8505 151.257 22.8505C151.881 22.8505 152.449 22.9641 152.903 23.1347C153.357 23.3052 153.754 23.5894 154.095 23.9305L153.584 24.6694C153.527 24.7263 153.527 24.7831 153.47 24.7831C153.414 24.8399 153.357 24.8399 153.243 24.8399C153.13 24.8399 153.073 24.7831 152.959 24.7263C152.846 24.6694 152.732 24.5557 152.619 24.4989C152.449 24.442 152.278 24.3284 152.051 24.2715C151.824 24.2147 151.541 24.1578 151.2 24.1578C150.803 24.1578 150.462 24.2147 150.122 24.3852C149.781 24.4989 149.497 24.7263 149.27 24.9536C149.043 25.181 148.873 25.522 148.703 25.8631C148.589 26.2041 148.476 26.6589 148.476 27.1136C148.476 27.5684 148.532 28.0231 148.703 28.3641C148.816 28.7052 149.043 29.0463 149.27 29.2736C149.497 29.501 149.781 29.7284 150.065 29.842C150.349 29.9557 150.689 30.0694 151.086 30.0694C151.314 30.0694 151.484 30.0694 151.654 30.0126C151.824 30.0126 151.995 29.9557 152.108 29.8989C152.278 29.842 152.392 29.7852 152.505 29.7284C152.619 29.6715 152.789 29.5578 152.903 29.4441C152.959 29.3873 152.959 29.3873 153.016 29.3873C153.073 29.3873 153.073 29.3873 153.13 29.3873Z" fill="#4D4D4D"/>
<path d="M157.046 31.3769H155.457V22.9642H157.046V31.3769Z" fill="#4D4D4D"/>
<path d="M167.035 27.1705C167.035 27.7957 166.922 28.3641 166.751 28.8757C166.524 29.3873 166.241 29.842 165.9 30.2399C165.503 30.6378 165.105 30.922 164.538 31.1494C164.027 31.3768 163.459 31.4905 162.835 31.4905C162.211 31.4905 161.643 31.3768 161.076 31.1494C160.565 30.922 160.111 30.6378 159.714 30.2399C159.316 29.842 159.032 29.3873 158.862 28.8757C158.635 28.3641 158.578 27.7957 158.578 27.1705C158.578 26.5452 158.692 25.9768 158.862 25.4652C159.089 24.9536 159.373 24.4989 159.714 24.101C160.111 23.7031 160.508 23.4189 161.076 23.1915C161.586 22.9641 162.154 22.8505 162.835 22.8505C163.459 22.8505 164.027 22.9641 164.538 23.1915C165.049 23.4189 165.503 23.7031 165.9 24.101C166.297 24.4989 166.581 24.9536 166.751 25.4652C166.922 25.9768 167.035 26.5452 167.035 27.1705ZM165.446 27.1705C165.446 26.7157 165.389 26.3178 165.276 25.9199C165.162 25.5789 164.992 25.2378 164.765 25.0105C164.538 24.7831 164.254 24.5557 163.914 24.442C163.573 24.3284 163.232 24.2147 162.835 24.2147C162.438 24.2147 162.041 24.2715 161.757 24.442C161.416 24.5557 161.132 24.7831 160.905 25.0105C160.678 25.2378 160.508 25.5789 160.395 25.9199C160.281 26.261 160.224 26.7157 160.224 27.1705C160.224 27.6252 160.281 28.0231 160.395 28.421C160.508 28.762 160.678 29.1031 160.905 29.3305C161.132 29.5578 161.416 29.7852 161.757 29.8989C162.097 30.0126 162.438 30.1263 162.835 30.1263C163.232 30.1263 163.63 30.0694 163.914 29.8989C164.254 29.7852 164.538 29.5578 164.765 29.3305C164.992 29.1031 165.162 28.762 165.276 28.421C165.389 28.0231 165.446 27.6252 165.446 27.1705Z" fill="#4D4D4D"/>
<path d="M169.362 22.9642C169.419 22.9642 169.476 22.9642 169.476 23.0211C169.532 23.0211 169.532 23.0779 169.589 23.0779C169.646 23.1348 169.646 23.1348 169.703 23.1916L174.073 28.819C174.073 28.7053 174.073 28.5348 174.016 28.4211C174.016 28.3074 174.016 28.1937 174.016 28.08V22.9642H175.378V31.32H174.584C174.47 31.32 174.357 31.32 174.3 31.2632C174.243 31.2063 174.13 31.1495 174.073 31.0358L169.703 25.4653C169.703 25.579 169.703 25.6927 169.703 25.8063C169.703 25.92 169.703 26.0337 169.703 26.1474V31.2632H168.341V22.9642H169.135C169.249 22.9642 169.305 22.9642 169.362 22.9642Z" fill="#4D4D4D"/>
<path d="M182.53 22.9642V24.2148H178.841V26.5453H181.735V27.739H178.841V30.1263H182.53V31.3769H177.251V22.9642H182.53Z" fill="#4D4D4D"/>
<path d="M188.489 24.4989C188.432 24.5557 188.376 24.6694 188.319 24.6694C188.262 24.6694 188.205 24.7263 188.092 24.7263C188.035 24.7263 187.922 24.6694 187.808 24.6126C187.695 24.5557 187.581 24.4989 187.468 24.3852C187.354 24.3284 187.184 24.2715 187.014 24.1578C186.843 24.101 186.616 24.0441 186.389 24.0441C186.162 24.0441 185.992 24.0441 185.822 24.101C185.651 24.1578 185.538 24.2147 185.424 24.3284C185.311 24.442 185.254 24.5557 185.197 24.6694C185.141 24.7831 185.141 24.9536 185.141 25.0673C185.141 25.2378 185.197 25.4084 185.311 25.5789C185.424 25.6926 185.595 25.8063 185.765 25.9199C185.935 26.0336 186.162 26.0905 186.389 26.1473C186.616 26.2041 186.843 26.3178 187.07 26.3747C187.297 26.4315 187.524 26.5452 187.751 26.6589C187.978 26.7726 188.205 26.8863 188.376 27.0568C188.546 27.2273 188.716 27.4547 188.83 27.682C188.943 27.9094 189 28.1936 189 28.5915C189 28.9894 188.943 29.3305 188.83 29.6715C188.716 30.0126 188.489 30.2968 188.262 30.5241C188.035 30.7515 187.695 30.9789 187.354 31.0926C187.014 31.2063 186.559 31.3199 186.105 31.3199C185.822 31.3199 185.595 31.3199 185.311 31.2631C185.027 31.2063 184.8 31.1494 184.573 31.0357C184.346 30.922 184.119 30.8084 183.892 30.6947C183.665 30.581 183.495 30.4105 183.324 30.2399L183.778 29.501C183.835 29.4441 183.892 29.3873 183.949 29.3873C184.005 29.3305 184.062 29.3305 184.176 29.3305C184.289 29.3305 184.403 29.3873 184.516 29.4441C184.63 29.501 184.743 29.6147 184.914 29.7284C185.084 29.842 185.254 29.8989 185.424 30.0126C185.651 30.0694 185.878 30.1263 186.162 30.1263C186.616 30.1263 186.957 30.0126 187.184 29.7852C187.411 29.5578 187.524 29.2736 187.524 28.8757C187.524 28.6484 187.468 28.4778 187.354 28.3641C187.241 28.2505 187.127 28.0799 186.9 28.0231C186.73 27.9094 186.503 27.8526 186.276 27.7957C186.049 27.7389 185.822 27.682 185.595 27.5684C185.368 27.5115 185.141 27.3978 184.914 27.2841C184.686 27.1705 184.459 27.0568 184.289 26.8863C184.119 26.7157 183.949 26.4884 183.835 26.261C183.722 25.9768 183.665 25.6926 183.665 25.2947C183.665 25.0105 183.722 24.6694 183.835 24.3852C183.949 24.101 184.119 23.8168 184.346 23.5894C184.573 23.362 184.857 23.1915 185.197 23.0778C185.538 22.9641 185.935 22.8505 186.332 22.8505C186.843 22.8505 187.297 22.9073 187.695 23.0778C188.092 23.2484 188.489 23.4757 188.773 23.7031L188.489 24.4989Z" fill="#4D4D4D"/>
<path d="M118.905 36.8905V38.141H115.216V40.4716H118.111V41.6652H115.216V44.0526H118.905V45.3031H113.627V36.8905H118.905Z" fill="#4D4D4D"/>
<path d="M127.816 41.0968C127.816 41.7221 127.703 42.2905 127.532 42.8021C127.305 43.3137 127.022 43.7684 126.681 44.1094C126.341 44.4505 125.887 44.7916 125.319 44.9621C124.808 45.1894 124.241 45.2463 123.616 45.2463H120.438V36.8905H123.616C124.241 36.8905 124.808 37.0042 125.319 37.1747C125.83 37.4021 126.284 37.6863 126.681 38.0273C127.078 38.3684 127.362 38.8231 127.532 39.3347C127.703 39.9031 127.816 40.4716 127.816 41.0968ZM126.227 41.0968C126.227 40.6421 126.17 40.2442 126.057 39.8463C125.943 39.5052 125.773 39.1642 125.546 38.9368C125.319 38.7094 125.035 38.4821 124.695 38.3684C124.354 38.2547 124.014 38.141 123.616 38.141H121.97V44.0526H123.616C124.014 44.0526 124.411 43.9958 124.695 43.8252C125.035 43.7116 125.319 43.4842 125.546 43.2568C125.773 43.0294 125.943 42.6884 126.057 42.3473C126.17 41.9495 126.227 41.5516 126.227 41.0968Z" fill="#4D4D4D"/>
<path d="M132.527 43.9958C132.811 43.9958 133.095 43.9389 133.322 43.8252C133.549 43.7116 133.776 43.5979 133.946 43.4273C134.116 43.2568 134.23 43.0294 134.343 42.7452C134.457 42.461 134.457 42.1768 134.457 41.8926V36.8905H135.989V41.8926C135.989 42.4042 135.932 42.8589 135.762 43.2568C135.592 43.6547 135.365 44.0526 135.081 44.3368C134.797 44.621 134.4 44.9052 134.003 45.0758C133.549 45.2463 133.095 45.36 132.584 45.36C132.073 45.36 131.562 45.2463 131.165 45.0758C130.711 44.9052 130.37 44.6779 130.087 44.3368C129.803 44.0526 129.576 43.6547 129.405 43.2568C129.235 42.8589 129.178 42.3473 129.178 41.8926V36.8905H130.711V41.8926C130.711 42.2337 130.768 42.5179 130.824 42.7452C130.938 43.0294 131.051 43.2 131.222 43.4273C131.392 43.5979 131.562 43.7684 131.846 43.8252C131.959 43.9389 132.187 43.9958 132.527 43.9958Z" fill="#4D4D4D"/>
<path d="M143.424 43.2568C143.481 43.2568 143.595 43.3137 143.651 43.3705L144.276 44.0526C143.935 44.4505 143.538 44.7915 143.027 45.0189C142.516 45.2463 141.949 45.36 141.268 45.36C140.643 45.36 140.076 45.2463 139.565 45.0189C139.054 44.7915 138.657 44.5073 138.316 44.1094C137.976 43.7115 137.692 43.2568 137.522 42.7452C137.351 42.2337 137.238 41.6652 137.238 41.04C137.238 40.4147 137.351 39.8463 137.522 39.3347C137.749 38.8231 138.032 38.3684 138.373 37.9705C138.77 37.5726 139.224 37.2884 139.735 37.061C140.246 36.8337 140.87 36.72 141.495 36.72C142.119 36.72 142.63 36.8337 143.141 37.0042C143.595 37.1747 143.992 37.4589 144.332 37.8L143.822 38.5389C143.765 38.5958 143.765 38.6526 143.708 38.6526C143.651 38.7094 143.595 38.7094 143.481 38.7094C143.368 38.7094 143.311 38.6526 143.197 38.5958C143.084 38.5389 142.97 38.4252 142.857 38.3684C142.687 38.3116 142.516 38.1979 142.289 38.141C142.062 38.0842 141.778 38.0273 141.438 38.0273C141.041 38.0273 140.7 38.0842 140.359 38.2547C140.019 38.4252 139.735 38.5958 139.508 38.8231C139.281 39.0505 139.111 39.3916 138.941 39.7326C138.827 40.0737 138.714 40.5284 138.714 40.9831C138.714 41.4379 138.77 41.8926 138.941 42.2337C139.054 42.5747 139.281 42.9158 139.508 43.1431C139.735 43.3705 140.019 43.5979 140.303 43.7116C140.587 43.8252 140.927 43.9389 141.324 43.9389C141.551 43.9389 141.722 43.9389 141.892 43.8821C142.062 43.8821 142.232 43.8252 142.346 43.7684C142.516 43.7116 142.63 43.6547 142.743 43.5979C142.857 43.541 143.027 43.4273 143.141 43.3137C143.197 43.2568 143.197 43.2568 143.254 43.2568C143.311 43.3137 143.368 43.2568 143.424 43.2568Z" fill="#4D4D4D"/>
<path d="M152.903 45.2463H151.711C151.597 45.2463 151.484 45.1895 151.37 45.1326C151.257 45.0758 151.2 44.9621 151.2 44.9052L150.576 43.2H147.114L146.489 44.9052C146.432 45.0189 146.376 45.0758 146.319 45.1326C146.205 45.1895 146.092 45.2463 145.978 45.2463H144.73L148.022 36.8905H149.611L152.903 45.2463ZM147.511 42.12H150.178L149.157 39.3347C149.1 39.221 149.043 39.0505 148.986 38.88C148.93 38.7095 148.873 38.5389 148.816 38.3116C148.759 38.4821 148.703 38.7095 148.646 38.88C148.589 39.0505 148.532 39.221 148.476 39.3347L147.511 42.12Z" fill="#4D4D4D"/>
<path d="M158.919 36.8905V38.1978H156.422V45.3031H154.889V38.141H152.335V36.8336H158.919V36.8905Z" fill="#4D4D4D"/>
<path d="M161.814 45.2463H160.224V36.8905H161.814V45.2463Z" fill="#4D4D4D"/>
<path d="M162.949 36.8905H164.197C164.311 36.8905 164.424 36.9473 164.538 37.0042C164.595 37.061 164.708 37.1747 164.708 37.2316L166.695 42.3473C166.751 42.5179 166.808 42.6884 166.865 42.9158C166.922 43.0863 166.978 43.3137 167.035 43.541C167.149 43.0863 167.205 42.6884 167.376 42.3473L169.362 37.2316C169.419 37.1179 169.476 37.061 169.532 37.0042C169.646 36.9473 169.703 36.8905 169.873 36.8905H171.122L167.716 45.2463H166.297L162.949 36.8905Z" fill="#4D4D4D"/>
<path d="M178.5 45.2463H177.308C177.195 45.2463 177.081 45.1895 176.968 45.1326C176.854 45.0758 176.797 44.9621 176.797 44.9052L176.173 43.2H172.711L172.086 44.9052C172.03 45.0189 171.973 45.0758 171.916 45.1326C171.803 45.1895 171.689 45.2463 171.576 45.2463H170.384L173.676 36.8905H175.265L178.5 45.2463ZM173.051 42.12H175.719L174.697 39.3347C174.641 39.221 174.584 39.0505 174.527 38.88C174.47 38.7095 174.414 38.5389 174.357 38.3116C174.3 38.4821 174.243 38.7095 174.186 38.88C174.13 39.0505 174.073 39.221 174.016 39.3347L173.051 42.12Z" fill="#4D4D4D"/>
<path d="M183.949 38.4253C183.892 38.4821 183.835 38.5958 183.778 38.5958C183.722 38.5958 183.665 38.6526 183.551 38.6526C183.495 38.6526 183.381 38.5958 183.268 38.539C183.154 38.4821 183.041 38.4253 182.927 38.3116C182.814 38.2548 182.643 38.1979 182.473 38.0842C182.303 38.0274 182.076 37.9705 181.849 37.9705C181.622 37.9705 181.451 37.9705 181.281 38.0274C181.111 38.0842 180.997 38.1411 180.884 38.2548C180.77 38.3684 180.714 38.4821 180.657 38.5958C180.6 38.7095 180.6 38.88 180.6 38.9937C180.6 39.1642 180.657 39.3348 180.77 39.5053C180.884 39.619 181.054 39.7326 181.224 39.8463C181.395 39.96 181.622 40.0169 181.849 40.0737C182.076 40.1305 182.303 40.2442 182.53 40.3011C182.757 40.3579 182.984 40.4716 183.211 40.5853C183.438 40.699 183.665 40.8126 183.835 40.9832C184.005 41.1537 184.176 41.3811 184.289 41.6084C184.403 41.8358 184.459 42.12 184.459 42.5179C184.459 42.9158 184.403 43.2569 184.289 43.5979C184.176 43.939 183.949 44.2232 183.722 44.4505C183.495 44.6779 183.154 44.9053 182.814 45.019C182.473 45.1326 182.019 45.2463 181.565 45.2463C181.281 45.2463 181.054 45.2463 180.77 45.1895C180.487 45.1326 180.259 45.0758 180.032 44.9621C179.805 44.8484 179.578 44.7348 179.351 44.6211C179.124 44.5074 178.954 44.3369 178.784 44.1663L179.238 43.4274C179.295 43.3705 179.351 43.3137 179.408 43.3137C179.465 43.2569 179.522 43.2569 179.635 43.2569C179.749 43.2569 179.862 43.3137 179.919 43.3705C180.032 43.4274 180.146 43.5411 180.316 43.6548C180.487 43.7684 180.657 43.8253 180.827 43.939C181.054 43.9958 181.281 44.0526 181.565 44.0526C182.019 44.0526 182.359 43.939 182.587 43.7116C182.814 43.4842 182.927 43.2 182.927 42.8021C182.927 42.5748 182.87 42.4042 182.757 42.2905C182.643 42.1769 182.473 42.0063 182.303 41.9495C182.132 41.8358 181.905 41.779 181.678 41.7221C181.451 41.6653 181.224 41.6084 180.997 41.4948C180.77 41.4379 180.543 41.3242 180.316 41.2105C180.089 41.0969 179.862 40.9832 179.692 40.8126C179.522 40.6421 179.351 40.4148 179.238 40.1874C179.124 39.9032 179.068 39.619 179.068 39.2211C179.068 38.9369 179.124 38.5958 179.238 38.3116C179.351 38.0274 179.522 37.7432 179.749 37.5158C179.976 37.2884 180.259 37.1179 180.6 37.0042C180.941 36.8905 181.338 36.7769 181.735 36.7769C182.246 36.7769 182.7 36.8337 183.097 37.0042C183.495 37.1748 183.892 37.4021 184.176 37.6295L183.949 38.4253Z" fill="#4D4D4D"/>
<path d="M23.9514 26.7158C23.1 25.92 22.0784 25.2379 20.9433 24.7263C19.9216 24.2148 18.8433 23.8169 17.7649 23.419C16.7433 23.0779 15.6649 22.7369 14.6433 22.3958C13.7351 22.1116 12.8838 21.7705 12.146 21.3727C11.5216 21.0316 11.0108 20.6905 10.6703 20.2358C10.3865 19.8948 10.273 19.44 10.273 18.9284C10.273 18.4169 10.3297 17.9621 10.5 17.5642C10.6703 17.1663 10.8973 16.8821 11.2378 16.5979C11.5784 16.3137 12.0324 16.0863 12.5433 15.9158C13.1108 15.7453 13.7919 15.6316 14.5865 15.6316C15.4946 15.6316 16.2324 15.7453 16.8568 15.9727C17.5378 16.2 18.1622 16.4842 18.6162 16.7684C19.1838 17.0527 19.6378 17.3369 20.0351 17.6211C20.6595 18.019 21.227 18.1895 21.7946 18.1895C22.3622 18.1895 22.873 18.0758 23.327 17.7916C23.7811 17.5074 24.1216 17.1095 24.4054 16.4842L26.0514 13.3011C26.3351 12.7895 26.2216 12.2211 25.8243 11.8232C24.4622 10.5158 22.7595 9.49265 20.773 8.75371C18.8433 8.01476 16.6865 7.67371 14.4162 7.67371C12.373 7.67371 10.5568 8.01476 8.91082 8.64002C7.32163 9.26528 5.90271 10.1748 4.76758 11.2548C3.63244 12.3348 2.78109 13.5853 2.15677 15.0063C1.5892 16.4274 1.24866 17.8484 1.24866 19.3263C1.24866 21.1453 1.53244 22.68 2.04325 23.9874C2.61082 25.2948 3.2919 26.3748 4.20001 27.2274C5.05136 28.08 6.07298 28.7621 7.20812 29.2737C8.22974 29.7853 9.30812 30.1832 10.3865 30.5242C11.4081 30.8653 12.4865 31.1495 13.5081 31.4905C14.4162 31.7748 15.2676 32.059 15.9487 32.4569C16.573 32.7979 17.0838 33.1958 17.4243 33.6505C17.7081 34.0484 17.8784 34.56 17.8784 35.1853C17.8784 36.4927 17.4811 37.5158 16.7433 38.1411C15.9487 38.8232 14.7 39.2211 13.1108 39.2211C12.0324 39.2211 11.0676 39.0505 10.3297 38.7663C9.53514 38.4821 8.79731 38.0842 8.22974 37.7432C7.60541 37.3453 7.03785 36.9474 6.58379 36.6632C6.12974 36.0379 5.3919 35.8105 4.71082 35.8105C4.14325 35.8105 3.63244 35.9242 3.17839 36.2084C2.78109 36.4358 2.44055 36.72 2.15677 37.1179C2.10001 37.1748 2.10001 37.1748 2.04325 37.2316L0.113522 40.4716C-0.170262 40.9832 -0.113505 41.6084 0.283792 42.0063C1.02163 42.8021 1.92974 43.4842 2.8946 44.1095C3.85947 44.7348 4.88109 45.3032 5.95947 45.7011C7.03785 46.1558 8.22974 46.4969 9.42163 46.7242C10.6135 46.9516 11.8622 47.0653 13.0541 47.0653C15.2108 47.0653 17.1406 46.7242 18.8433 46.0421C20.546 45.36 22.0216 44.4505 23.2135 43.2569C24.4054 42.0632 25.3135 40.699 25.9378 39.1074C26.5622 37.5158 26.846 35.8105 26.846 34.0484C26.846 32.4 26.5622 30.9221 25.9946 29.6716C25.5973 28.5916 24.8595 27.5684 23.9514 26.7158Z" fill="#A5343F"/>
<path d="M50.8541 8.81056C50.6838 8.35582 50.2297 8.01477 49.6622 8.01477H42.7946C42.2838 8.01477 41.8297 8.35582 41.6027 8.81056L27.4135 45.019C27.2432 45.4169 27.3 45.8148 27.527 46.1558C27.7541 46.4969 28.1514 46.7242 28.5487 46.7242H33.7703C34.6216 46.7242 35.3595 46.4969 35.9838 45.9853C36.5514 45.5306 36.9487 44.9621 37.1757 44.3937L39.5595 37.8569H52.7838L55.1676 44.4506C55.3946 45.1327 55.8487 45.6442 56.3595 46.099C56.9838 46.5537 57.7216 46.7811 58.573 46.7811H63.7946C64.1919 46.7811 64.5892 46.5537 64.8162 46.2127C65.0432 45.8716 65.1 45.4169 64.9297 45.0758L50.8541 8.81056ZM50.2297 30.5811H42.2838L46.0865 20.2927C46.1432 20.1221 46.2 19.9516 46.3135 19.7242C46.3703 19.8948 46.427 20.0653 46.4838 20.2358L50.2297 30.5811Z" fill="#A5343F"/>
<path d="M91.6622 15.859C92.3432 15.859 92.9108 15.2906 92.9108 14.6085V9.2653C92.9108 8.58319 92.3432 8.01477 91.6622 8.01477H68.8459C68.1649 8.01477 67.5973 8.58319 67.5973 9.2653V45.4737C67.5973 46.1558 68.1649 46.7242 68.8459 46.7242H91.6622C92.3432 46.7242 92.9108 46.1558 92.9108 45.4737V40.0737C92.9108 39.3916 92.3432 38.8232 91.6622 38.8232H76.9054V31.0927H88.3135C88.9946 31.0927 89.5622 30.5242 89.5622 29.8421V24.6695C89.5622 23.9874 88.9946 23.419 88.3135 23.419H76.9054V15.859H91.6622Z" fill="#A5343F"/>
<path d="M103.014 0C102.786 0 102.673 12.1074 102.673 27C102.673 41.8926 102.843 54 103.014 54C103.241 54 103.354 41.8926 103.354 27C103.411 12.1074 103.241 0 103.014 0Z" fill="#4D4D4D"/>
</g>
<defs>
<clipPath id="clip0_168_27">
<rect width="189" height="54" fill="white"/>
</clipPath>
</defs>
</svg>
