<svg width="130" height="90" viewBox="0 0 130 90" fill="none" xmlns="http://www.w3.org/2000/svg">
<path opacity="0.1" d="M99.6947 2.01682L25.197 8.06876C11.2432 9.21899 1.59185 19.6595 2.77405 32.0819L5.87489 56.1658C7.05709 68.6767 18.8209 78.7987 32.7553 77.6485L77.8726 73.9678C78.6284 78.958 77.3687 90.0001 77.3687 90.0001C77.3687 90.0001 95.3535 82.6387 100.896 72.1274L107.272 71.5965C121.226 70.4463 130.955 58.5548 129.695 46.0616L126.595 22.0484C125.412 9.6083 113.649 0.937374 99.6947 2.01682Z" fill="#000100"/>
<path d="M97.6018 0.087863L23.1816 6.15751C9.2278 7.30773 -0.501102 17.7482 0.661714 30.1707L3.76257 54.2546C4.94476 66.7655 16.7086 76.8875 30.643 75.7372L75.8378 72.1273C76.5936 77.1175 75.3339 88.1596 75.3339 88.1596C75.3339 88.1596 93.3188 80.7982 98.8615 70.2869L105.238 69.7561C119.191 68.6058 128.92 56.7143 127.661 44.2211L124.56 20.1372C123.3 7.69704 111.556 -0.973882 97.6018 0.087863Z" fill="url(#paint0_linear_67_806)"/>
<g opacity="0.1">
<g opacity="0.1">
<path opacity="0.1" d="M16.786 47.8134C17.7163 46.8932 18.2202 46.6631 18.2202 47.0525C18.2202 47.2825 18.1426 47.5833 17.8907 48.1319C17.3093 49.3529 15.5457 50.5916 14.3635 50.5916C13.1813 50.5916 12.5224 49.9723 12.4255 48.822C12.3479 48.3619 12.4255 47.1409 12.8518 45.6722C13.1813 44.522 13.4332 43.3717 13.6076 42.6816C13.6852 42.2923 13.6852 41.9207 13.6852 41.6022C13.6852 41.2129 13.6077 40.912 13.3557 40.6112C14.1115 40.3812 14.8674 40.2219 15.5457 40.2219C15.8751 40.2219 16.379 40.2927 16.631 40.5227C16.8829 40.7528 16.9604 41.1421 16.8829 41.5137C16.8054 41.8145 16.7085 42.133 16.631 42.5046C16.3015 43.5841 15.8751 44.8051 15.7976 45.336C15.6232 46.0261 15.4681 47.1055 15.4681 47.7072C15.4681 48.0965 15.4682 48.5566 15.7201 48.5566C16.0302 48.5035 16.3596 48.185 16.786 47.8134ZM17.7938 35.2317C16.786 35.2317 15.7007 35.391 14.848 35.6918C14.9255 35.7626 14.9255 35.851 14.9255 35.9926C14.9255 36.7535 14.596 37.9037 14.596 38.4523C14.596 38.7531 14.848 39.1425 15.7782 38.9832C17.038 38.7531 17.0379 38.7531 17.9682 37.4437C18.5496 36.6827 18.724 36.3642 18.8016 35.9926C18.8016 35.9218 18.8016 35.8333 18.8016 35.7626C18.8791 35.4617 18.4721 35.2317 17.7938 35.2317Z" fill="#000100"/>
<path opacity="0.1" d="M23.9372 44.8935C22.8519 46.433 22.503 47.194 21.4953 49.4236C21.1658 50.1138 20.817 50.5031 19.7317 50.5031C19.3053 50.5031 18.7239 50.4323 18.0456 50.3438C18.5495 49.2644 18.9758 48.1141 19.3053 47.0524C20.1387 44.5219 20.4875 42.7523 20.4875 41.6906C20.4875 41.2305 20.41 40.7704 20.2356 40.4696C21.1658 40.0803 21.9216 39.9387 22.5031 39.9387C23.0069 39.9387 23.6852 40.1687 23.6852 40.8589C23.6852 41.6198 23.3558 42.8585 22.9294 44.3803C24.2667 42.1507 26.631 39.8502 28.4722 39.8502C29.4799 39.8502 30.1582 40.4696 30.1582 41.2305C30.1582 42.0799 29.8288 43.4602 29.4024 44.982C29.0536 45.8845 28.7241 46.9639 28.7241 47.654C28.7241 48.0434 28.7241 48.5034 28.976 48.5034C29.228 48.5034 29.5575 48.2026 29.9838 47.8133C30.6621 47.194 31.0691 46.8223 31.321 46.8223C31.3986 46.8223 31.4955 46.8931 31.4955 46.9816C31.4955 48.4327 29.1505 50.5031 27.6388 50.5031C26.4566 50.5031 25.7008 49.9722 25.7008 48.7335C25.7008 48.0434 25.9527 47.424 26.1271 46.5038C26.7086 44.2742 26.9605 42.8939 26.9605 42.5931C26.9605 42.2922 26.7861 42.133 26.631 42.133C25.9527 42.2745 24.945 43.4425 23.9372 44.8935Z" fill="#000100"/>
<path opacity="0.1" d="M32.0769 49.7952C32.2514 48.9458 33.5111 43.2831 33.6661 42.593H33.2397C32.7359 42.593 32.0575 42.4337 32.0575 42.2037C32.0575 42.1329 32.0575 42.1329 32.0575 42.1329C32.387 41.2127 32.639 41.0535 34.0731 41.0535C34.1506 40.7526 34.2475 40.3633 34.325 40.0625C35.0809 37.2312 37.9298 35.6917 41.1275 35.6917C42.3097 35.6917 43.2206 35.9217 43.2206 36.7711C43.2206 37.2312 42.6392 37.6913 41.5345 38.1514C41.1081 37.3904 40.6042 37.0719 39.8484 37.0719C39.3445 37.0719 38.5887 37.4612 38.2592 37.9213C37.8329 38.4522 37.4259 39.4608 37.077 41.0712H37.9104C38.7437 41.0712 39.674 40.9119 40.4298 40.9119C40.4298 40.9827 40.4298 41.0712 40.4298 41.1419C40.4298 42.2922 39.0926 42.593 37.9104 42.593C37.484 42.593 37.1545 42.593 36.7282 42.593C36.2243 44.7342 35.7979 46.9639 34.8871 49.4236C34.1312 51.3347 32.542 52.8742 30.3521 53.5644C30.2746 53.5644 30.1777 53.6352 30.1001 53.6352C29.7707 53.6352 29.6738 53.4759 29.6738 53.3343C29.6738 53.1751 29.7513 53.1751 29.9257 53.0335C31.0692 52.1841 31.825 51.1047 32.0769 49.7952Z" fill="#000100"/>
<path opacity="0.1" d="M46.9416 39.8325C49.2866 39.8325 50.8952 41.142 50.8952 43.2832C50.8952 46.9639 47.6975 50.6446 43.8408 50.6446C41.4958 50.6446 39.8872 49.2644 39.8872 47.0347C39.8872 45.1236 40.643 43.4248 41.9803 42.0445C43.4144 40.6642 45.1005 39.8325 46.9416 39.8325ZM46.3602 41.2836C44.4222 41.2836 43.1625 45.0351 43.1625 47.2647C43.1625 48.415 43.5888 49.2644 44.5966 49.2644C46.5346 49.2644 47.6975 45.5836 47.6975 43.354C47.6975 42.133 47.368 41.2836 46.3602 41.2836Z" fill="#000100"/>
<path opacity="0.1" d="M60.9729 47.9548C60.2171 49.2642 58.3759 50.556 57.1937 50.556C56.0115 50.556 55.1782 50.0252 55.3526 48.7157C55.4301 47.9548 55.8565 46.7161 56.1084 46.0259C56.3604 45.3358 57.2906 42.8053 57.4457 42.416C57.6201 42.0267 57.6976 41.7966 57.3682 41.8851C57.1937 41.9559 56.2829 42.0444 55.4301 42.0444C55.2557 42.4337 55.0038 43.0353 54.6743 43.6547C54.2479 44.274 53.744 44.8757 53.3371 45.265C52.7556 45.6543 52.1549 45.7959 51.5735 45.5658C52.6588 44.4156 53.0851 43.4246 53.1626 42.0444C51.1471 41.3542 52.9107 38.8237 53.8409 39.0538C53.8409 39.5847 52.5812 40.8942 58.0465 40.0448C58.8023 39.8855 60.314 39.5139 60.5659 40.7349C60.8954 42.0444 59.9845 43.5662 59.4806 44.8757C59.1511 45.9551 58.7248 46.9461 58.6473 47.6362C58.6473 48.0963 58.5697 48.5564 58.8217 48.5564C59.0736 48.5564 59.5 48.1671 60.0039 47.8663C61.4768 46.2029 61.9031 46.3444 60.9729 47.9548Z" fill="#000100"/>
<path opacity="0.1" d="M75.7601 46.2029C76.264 44.0618 76.5935 42.7523 76.5935 42.593C76.5935 42.363 76.516 42.2922 76.264 42.2922C75.2562 42.2922 71.9035 47.1939 71.3996 49.6536C71.3996 49.8129 71.3996 49.9544 71.4771 50.1137C71.2252 50.273 70.4693 50.503 69.9654 50.503C69.384 50.503 68.8801 50.273 68.4538 49.8837C69.4616 46.1322 70.2949 43.2124 70.2949 42.5222C70.2949 42.2214 70.1205 42.1329 69.9654 42.1329C69.384 42.1329 68.2794 43.584 67.1941 45.0527C66.4382 45.9729 66.0119 47.0523 64.9266 49.3528C64.5971 50.0429 64.2483 50.4322 63.163 50.4322C62.7366 50.4322 62.1552 50.3614 61.4769 50.273C63.163 46.5215 63.9188 42.9115 63.9188 41.602C63.9188 41.142 63.8413 40.6819 63.6669 40.2926C64.5971 39.9033 65.3529 39.7617 65.9343 39.7617C66.6127 39.7617 67.1165 40.151 67.1165 40.6819C67.1165 41.4428 66.7871 42.5222 66.3607 43.9025C68.3763 41.142 70.4693 39.6909 71.8259 39.6909C72.6593 39.6909 73.3376 40.0802 73.3376 40.9119C73.3376 41.9029 73.1632 42.9823 72.8337 43.8317C74.8493 41.0004 76.9423 39.6201 78.202 39.6201C79.0354 39.6201 79.7137 40.2395 79.7137 41.0004C79.7137 43.1416 78.3765 46.2206 78.3765 47.5124C78.3765 47.9017 78.3765 48.3618 78.6284 48.3618C79.2098 48.3618 80.7215 46.6807 80.9734 46.6807C81.0509 46.6807 81.1478 46.7515 81.1478 46.84C81.1478 48.2203 78.8803 50.3614 77.2912 50.3614C76.109 50.3614 75.45 49.8306 75.45 48.5919C75.2562 48.0433 75.5857 47.1231 75.7601 46.2029Z" fill="#000100"/>
<path opacity="0.1" d="M93.4931 46.8931C93.5706 46.8931 93.5706 46.9639 93.5706 47.0524C93.5706 48.4327 91.3031 50.5739 89.7139 50.5739C88.5317 50.5739 87.7759 49.8837 87.7759 48.5035C87.7759 48.0434 87.8534 47.3532 87.8534 46.9639C86.2642 49.3352 84.6557 50.5739 83.2409 50.6446H82.989C81.2254 50.6446 80.644 49.4944 80.644 47.8841C80.7215 44.1326 83.9967 39.9033 87.5239 39.9033C88.3573 39.9033 89.1131 40.0626 89.617 40.4342C89.9465 40.1334 90.4504 39.9033 90.9542 39.9033C91.6325 39.9033 92.214 40.0626 92.8923 40.3634C92.0589 41.4428 90.7992 46.1853 90.7992 47.7248C90.7992 48.1142 90.7992 48.5742 91.0511 48.5742C91.3806 48.5035 91.7295 48.2734 92.1364 47.8841C92.8147 47.194 93.2411 46.8931 93.4931 46.8931ZM89.0356 42.4338C88.7837 41.6729 87.9503 41.2836 87.272 41.2836C85.5084 41.2836 83.8223 45.0351 83.8223 47.4948C83.8998 48.1849 84.0743 48.4858 84.5781 48.4858C85.0045 48.4858 85.6634 47.7956 86.5162 46.7162C87.6015 45.3536 88.6092 43.584 89.0356 42.4338Z" fill="#000100"/>
<path opacity="0.1" d="M106.09 46.8047C106.168 46.8047 106.265 46.8755 106.265 46.9639C106.265 48.415 103.997 50.4854 102.408 50.4854C101.148 50.4854 100.47 49.7953 100.47 48.3442C100.47 47.8841 100.547 47.2648 100.644 46.8932C98.8807 49.4944 97.0396 50.6447 95.5279 50.6447C94.1907 50.6447 93.338 49.6537 93.338 48.0434C93.338 44.4334 96.5357 39.9918 100.218 39.9918C101.051 39.9918 101.652 40.2219 102.311 40.5227C102.64 39.3725 102.815 38.293 102.815 37.5321C102.815 37.2313 102.737 36.9127 102.563 36.6827C103.319 36.2934 104.152 36.0634 104.753 36.0634C105.586 36.0634 105.935 36.4527 105.935 37.1428C105.935 37.7621 105.761 38.293 105.683 38.9124C104.598 43.0532 103.493 46.0438 103.493 47.6541C103.493 48.0434 103.668 48.2734 103.745 48.5035C103.997 48.4327 104.327 48.2026 104.83 47.8133C105.412 47.1232 105.916 46.8047 106.09 46.8047ZM101.633 42.7347C101.458 41.9737 100.702 41.4252 99.8691 41.4252C98.1055 41.4252 96.3419 44.8051 96.3419 47.5656C96.4194 48.2557 96.5938 48.5566 97.0202 48.5566C97.6016 48.5566 98.5319 47.6364 99.6172 46.0261C100.451 44.9643 101.129 43.8141 101.633 42.7347Z" fill="#000100"/>
<path opacity="0.1" d="M113.067 39.8325C115.412 39.8325 117.021 41.142 117.021 43.2832C117.021 46.9639 113.823 50.6446 109.966 50.6446C107.621 50.6446 106.013 49.2644 106.013 47.0347C106.013 45.1236 106.769 43.4248 108.106 42.0445C109.54 40.6642 111.207 39.8325 113.067 39.8325ZM112.466 41.2836C110.528 41.2836 109.269 45.0351 109.269 47.2647C109.269 48.415 109.695 49.2644 110.703 49.2644C112.641 49.2644 113.804 45.5836 113.804 43.354C113.823 42.133 113.474 41.2836 112.466 41.2836Z" fill="#000100"/>
</g>
<g opacity="0.1">
<path opacity="0.1" d="M63.5892 25.6405C63.5892 25.2512 63.3373 24.5611 63.0078 24.331C63.2598 24.2603 63.6862 24.2603 63.8412 24.2603C65.5273 24.2603 66.2831 24.6496 66.2831 25.7113C66.2831 26.5607 65.5273 28.171 63.7637 30.4715C61.4962 33.7629 59.4031 36.0633 56.7093 36.0633C56.5348 36.0633 56.3798 36.0633 56.2054 35.9925C56.2054 35.6917 56.2829 35.3024 56.2829 34.9131C56.2829 33.462 56.031 30.7723 55.5271 28.4011C55.1976 26.72 54.9457 25.8706 54.4418 25.5697C55.372 25.1097 56.2829 24.8088 57.1356 24.8088C58.1434 24.8088 58.7248 25.4282 58.8217 26.6492C59.0737 28.1002 59.1512 30.2591 59.1512 31.9402C59.1512 32.4003 59.1512 32.8604 59.1512 33.3205C60.4884 31.781 61.5931 30.3299 62.3489 29.1089C63.1629 27.6401 63.5892 26.4899 63.5892 25.6405Z" fill="#000100"/>
<path opacity="0.1" d="M73.919 24.7205C76.516 24.7205 78.2796 26.1007 78.2796 28.3304C78.2796 32.1704 74.8299 35.9927 70.5468 35.9927C67.9499 35.9927 66.1863 34.5416 66.1863 32.2412C66.1863 30.2415 67.0196 28.4897 68.4538 27.0209C69.9654 25.5699 71.9035 24.7205 73.919 24.7205ZM73.2407 26.26C71.1476 26.26 69.7135 30.1708 69.7135 32.4712C69.7135 33.6922 70.1399 34.5416 71.3027 34.5416C73.3957 34.5416 74.7523 30.7016 74.7523 28.3304C74.7523 27.1802 74.326 26.26 73.2407 26.26Z" fill="#000100"/>
<path opacity="0.1" d="M87.6014 25.8706C87.6014 26.7908 86.6711 27.4809 85.5858 27.4809C85.0819 27.4809 84.9075 27.4809 84.5005 27.4809C84.3261 27.4809 84.1711 27.4809 83.9191 27.5517C83.6672 28.5426 83.4152 29.6221 83.0858 30.7015C82.9114 31.3209 82.6594 32.2411 82.6594 32.8427C82.7369 33.4621 82.9889 33.8337 83.5897 33.8337C83.8416 33.8337 84.3455 33.4444 84.7719 33.0728C85.5277 32.3826 85.9541 31.9933 86.206 31.9933C86.2835 31.9933 86.2835 32.0641 86.2835 32.1526C86.2835 33.6036 83.7641 35.8333 82.078 35.8333C80.14 35.8333 79.3066 34.8423 79.3066 33.1435C79.3066 32.7542 79.3841 32.2941 79.481 31.9225C79.733 30.7015 79.8105 30.383 80.2369 28.7019C80.7408 27.0208 81.3222 24.8619 81.3222 23.7117C81.3222 23.3224 81.2446 23.0216 81.0702 22.5615C82.078 22.1014 82.9113 21.8713 83.6672 21.8713C84.423 21.8713 84.8494 22.2606 84.8494 22.8623C84.8494 22.7915 84.7719 23.7825 84.268 25.7821H85.2757C85.9541 25.7821 86.7099 25.7113 87.5432 25.6228C87.6014 25.7998 87.6014 25.8706 87.6014 25.8706Z" fill="#000100"/>
<path opacity="0.1" d="M95.1598 24.7205C97.7567 24.7205 99.5203 26.1007 99.5203 28.3304C99.5203 32.1704 96.0706 35.9927 91.7876 35.9927C89.1906 35.9927 87.427 34.5416 87.427 32.2412C87.427 30.2415 88.2604 28.4897 89.6945 27.0209C91.2255 25.5699 93.0667 24.7205 95.1598 24.7205ZM94.5008 26.26C92.4077 26.26 90.9736 30.1708 90.9736 32.4712C90.9736 33.6922 91.4 34.5416 92.5628 34.5416C94.6558 34.5416 96.0125 30.7016 96.0125 28.3304C96.0125 27.1802 95.5861 26.26 94.5008 26.26Z" fill="#000100"/>
</g>
</g>
<path d="M15.6038 46.8046C16.534 45.8844 17.0379 45.6543 17.0379 46.0436C17.0379 46.2737 16.9604 46.5745 16.7084 47.1231C16.127 48.3441 14.3634 49.5828 13.1812 49.5828C11.999 49.5828 11.3401 48.9634 11.2432 47.8132C11.1657 47.3531 11.2432 46.1321 11.6696 44.6634C11.999 43.5132 12.251 42.3629 12.4254 41.6728C12.5029 41.2835 12.5029 40.9119 12.5029 40.5934C12.5029 40.204 12.4254 39.9032 12.1734 39.6024C12.9293 39.3723 13.6851 39.2131 14.3634 39.2131C14.6929 39.2131 15.1968 39.2839 15.4487 39.5139C15.7007 39.744 15.7782 40.1333 15.7006 40.5049C15.6231 40.8057 15.5262 41.1242 15.4487 41.4958C15.1192 42.5753 14.6929 43.7963 14.6154 44.3272C14.4409 45.0173 14.2859 46.0967 14.2859 46.6984C14.2859 47.0877 14.2859 47.5478 14.5378 47.5478C14.8479 47.4947 15.1968 47.1939 15.6038 46.8046ZM16.7084 34.1521C15.7007 34.1521 14.6154 34.3114 13.7626 34.6122C13.8401 34.683 13.8401 34.7714 13.8401 34.913C13.8401 35.6739 13.5107 36.8242 13.5107 37.3727C13.5107 37.6736 13.7626 38.0629 14.6929 37.9036C15.9526 37.6736 15.9526 37.6736 16.8828 36.3641C17.4643 35.6032 17.6387 35.2846 17.7162 34.913C17.7162 34.8422 17.7162 34.7538 17.7162 34.683C17.7162 34.3821 17.3674 34.1521 16.7084 34.1521Z" fill="white"/>
<path d="M22.755 43.9024C21.6697 45.4419 21.3209 46.2029 20.3131 48.4325C19.9836 49.1227 19.6348 49.512 18.5495 49.512C18.1231 49.512 17.5417 49.4412 16.8634 49.3527C17.3673 48.2733 17.7937 47.123 18.1231 46.0613C18.9565 43.5308 19.3053 41.7612 19.3053 40.6995C19.3053 40.2394 19.2278 39.7793 19.0534 39.4785C19.9836 39.0892 20.7395 38.9476 21.3209 38.9476C21.8248 38.9476 22.5031 39.1777 22.5031 39.8678C22.5031 40.6287 22.1736 41.8674 21.7472 43.3892C23.0845 41.1596 25.4489 38.8591 27.29 38.8591C28.2978 38.8591 28.9761 39.4785 28.9761 40.2394C28.9761 41.0888 28.6466 42.4691 28.2202 43.9909C27.8908 44.9111 27.5419 45.9905 27.5419 46.6807C27.5419 47.07 27.5419 47.53 27.7939 47.53C28.0458 47.53 28.3753 47.2292 28.8017 46.8399C29.48 46.2206 29.887 45.849 30.1389 45.849C30.2164 45.849 30.3133 45.9197 30.3133 46.0082C30.3133 47.4593 27.9683 49.5297 26.4566 49.5297C25.2745 49.5297 24.5186 48.9988 24.5186 47.7601C24.5186 47.07 24.7706 46.4506 24.945 45.5304C25.5264 43.3008 25.7783 41.9205 25.7783 41.6197C25.7783 41.3188 25.6039 41.1596 25.4489 41.1596C24.7706 41.2127 23.7628 42.4337 22.755 43.9024Z" fill="white"/>
<path d="M30.9916 48.8042C31.1661 47.9548 32.4258 42.2922 32.5808 41.602H32.1545C31.6506 41.602 30.9723 41.4428 30.9723 41.2127C30.9723 41.1419 30.9723 41.1419 30.9723 41.1419C31.3017 40.2218 31.5537 40.0625 32.9878 40.0625C33.0653 39.7617 33.1622 39.3724 33.2398 39.0715C33.9956 36.2402 36.8445 34.7007 40.0422 34.7007C41.2244 34.7007 42.1353 34.9307 42.1353 35.7801C42.1353 36.2402 41.5539 36.7003 40.4492 37.1604C40.0229 36.3995 39.519 36.081 38.7631 36.081C38.2592 36.081 37.5034 36.4703 37.174 36.9303C36.7476 37.4612 36.3406 38.4699 35.9918 40.0802H36.8251C37.6585 40.0802 38.5887 39.9209 39.3445 39.9209C39.3445 39.9917 39.3445 40.0802 39.3445 40.151C39.3445 41.3012 38.0073 41.602 36.8251 41.602C36.3987 41.602 36.0693 41.602 35.6429 41.602C35.139 43.7432 34.7127 45.9729 33.8018 48.4326C33.046 50.3437 31.4568 51.8833 29.2668 52.5734C29.1893 52.5734 29.0924 52.6442 29.0149 52.6442C28.6854 52.6442 28.5885 52.4849 28.5885 52.3434C28.5885 52.1841 28.666 52.1841 28.8404 52.0425C29.9839 51.1754 30.7397 50.0252 30.9916 48.8042Z" fill="white"/>
<path d="M45.8564 38.8239C48.2014 38.8239 49.8099 40.1333 49.8099 42.2745C49.8099 45.9552 46.6122 49.6359 42.7556 49.6359C40.4106 49.6359 38.802 48.2557 38.802 46.026C38.802 44.1149 39.5578 42.4161 40.8951 41.0358C42.2517 39.6732 43.9184 38.8239 45.8564 38.8239ZM45.1781 40.2041C43.2401 40.2041 41.9803 43.9556 41.9803 46.1853C41.9803 47.3355 42.4067 48.1849 43.4145 48.1849C45.3525 48.1849 46.5153 44.5042 46.5153 42.2745C46.5347 41.1243 46.1858 40.2041 45.1781 40.2041Z" fill="white"/>
<path d="M59.8877 46.8931C59.1318 48.2026 57.2907 49.4944 56.1085 49.4944C54.9263 49.4944 54.093 48.9635 54.2674 47.654C54.3449 46.8931 54.7713 45.6544 55.0232 44.9643C55.2752 44.2741 56.2054 41.7436 56.3605 41.3543C56.5349 40.965 56.6124 40.735 56.2829 40.8235C56.031 40.8235 55.1976 40.9827 54.3449 40.9827C54.1705 41.372 53.9186 41.9737 53.5891 42.593C53.1627 43.2124 52.6588 43.814 52.2518 44.2034C51.6704 44.5927 51.0697 44.7342 50.4883 44.5042C51.5735 43.354 51.9999 42.363 52.0774 40.9827C50.0619 40.2926 51.8255 37.7621 52.7557 37.9921C52.7557 38.523 51.496 39.8325 56.9612 38.9831C57.7171 38.8238 59.2287 38.4522 59.4807 39.6732C59.8102 40.9827 58.8993 42.5046 58.3954 43.8141C58.0659 44.8935 57.6396 45.8845 57.562 46.5746C57.562 47.0347 57.4845 47.4948 57.7365 47.4948C57.9884 47.4948 58.4148 47.1055 58.9187 46.8046C60.2947 45.1943 60.721 45.3536 59.8877 46.8931Z" fill="white"/>
<path d="M74.5779 45.1943C75.0817 43.0531 75.4112 41.7436 75.4112 41.5843C75.4112 41.3543 75.3337 41.2835 75.0817 41.2835C74.074 41.2835 70.7212 46.1852 70.2173 48.6449C70.2173 48.8042 70.2173 48.9458 70.2948 49.105C70.0429 49.2643 69.287 49.4943 68.7832 49.4943C68.2018 49.4943 67.6979 49.2643 67.2715 48.875C68.2793 45.1235 69.1126 42.2037 69.1126 41.5136C69.1126 41.2127 68.9382 41.1242 68.7832 41.1242C68.2018 41.1242 67.0971 42.5753 66.0118 44.044C65.256 44.9642 64.8296 46.0437 63.7443 48.3441C63.4148 49.0343 63.066 49.4236 61.9807 49.4236C61.5543 49.4236 60.9729 49.3528 60.2946 49.2643C61.9807 45.5128 62.7365 41.9029 62.7365 40.5934C62.7365 40.1333 62.659 39.6732 62.4846 39.2839C63.4148 38.8946 64.1707 38.753 64.7521 38.753C65.4304 38.753 65.9343 39.1423 65.9343 39.6732C65.9343 40.4341 65.6048 41.5136 65.1784 42.8938C67.194 40.1333 69.287 38.6822 70.6437 38.6822C71.477 38.6822 72.1553 39.0715 72.1553 39.9032C72.1553 40.8942 71.9809 41.9736 71.6514 42.823C73.667 39.9917 75.7601 38.6115 77.0198 38.6115C77.8531 38.6115 78.5314 39.2308 78.5314 39.9917C78.5314 42.1329 77.1942 45.212 77.1942 46.5038C77.1942 46.8931 77.1942 47.3532 77.4461 47.3532C78.0275 47.3532 79.5392 45.6721 79.7911 45.6721C79.8687 45.6721 79.9656 45.7428 79.9656 45.8313C79.9656 47.2116 77.6981 49.3528 76.1089 49.3528C74.9267 49.3528 74.2678 48.8219 74.2678 47.5832C74.074 46.9638 74.4228 46.0437 74.5779 45.1943Z" fill="white"/>
<path d="M92.3107 45.8844C92.3883 45.8844 92.3882 45.9551 92.3882 46.0436C92.3882 47.4239 90.1207 49.5651 88.5316 49.5651C87.3494 49.5651 86.5935 48.8749 86.5935 47.4947C86.5935 47.0346 86.6711 46.3444 86.6711 45.9551C85.0819 48.3264 83.4733 49.5651 82.0586 49.6358H81.8066C80.043 49.6358 79.4616 48.4856 79.4616 46.8753C79.5391 43.1238 82.8144 38.8945 86.3416 38.8945C87.175 38.8945 87.9308 39.0538 88.4347 39.4254C88.7641 39.1246 89.268 38.8945 89.7719 38.8945C90.4502 38.8945 91.0316 39.0538 91.7099 39.3546C90.8766 40.4341 89.6169 45.1765 89.6169 46.7161C89.6169 47.1054 89.6169 47.5654 89.8688 47.5654C90.1983 47.4947 90.5471 47.2646 90.9541 46.8753C91.6324 46.2029 92.0588 45.8844 92.3107 45.8844ZM87.9502 41.4427C87.6982 40.6818 86.8649 40.2925 86.1866 40.2925C84.423 40.2925 82.7369 44.044 82.7369 46.5037C82.8144 47.1938 82.9888 47.4947 83.4927 47.4947C83.9191 47.4947 84.578 46.8045 85.4307 45.7251C86.4385 44.3625 87.4463 42.5929 87.9502 41.4427Z" fill="white"/>
<path d="M104.908 45.7429C104.986 45.7429 105.082 45.8137 105.082 45.9022C105.082 47.3532 102.815 49.4236 101.226 49.4236C99.9661 49.4236 99.2878 48.7335 99.2878 47.2824C99.2878 46.8223 99.3653 46.203 99.4622 45.8314C97.6986 48.4327 95.8575 49.5829 94.3458 49.5829C93.0086 49.5829 92.1559 48.5919 92.1559 46.9816C92.1559 43.3717 95.3536 38.93 99.0359 38.93C99.8692 38.93 100.47 39.1601 101.129 39.4609C101.458 38.3107 101.633 37.2313 101.633 36.4703C101.633 36.1695 101.555 35.851 101.381 35.6209C102.137 35.2316 102.97 35.0016 103.571 35.0016C104.404 35.0016 104.753 35.3909 104.753 36.081C104.753 36.7004 104.579 37.2312 104.501 37.8506C103.416 41.9914 102.311 44.982 102.311 46.5923C102.311 46.9816 102.486 47.2117 102.563 47.4417C102.815 47.3709 103.144 47.1409 103.648 46.7516C104.327 46.1145 104.753 45.7429 104.908 45.7429ZM100.451 41.6729C100.276 40.912 99.5203 40.3634 98.687 40.3634C96.9234 40.3634 95.1598 43.7433 95.1598 46.5038C95.2373 47.194 95.4117 47.4948 95.8381 47.4948C96.4195 47.4948 97.3497 46.5746 98.435 44.9643C99.2878 43.9025 99.9467 42.8231 100.451 41.6729Z" fill="white"/>
<path d="M111.885 38.8239C114.23 38.8239 115.839 40.1333 115.839 42.2745C115.839 45.9552 112.641 49.6359 108.784 49.6359C106.439 49.6359 104.831 48.2557 104.831 46.026C104.831 44.1149 105.586 42.4161 106.924 41.0358C108.358 39.6732 110.044 38.8239 111.885 38.8239ZM111.304 40.2041C109.365 40.2041 108.106 43.9556 108.106 46.1853C108.106 47.3355 108.532 48.1849 109.54 48.1849C111.478 48.1849 112.641 44.5042 112.641 42.2745C112.641 41.1243 112.311 40.2041 111.304 40.2041Z" fill="white"/>
<path d="M62.4074 24.6496C62.4074 24.2603 62.1554 23.5701 61.826 23.3401C62.0779 23.2693 62.5043 23.2693 62.6593 23.2693C64.3454 23.2693 65.1012 23.6586 65.1012 24.7203C65.1012 25.5697 64.3454 27.1801 62.5818 29.4805C60.1399 32.7011 58.0468 35.0016 55.353 35.0016C55.1785 35.0016 55.0235 35.0016 54.8491 34.9308C54.8491 34.63 54.9266 34.2407 54.9266 33.8514C54.9266 32.4003 54.6747 29.7105 54.1708 27.3393C53.8413 25.6582 53.5894 24.8088 53.0855 24.508C54.0157 24.0479 54.9266 23.7471 55.7793 23.7471C56.7871 23.7471 57.3685 24.3664 57.4654 25.5874C57.7174 27.0385 57.7949 29.1974 57.7949 30.8785C57.7949 31.3386 57.7949 31.7986 57.7949 32.2587C59.1321 30.7192 60.2368 29.2682 60.9926 28.0471C61.981 26.6315 62.4074 25.4813 62.4074 24.6496Z" fill="white"/>
<path d="M72.7369 23.6409C75.3339 23.6409 77.0975 25.0211 77.0975 27.2508C77.0975 31.0908 73.6478 34.9131 69.3647 34.9131C66.7678 34.9131 65.0042 33.462 65.0042 31.1616C65.0042 29.1619 65.8375 27.4101 67.2716 25.9413C68.8802 24.561 70.7214 23.6409 72.7369 23.6409ZM72.0586 25.1804C69.9655 25.1804 68.5314 29.0912 68.5314 31.3916C68.5314 32.6126 68.9577 33.462 70.1206 33.462C72.2136 33.462 73.5703 29.622 73.5703 27.2508C73.5703 26.1006 73.2408 25.1804 72.0586 25.1804Z" fill="white"/>
<path d="M86.4389 24.8796C86.4389 25.7998 85.5087 26.4899 84.4234 26.4899C83.9195 26.4899 83.7451 26.4899 83.3381 26.4899C83.1636 26.4899 83.0086 26.4899 82.7567 26.5607C82.5047 27.5517 82.2528 28.6311 81.9233 29.7106C81.7489 30.3299 81.497 31.2501 81.497 31.8517C81.5745 32.4711 81.8264 32.8427 82.4272 32.8427C82.6791 32.8427 83.183 32.4534 83.6094 32.0818C84.3652 31.3916 84.7916 31.0023 85.0435 31.0023C85.121 31.0023 85.121 31.0731 85.121 31.1616C85.121 32.6127 82.6016 34.8423 80.9155 34.8423C78.9775 34.8423 78.1442 33.8514 78.1442 32.1526C78.1442 31.7633 78.2217 31.3032 78.3186 30.9316C78.5705 29.7105 78.6481 29.392 79.0744 27.7109C79.5783 26.0298 80.1597 23.871 80.1597 22.7207C80.1597 22.3314 80.0822 22.0306 79.9078 21.5705C80.9155 21.1104 81.7489 20.8804 82.5047 20.8804C83.2605 20.8804 83.6869 21.2697 83.6869 21.8713C83.6869 21.8006 83.6094 22.7915 83.1055 24.7911H84.1133C84.7916 24.7911 85.5474 24.7203 86.3808 24.6319C86.4389 24.7203 86.4389 24.7911 86.4389 24.8796Z" fill="white"/>
<path d="M93.9972 23.6409C96.5942 23.6409 98.3578 25.0211 98.3578 27.2508C98.3578 31.0908 94.9081 34.9131 90.625 34.9131C88.0281 34.9131 86.2645 33.462 86.2645 31.1616C86.2645 29.1619 87.0978 27.4101 88.532 25.9413C90.1212 24.561 91.9817 23.6409 93.9972 23.6409ZM93.3189 25.1804C91.2258 25.1804 89.7917 29.0912 89.7917 31.3916C89.7917 32.6126 90.2181 33.462 91.3809 33.462C93.4739 33.462 94.8306 29.622 94.8306 27.2508C94.8306 26.1006 94.4042 25.1804 93.3189 25.1804Z" fill="white"/>
<defs>
<linearGradient id="paint0_linear_67_806" x1="61.1644" y1="-4.24034" x2="67.6558" y2="103.069" gradientUnits="userSpaceOnUse">
<stop stop-color="#D34A54"/>
<stop offset="0.4794" stop-color="#B13833"/>
<stop offset="0.6908" stop-color="#A12F23"/>
</linearGradient>
</defs>
</svg>
